<mxfile host="65bd71144e">
    <diagram id="rwbc4lNjfXqRiJTDo9lZ" name="第 1 页">
        <mxGraphModel dx="1053" dy="1831" grid="1" gridSize="10" guides="1" tooltips="1" connect="1" arrows="1" fold="1" page="1" pageScale="1" pageWidth="827" pageHeight="1169" math="0" shadow="0">
            <root>
                <mxCell id="0"/>
                <mxCell id="1" parent="0"/>
                <mxCell id="2" style="edgeStyle=none;html=1;fontSize=18;exitX=1.017;exitY=0.341;exitDx=0;exitDy=0;exitPerimeter=0;endSize=14;" parent="1" source="3" edge="1">
                    <mxGeometry relative="1" as="geometry">
                        <mxPoint x="980" as="targetPoint"/>
                    </mxGeometry>
                </mxCell>
                <mxCell id="3" value="" style="rounded=0;whiteSpace=wrap;html=1;" parent="1" vertex="1">
                    <mxGeometry x="60" y="-280" width="120" height="820" as="geometry"/>
                </mxCell>
                <mxCell id="4" value="客户端" style="text;html=1;align=center;verticalAlign=middle;resizable=0;points=[];autosize=1;strokeColor=none;fillColor=none;" parent="1" vertex="1">
                    <mxGeometry x="90" y="-335" width="60" height="30" as="geometry"/>
                </mxCell>
                <mxCell id="5" style="edgeStyle=none;html=1;exitX=-0.033;exitY=0.622;exitDx=0;exitDy=0;entryX=1.003;entryY=0.624;entryDx=0;entryDy=0;entryPerimeter=0;fontSize=18;endSize=14;exitPerimeter=0;" parent="1" source="6" target="3" edge="1">
                    <mxGeometry relative="1" as="geometry"/>
                </mxCell>
                <mxCell id="6" value="" style="rounded=0;whiteSpace=wrap;html=1;" parent="1" vertex="1">
                    <mxGeometry x="990" y="-280" width="120" height="820" as="geometry"/>
                </mxCell>
                <mxCell id="7" value="服务端" style="text;html=1;align=center;verticalAlign=middle;resizable=0;points=[];autosize=1;strokeColor=none;fillColor=none;" parent="1" vertex="1">
                    <mxGeometry x="1020" y="-335" width="60" height="30" as="geometry"/>
                </mxCell>
                <mxCell id="8" value="updateEmp" style="text;html=1;align=center;verticalAlign=middle;resizable=0;points=[];autosize=1;strokeColor=none;fillColor=none;fontSize=20;" parent="1" vertex="1">
                    <mxGeometry x="490" y="-360" width="130" height="40" as="geometry"/>
                </mxCell>
                <mxCell id="9" value="html" style="text;html=1;align=center;verticalAlign=middle;resizable=0;points=[];autosize=1;strokeColor=none;fillColor=none;fontSize=18;" parent="1" vertex="1">
                    <mxGeometry x="525" y="-320" width="60" height="40" as="geometry"/>
                </mxCell>
                <mxCell id="27" value="" style="shape=image;verticalLabelPosition=bottom;labelBackgroundColor=default;verticalAlign=top;aspect=fixed;imageAspect=0;image=data:image/png,iVBORw0KGgoAAAANSUhEUgAAA/QAAAFECAYAAACJcHU+AAAgAElEQVR4nOzdz0oj2xo//O9+2TfwG5SIGPqY35GGBAcq2OgFJBkYy1zACw12hOBEdFI7PT7uTCK+gxDQFvYdpKvjIOYCIgq2g5BAE0hoIiLWRex3UP8rVZWK5m/39wN9ODtlVa1atapSz1rPqvzxf/7f/+9fEBEREREREdFM+fP//Hdr0mUgIiIiIiIiogH98Z+l/8sReiIiIiIiIqIZ8+e/DOeJiIiIiIiIZs6ff/zxx6TLQEREREREREQD+n8mXQAiIiIiIiIiGhwDeiIiIiIiIqIZxICeiIiIiIiIaAYxoCciIiIiIiKaQQzoiYiIiIiIiGbQ7xHQpwq4a8vIDrhaVm6h84r1plMSxdsWrqRJlyOgV56z4ZFw1a6hmBr2dtXz0Gm30HHdvoSrtrp8Zs4VBTRj1yARERERTb2xBfRqcGz+Mx5qJdn2ubnMDGzs/wYP8sTYKnD9BSfDPaSBicUaOvKwn+YDBgmpBNZRxUVuyLu3cQmCJRmd2wLEUe4Wo6rbUeyzjMyHZSyFL9FwXZ7Ddlhdjv0W7orJtxd0YszOC7fjsN0THPUoFmvmsp7285pOD7+26X+vcd67+t2nPM+Z2zVo3P8Gva/51y0RERER/R7GENCrD55pXGIpvGz827Y+1CpVHPYs0wObZRxeK0BdX18cMDCXkI4D99XywCU/EV+zv+mU/RgDvlcgT7ogFFAO2+dNCGuJkXeGjIaEq/YpQqUjVJTepWKxZrsnXGDPDEwlGWdrD8Y94fD7Ks70gD9VwF17B91jrw6R1/C/16j3gWUsHVehoImLnnuYgsqx+TeIn7p2NDivQbFYQyf1iMPz5oDl9a9bIiIiIvp9jD6glz4hITRxIY50aNhn/5uI1r8hU7J8lirgzjqqZh0BdGYMOEYH+2UamA/y6sjdXTFp7O8sLgAre64jebYRSedonaNM+nrqOqdICEB03z+Ne2ulia8Ze6eG1z6zcgtXRa2OZMk4ZnNEUkbWWqaAo9RisYa7ouSdcm49L/kYBM+yWururXXbT0wecJ9q/RS1fV5J+gjuKzJL3gk9n9nan9E2++wzVcDdbQFZSz1Y68d2vvu2+aDHoQbJ266XvdrJVvknZ/z31gq0zoskiqkIGqUDLfBNIrEmACub6n5LB9gIb9mv52lSquBeAebeOUfNe69BObOFpQ8Hr+hk86tbIiIiIvqdjDygF98JQP1GHeWWXIIjABBiOHMLkt8siWJKsAQOmtIBNiwZARfPMaT1feZEM5PguArnAJgxWqctn0tpwU9OxNJ5E9F9PU13D3PXR9jIlI392Uf/ltVlWr2cLXwzt3sOpI0gWTuG4+We9eTMFpbC6ihd41xf3hvsiMUdzDmnHPjuE4jGF/H1uAplZQ+7T0e4qFuDlAjSqUdtBPUSjZWdwHPNhfgeQiV9NBRIfLSMvOZXcX/sXvfqserHeImX+CdLgPfauu1bWiTWtOM8rgJB94kIEgvfcHitILqvjyYLCAWdj69dJ2dxoJI7sI3o7j4dGfs7/L6Kz0XznPjuU4ghrdeD9Vg00bhe90eowLwesrI9u+bwWkBaD/hdpsu4dyg5pEKYg4JuCeaI+3kVirCIKKIICQq6PwBzJHrA+vMkIJG3lHU/8tYN9kolsC4oPRlBrtcgEREREdEbjfeleFqwfFF3fO6acj8E0ick8IBKz2iefd5resVtRM2dbbQ3H4MgLCKqL8yJasDTVoOgjUywNP/sZsQ20tvZjwDzIW2UtIzusxqIvG6urPuUA/99AooRfPSO7AOKJdDMoVYXEHofsDj1S+P8ytUHKNo+xdgqBGcmhe0wrMHjHqIBA7x+x+nPcpylLl4CB5WK2Ynkd0x+6peOzhl1pFqInxrHchYXICzora/fPi1ZMqUK7hX7sSjXf2vrlNF91q+HJELziq1DTK4+aIE37J1fYe8OJU+SjE5+EV/DW8j8cCx7r6fWD3MkWrF1jC0NnOruxdJRkF/F/bGzDl4/7YeIiIiIyM+fo96B/FPB2ZoaQI17/nZ2M4JGSezZb1beQ7R+iSUtwMnKLewG2WCqgM9xoHK8rD6wpwq4yy/2/JmiKBDmBzvmxrl34HIiLuMEZoo9LGXvS5tysO0SZHntM9r70ds8dyEDb5gLLuFqP2Ipr4Sr9k7gtf3qdirlRCy5LlBQ6QkWAWBCr02XZJdRbq8yWpS6eMnHkE5VcRjWOkzeL0JQHtFAAyFlD4n9RVyEt9ROJW1Evzatafb9jtnnGiQiIiIieovRj9DnbtAQYpbU4DFJFbA77/ZW9yRC84Dy1DD/biXgNt8vQtBThaG+5Mo2y1l7mdf/Pmzh4rn3mOWfiuvocONJMVL1/ciZLTUV3bYN64iqk8eUgwH22VeqgN2VJmo5AGigqwhYj+llUedDG3XtYH1JmPxTMedJQ8KVdQ69nqKtjeKKxZ2eToe31K1ozD0PeMx99vlWYrHm8mZ3LVNDGsIvBnhmrjhp+/xoVkz2YwyCPoXm1SP0OdTqgGK8IE5rJ98rkFFG5btiTtNx7nPmeF+DQby2bRIRERHR72EMKfc5bIcv8WJJFU6vAC8/LemnI5hD7/1W9zIypaaZupxfxP11wFdF576gokSQ1sq5+1Q137QtyejsC0aK9omoHbN1vnbuCyowj1VPoZczW7iom9u1v2PA8bNY+VXc5+wv0jr5R32zds8cZp/AzX+f/ThTjPVfAigj88F6rk+ReHZMPbCkv9umJeRES3kcbzEvHeBr3dzn2cJD79u9X1W3b+SxT3/6+VSnDajHFOz37k/EI9v+BrtWLHWwD1wEfBnbiXiEyrzlnM1XcRgoO0T/WTX1pY369aaX90Q8wv2a2U7Wvx/Z3g1xAXs7MTNSrPWnvwwyWP1NhF/niT6NZD8C4/wE+olH/7olIiIiot/HH/9Z+u+/ky7E0Gmp8F/f+pNzkqz+rNSr3kQ9aUkUb08RKg073VxNd+/2S6t2IRZr6gvqJvWLB7+rYV0PNKBRXYNERERERKqRz6GfiNIBNoYwXzW7GQGeb2YwmAfU0XK+hItocngNEhEREdFo/ZoB/RtkZXVKAAD17fsfOLRGRERERERE0+fXTLknIiIiIiIi+sWN93foiYiIiIiIiGgoGNATERERERERzSAG9EREREREREQziAE9ERERERER0QxiQE9EREREREQ0gxjQExEREREREc0gBvREREREREREM4gBPREREREREdEMYkBPRERERERENIMY0BMRERERERHNIAb0v5JUAXdtGVntP7NyC3fF5NB3k5Vb6LTVf1fS0Dc/OEk2ytOR3Qukltmsm3EY7T6TKN4GrH9Huxh2GdS6r6GYGvoOpmSf/vpfD1qZbwsQx1aqEe9zaG1q+s7nSGn3qqm4b9oMcD/xJeFqlOdxWutvZPfYIZPk/s8Ekuxy30iieDsDxzd1AtzfUgXctUfzrNa3XFP0/TCJZzSdWKx5PjuOxazcP97qdznOCRlfQK99EY/3puVtNBfwsB6KnII9JImxVeD6C04Cb9bti7u/E3EZS+EjVJQBVxyVnIil8DIOr8dboIl+CaQSWEcVF7nhbO51x1JG5sMylsKXaAynGFO6T3+TuR5Gda8JZuB7jacJnU/tIXrwjgQJV22zA2davs/ebMj3k9/N8K6HEZFkI1h6+RnFlU+nSHYzgkbpADIA/T5zV4wCz49AsTamjkn7dRb8PmcNoKehk3BS31e/yvcD/U6sgyPj67h9zb3GeZ/R/o110KbX2AL67KaAynkVWEtM9IB/XRLSceC+Wp50QaaSGnSJY/2CGeU+sx9jwPeK9tA1zUY8YjcTtIe6DwdjPF+j3Oes32skXOVXcX+8jKXwMpaOH7CeDzJqkETxdg9z10fqeuEj3K+dDvbQoXU+bk9Z4Dwz95OprL8ZuB5yIpbCN9jajyC6v4maVx2mCthdaaJmLFPvI//DDhIrMezi7zHcx9TrDOfa9Rm+BPaDfYeIxb+w/l2/PpexdK4g8XHa0jkcSgfYCC9jIzPO9jN93w+TeEaj6aK2Af3abSKaGnWA/Np7jd5RZ/47vFaA5+5Ev0PHFNBL2Jp/QCVXwT1WkXBWljVl2tlDYhtJcYyIOJaZ60m4asvIuqVia+ucxQVgZc9jpGXwdCSxWEOnfYqEAET33XuHbb1PxrZ796VuS33AVNfZQxQCEnl9fZeHT2kT0fo3ZErOBQmz98nYh9YjtR8BhBjOHHWUlVu4Kmp1K0tGuYeTjmnt0bIcR6qAu9sCssWayznxOZ/9WNuI6/l09LT1nAeXttevDfXbp2d7V4+z6FoH9nrcWmniq/EA4N+GdCHLdo19+h6LvTxXkn7+3poypW3Hcg6zsl7+Ue0TPfcLZ33dFSX39EjfttnvUPu0WZ/7m1dvdd97TZ992rfbew0W+00h6LnXjPh8+qRZO+soyHkRizu28ouxVQiIYKvvLSWKkGC97sqofFcw9y5IW/BOvVXbXkGtF0s7c72fuNxTnHVg336QjALH/URrB877VlbuvW+4txMF3ffubVDdhrVMQdvBhOrP9zj16nP57n3jvcbzGnRuN+h3oSSj095E7byJxvkNtjzaQu/Iqlrvn/ENlXoVX/GXyznrvf6N7Tm+Q4OV9RMS1mwRaRNRCFiP9b/O5J8KhPhfWn0mUUxFoDwFGxv3/L6Hf7v1PZ999J2u9Ut8PwC9I5qO7Q7wvOT1fOJ2f3N/5rbWk7rsLC64HIgXr3uq3/egy7G6lNf1GQ0B2mbRuw7fdH9z++5NFXDnbOODZPsqWqZPn+9s8Z3gEiBPz73GsSGk40Dln8n2NI8noJc2Mfe9AhllVL7DXlmSjM6+gMqx2dNh9BynCrjLx/Bybi4zezElXOUX8TVs7VmxftFEkE494lBb1ljZURug1ht6eK0A9UuX7b6OnNky0m4bRnm3zIfGYg27T2bP8eH3VXwuJqH29Byhgpj636kCPscVXGg9lWqP1SUaUCx15OzFTKKYElwbkxBfRfdYSwlGDGkJAHLY1nrAoFS1OlrGkmiuH40v4utxFcrKHnafjnBRR8AHVz/afo0eLQG71otZiCG98E0bNasC8U/9z2c/2vleOm+6LEyieHuKxLPZDqw91uo5NdvXi16efm3Ib5+SjM4+cKFv97iKOVuPYASJtQf1OHvqQCUWdzBne+jyb0PGdvW6tfZ89r0e1PUOrxVE93fQPb5EAwJCbxpxz2E7fInGyp76RSHJSM9XcWjU/Sj2aR6rfowXz/r1oBLiewiV9LYJ+8iOb9v0O1Sf6SC+9zdHb/VxFXPaOet3r/HbZ1ZuIY1L2zWYtn4RCzEk9OWuPeRu95rJnE/nsVzU7cucD4H6A0d0QTAe8rNyC2cL3wLe3xroKtbAX0I6LkBYiAYorX/qrXqfvkRDa2eH14q5XZ92KxZral2Hly1tQm8LSRRvd7T7v55R8FfPfbPnflLq4kVYRBR6sJIEkERoXkH3h3rcr/ru1ahtQD9nEft3wFTVX7/j1OrY7bv3jfca92tQwpX1fqF/f4sBHiJzovHcMPeugW3XZx4J6bhi6bAy630j0wDmF4HMVuBRVLFYw5n+Xea8H7kEaXqgYX2QF4s1dFKPuLCez37HefyA9XwLnfYpQqXgz3ae3/cav3brez59+E7X+mW+H6AGTtbnLGsb8nteShVwZ4kP9OcU2/OJx/OS9zN3n7bpy++e2ud7sM/59HxGQ4C2GdczzqzP+cO4v7koHeBr3R70ZjcjULQML7/vXgB9nqXMzpKzuIKLIPc2TOheY9v/jseA6niNIaBXe0lffqoNV64+2NLus5sRKNd/u1aEGFuFUL90Tw2TNhFFBGnjBKmj2OZDooJKTn+gzKFWFxB6H7TMw05HSiKxJkCIn9p6BM1GU0bmwyVe4qfo5Fdxfzxg2pH0CQk8oOJSh2bdltF9Dh6UK8YDXtPxBf8W9l7as56H4aZ5AZcquFeGdT49pBJYF5reNw3bjcDZvl5HfCdY6hbmcRrHYjnOUhcvPfv0Smfr14Ysx/njEYr2wN6fYn45D3DDMntLHdklRq9pDtvHVcztt9QODtu19rp99mfvWU+vOK4Hy71Grj5AmQ9ZHlb82ubr+N7f4OhxzscgBD5nXtSgzPqwJVcfHG2hTzvxvNeM8Hy6pllL2FpRPHvEbQ+7Lp11QBTF25b6wBfwoQEoI5PTjrHdQqe9ie61EngE0JdRL27H1KfdOhjLUgmsC9bMrlMkBOd90+1+0kBXa99RKHhZSEBEFCFBQbeEN3/3Wr/vT26aAz88uRpF/fU9TvhcD0O61/S7Vw96T8iJngGu+lB64/HsUUbmg9dzidZRb7uO1Gcecy5+bzl6rk9r0Amzs23pw0Hw+eeSrH3/6Z3lr8ymcjnXvu3W93y+zi/1/fDjEcrKnkt2xyvY6tbrecnvmbtP20TvaK+ZmdTvnur9PdjvfPrWbeC22f85f6D7m8cUp5N/rNOn7Rle/b97/Z6lLIN+50C6p71M0b3GMB2j8wDw58j3kEpgXQAErYGrFCRSgPzWB/X65QAPY5OmoHK81edhVoGiDB6oqi+xEad+/qNY/AsJVHEYPjB6xM4WJl0qLxKu9iNonOs3MwlX7Z1JF8pIZ9v2bEeva0PDJme2tPao1lvXq+0rChRBu6GPuHczK+8harlnZOUWdke7y9dLFfA5DlSOl9V6SxVwl1+cdKn632vGeD79ZGU1iLJR1NGSxpOCdHwPofNlbOQA9UEWeLkJ0HFZOsCG40EgFGS9N/Brt3L1AZ/j6rSpM0D9TrQGbIo1U8KF6/2kjO7zXwhBwtbCDS6eNpGQgDnl0XzYmaHv3jfVX5/j9LoeRnOvyaFW30PaeJZSnymGM+c4icQaUMmN6ZxKsjrlz0Z7Rvqp4Cy+h93rI+NcWLNq/KgDREfad80BNt7L6KQSEFHu83w0pd/3Xmbt+8G4b2odXYGeh6EGfFJMDaDzANDERTjoQJvXPgJM3TCeX9w22+eeCgz5e/D1bfOt9zdPpQrupb/UOO79JqL1G2xri/y+eweKUXJfUEn99fY6HNG9Rqff672fycdn5CP0eq+U/eUBZtr9yU0Tgkf6qlx9gOKVWq31+AX92S77i17UuVbw7EV97U96ePWOldF9FpCQvLanv5hhCxu5KuZ60l60ERO3IC1VwO78K99OPNBI7SAkYz6j9XijC9Y5MWq6qvcmvLMO3M7nq5QquFc8Uj5TIcxBTzHVRi8cf+Lfhtypc/ws7V36hIQQ9Fi8p1b0b0P9yzXosbyN9mKy3BY2zhWfa+M1m3b7RQ01aDNu1KkCdp1fOha+Lwnza5sD8L2/vV+EAG1EVCuP/WoZLOPGXEewpYNmP8YgeI7KOfjea0Z4Pl1/1km9J+rfI2KxZnuI8BslkKsPUGC55tyuwQC/yqKnM9rrQ89CGtZP8/i32+xHewqn7eGs1MWLEDPSTN227XU/aTwBoY+bwE0O8k9gfXPRvHe/8bvXvv8IGjf20Zapqb9+x+l5PQzxXuOyv0OPUSaV+3dvX9InJJ5fmw3l9ryk3p+im1rlSbJ9nrLfqFnuBg0oZtZIqoDdFcWRReJ9nNaRc/Fd7zOGPvpqnxfc//vedrw97dY0rBdM/lrfDzp1hPUiaIalX6q+L79n7j5t00/fe6r396Dv+fQzUNu0e9P9DfD5ScUyMiUF67Gk+sJzy3dI/xF6C79nKekTEoLZxlXTda/R/34aRueBkQf0WiqE48ZnC2pyojpPxy29pXSgXhR5c5nRsEoH2DhvWl764axwS1qMWwpy7gsqMF8IN6yfHzr5pwoYaT7m3OgT8ci2P/M4zXnc2zn1uP53LSBte+lEGZmS9VgtvzX/li+P0gG+1i0pN4FeNKc/cNlfumK/KTTQVdCTDnjyT1VLu2qh095B99o5Z8pSlp60Xe/zqX9B217sJpsXt7o9ywsAjXZiSVN3tiFtnpC+z7OFh955bl5tyG+fzva+L6ASdIqF580vSBvq41XXg55Wak2rD7JPCVftPczpaWI5ERfPMZwFeogPsM8fj1AARyqveg0ZKXj5Rdw7581ZXgqYxmXP/Db3tul/Pfi2Tb/7W+4LKoq5z92nak8qmNe9xm+fJ+IRKvOW45wPOAcXfveaEZ/PUhcvAATbL6So6e/68Z+tPaBS79m4u9IBNs5hP58DzAs2Uji1FD17fagPF3CZKvO6a8W/3Z78Y50C4D6tBdb7m/Wc9OmYiq4I6kNk7gYvKxFAD1Df+N1rpsGeYv37kSOdc4rqr89xel8Pb73XeCgd4Ouz/Rmitw7cv3v9+Qeo/WnnTLC/8PhEVOcT69dYJfA85Ry2jXnwehsKMJqL3vvbWVxxPEdonddwBLsBvu99263n+fRrt32epX6Z74feFPY0LKnnvs9LX2zl6bmH+fB+5na0zdQjDl3fseTG757a53vQ73z6CfIs6lUHb7i/qX/j9t2rV8UNXuKnSGPQjkCvZynHS7NTjzjs+V6ennsNoHd4TX7uvO6P/yz9999JF2L4+qT5/iq0NKuvU/hTH8ZLKoKm2fgey29yPn2pQXuoNG0/2TSN1Lpa/34U+IVI6vSPb+7pZ1N8nY3NROsg2PnMyuqc+PH+/JML48WXo6+rnmNOFXAX6KFkMveTQOdoFurvDdeD773Gj8s+jZeYWbY18HevJKsPz294Z1CQfb76uIdODbxwHrzt+7Xb6TmuCRrV90NP2xz8u/139vrvB9301fds3WvGa/Rz6Gl0HPM5p4L2Jk/hNXNmyEcZmQ/TcUOdZmKxhrO4AOV6er6AfgmTutfo89+cc/+mkhooRNEcSzCqp3bjyfKRIxXX2zTeT2ao/iZxPbxfdKRVa6n9383U/ld99+ZELL36udd6zqb/+16f39sYIJinAEZ0PahTJh4tn0QREmC8ZJv8vOX7AVP43Ttb95pJYEBPwzWNnQz02/B9mQ3NnjcFG+OWw3Z4nIUtI5NL4C5/ik77VPtsmC9KGzfWn6+ciIvNFtLtFtL6Z9aH7Yl89477nL3Nibg8neeWXMmZv5G4PTVf6gaonfWz0+Qm6I33t6n77p2te80k/KIp90RERERERES/tjH8Dj0RERERERERDRsDeiIiIiIiIqIZxICeiIiIiIiIaAYxoCciIiIiIiKaQQzoiYiIiIiIiGYQA3oiIiIiIiKiGcSAnoiIiIiIiGgGMaAnIiIiIiIimkEM6ImIiIiIiIhmEAN6IiIiIiIiohnEgH7WpAq4a8vI9nzWwl0xOalSDY8ko9Nu4UqawL7d6rYfrbzqP21d7Xx02i10bgsQR1PaocnKv0jbISIiIiL6zYwvoNcCn2kJHMRiDR150KgxieJtyxLAzUbARqMi4WpfQOV4GUvhZSyFRZwAQOkAG+FlLJ03X7FNtY1NpEODiIiIiIhmyp/j2lF2U0DlvIr1VAIiypDHteMRaJwvYzs36VJYlA6wUZp0IYYkJ2JpmurWTyqEOSio/Sp1T0REREREM2VMI/QStuYfUMlVcI9VJFLOxbJt1Ns2OmlNX3aO8DuWmetJuGrLyFq3q4/Ga+ucxQVgZc99u688xqu2jGKx5r1Nn+PMyq3e1G2348zHIMB9PeeoblZu4aronf5t32cLnXYNRcu5EYu1ns/6c8li0I/Hcfz2OrKu59ynz/l8K5+6VffrUlZ9nXwMAiJID9iGnPWunze1vk+REIDovntd2NYdYnbIy8+o5Vgt7S9VwN1tAVm/dk1ERERERBMxnoBe2sTc9wpklFH5DqzHLAGBJKNjS1u2jH6nCrjLx/Bybi7byJT1FXGVX8TXsL7sEti3BsIRpFOPONSWNVZ21MBIS4c+vFaA+qXLdvszgy1nUBVBYu1B3edxFYh/Msvjc5xZuYU0zLIcXgtI69tNFXCXX8W9vt5xFYqlLCfiMpbCR6hYP7SWNa6ve4QKYkhbgsf0fFWrH3X9xvkWMm8cbc7Kp0g8XxrnpAEFlWMtFT0nGse4dFyFUr+01HsZmQ/6Om48zudb+NZtEsXbHXSN83WE+7W/bG1I/fsmLgZsQ+o5M/c5l1LPtZzZspwL/W/McyIWa9h9OjLbyfdVfB5ScB3dN4/1oh7BrnW7Qgy7+Nsor61dExERERHRxIwh5T6JYiqCl5Ia7MjVB3yWzLT77GYEyvWRayApxlYh1C+x4ZaCLW0iigii7RbSxocKuikAJfX/V3IHWmp/DrX6HrbeByzvrTpKqmriQp8brfFOubfss9TFS34VIa083seZRGheQSVnblCuPuBzfBFRAIitQqh/e3WgrVz/ra1bRvf5FOvvkgDcA885xzI5szWEqRECQj31LuFKAv73YZDc+teeT2+iX92mElgXBAj5Fjp58+PGG/cJqIH5WdyaC9BEFOhT10kk1gQIwik67VPz43oUXudzEGY7AU5umkhvWrfbxFe9s+JXmt5BRERERDTjRh/QpxJYFwBhv4XOvv6hgkQKkN8aGNQvsSQOe8J1GZkPbw+Qpp3aaRDDWbuFM0CtywGyFLyc3DSR3t9Dp70HAFCujxwdMtrId24YnQUjplRx+OFguOVMFfA5DlSOl9UAOlXAXX4xaIFQOX57FgUREREREf0aRp5yr4+yGynG4WUcXptp9yc3TQgeKbxy9QGKV2r1j0coK3vB3gaeKmB3pYmaJbCUfyrAfGhsb6j3Ps4yus8CEh/NA8l+jEGo3+BEL+fKpraehKueed6vk/1on8rg1jEy+Bz6JIop+7QCZxq6WPwLodIbg1KX82nMdx9gXrlv3Za6eBFiQ0tpN7xfhAAFXe34sx+d57OM7rOeLeH8XEBC8js+/T0EA/70nnMbqQgaN7PyZkIiIiIiot/XiAN6NU3YGRzIPxUzuM2J6pxxt5fFlQ6wca4gkXd5MVnpABvnTZ/57IK5Xn4V98f2tHnkvqACdYR60Bd9eSqLpyQAACAASURBVO/Th89xnohHqMybL+hLz1dxqAfYOREXdf3FazvoHlvnmOsBnP1FakE6OU7+qWLOehxDedFcGZmS/XzZ6laScRYX7PVn7FN/Ad0eosa5s3Ym9DmfaKCrABC0qQpB+NZtDtvHVSB+6v2yQi/6y/v2I4CgtTG9neS+oKKYL9Lbfar2vDPg5B/rfs06OBGPbG2291yrnQGAoE71GIBg7O8U69+PputXHIiIiIiIyNUf/1n677+TLsTwSbhq76DL9GRPWbmF3acjcwTdeEHcW+pMff9AqGR5x4Ako7OPnvcQDCbY+RSLNZytPQw/TX6WDKW+iYiIiIhoFozpZ+touiQRmnd85EgFf50oQo75AOI7AVAePd5cPyT6TxH+1sG8luHAYJ6IiIiI6Lcxhrfc0/QpI5NL4C5vfWO6+sK1twWCOWyfb6JjewFiExfhEQfZfPM6gBy2w8yTJyIiIiL6nfyiKfdEREREREREvzam3BMRERERERHNIAb0RERERERERDOIAT0RERERERHRDGJAT0RERERERDSDGNATERERERERzSAG9EREREREREQziAE9ERERERER0QxiQE9EREREREQ0gxjQExEREREREc0gBvREREREREREM4gBPY2NWKyhI0uTLkZAEq7aNRRTky4HERERERGRu/EF9JKMTruFu2JybLv089rgMitPzzH8brJyC522+e9KAtTAu4XObQGi/oeSbP/vmaIdj+0Yg0iieGupn5npOHEnFmvmsQxyLrX7zFTVg0eZbMfYbqHTlpEdQ3FeVbfOYxi4fQ6bS4eb47p3v1+M1qvbLWCv45m9fxEREdG4jS2gz24KqJxXgbUEH1RoQGqwmp6v4jC8jCXt33ZOX65AQQzpKYjd3iaJ4u0ecK4f4yWwHyxLICufIvF8adTNBfZmt+NJknG29mCc68PvqzgLFJhLuNoHLow2coTK/M5EsyzEYg0dW5mWsSTmzD+oW85ZPYLdUZ+z19ZtTjTLr7XNBhR0f4y2uK8lFmtI49JW5u1c//Xe5NXt1qWdfDiAPOLiEhER0a9hTAG9hK35B1RyFdxjFQnnA7Zj9Mc2kpIq4M6yzBakOJaZ60m4asvIWrerP1hp65zFBWBlz327r+QccbNuMyu3cFW0lNcxAuMcTeroo0+pAu6sI3eO//bbZ8+orWMU0L5u7+igunywtPPeUUfnyFjIUqaAI5KpBNaFJi58HnLvS1XMbQ4a0dtHw11HxmKyTxvR1nd5aO+phyAP9tInJFDFhR54SJuIQsB6rF/bTCI0r6DyjxmxnNw0ISxE++9TY2t/ljoQizXcFQuWehqknTjrN0hbSqKYiqBR0s91Eok1AVjZDNBWGugqEaT1upY+ISEo6Jb6rmg5DpfjTBVwd1tAUfZq014kpOMCGuciToIVAS8/yy5lmoa6tROLO4jWvyEzsbr1F10QApZpGuo2icQaUDkO3k6IiIiIdOMJ6KVNzH2vQEYZle+wByiSjM6+gMqxy0hKqoC7fAwv5+ayjYz+wCvhKr+Ir2HraKY12IggnXrURksu0VjRRupKB9gIL+PwWrGNjpnbfT05s2UbwXqJf7I9zEXjq7g/1kYOLSPKYrFmGX0+QkUBGudbgR6W/fZpH7VVR9SMh0ZJxtnCN3Pdc5iB0LDq4LwJ5frIPjK2EkOoNOCI5PtFCMojGn5/86OC+4FHY3PYto7mKs5OAwGJNa0NHVcBx/n0IhZr9pG6a8Vc6Jq6rAYM4jsBeO5C1rbRST3i4loJEJiX0X22Bv5qcIH5UKBsGLFYw+7TkXHeDr+v4rPlvAjxmJE1EHwUWcJV255tYJ4/t44mvdMjipCgj/xKuGqfIlS6RAMCQn3PbRmZD2p2QqfdQif1iMNwwCCp3/UgxJDQR3zPm4imAqREp0KYQxO1nH4sLp1Glk7FNC4DjiJPom7t+0/HYetA8v/zEdRtHyfiJRpa3Q7WWTuBuk0lsC4oQKzm2CYRERFRf3+OfhdqcPFSUgNmufqAz1ICIsqQAWQ3I1Cuj1yDVzG2CqF+iQ2350ZpE1FEEG23kDY+VNBNASip/7+S04OzHGr1PWy9D1je21MkjAGeJi4GCAo6+xHLB9byAMr139pxltF9PsX6uyQA946EOZ9lg+zTTkBIq4PsZgRYiaDT3rOs+ggRMAJaObP1+rTPVAF3mzfYEB3HUDeDlsaTgvRCFPpxisWamjmhaZyrnTviOwHAY58dlpEpfULnowTcDF7crPwXkNtynGdLGyp18ZJfVR/OjbrNYTvsbJzqyJw5UueQE7HkEQeJMb0sanC39CEHsVgLVP4T8RJb7VN02qdqua+bwEI3wPlTyysI+rqaunle/M4Z4NFOpE1ElSoOXY+1jMwHr7atBTLvC7hrqx1gmZKaSt+fdu0+X2IpnENWbuGsLSMa4Prtfz00caGnyv94hCIsIqovc1yDyvWRSweh1lYkGR1rgFe/NFLws3ILHRm2lPzpqVuTPjq/HXB0fvR160a/NtU20WmfGvcT3XTVbQTrOMJSuGyU+UrKjX6aABEREc280Qf0qQTWBUDYb6FjPNwoSKQAOeADoSfLw/Dw+D20+ZFwtR+xPDRKuGrvBFpTrj7gczyGs3YLZ4B6XIEeWv33eXLTRHp/z3iQVq6PbJ0jzgfc4dGzJw4GWsurA0H+qeAsbnnI95L7gsptsFF0K3WE+m9svLU9BtHTAQMACirHW8j8VHAW38Pu9ZFx/qMLApQn39wEjb1zQSzWsB5oPcv+x3H8AHo7zTT1SyyJDXSVPST2F3ER1jpYUiHMQUGtX/mMqRlqPZyIRwjdnmJLAhCgnb/6evDqpHHtBPJ2ctNEOhWydaoNbkR1q0sV8DkOVI4Hq6ih162XZ2cnlnY/l2R0UgWIubfMTR9l3Tbx1bjn9+/wJSIiItKNPOVeH2W3vpzo8NpMuz+5aULwSGWWqw9QVjzSqH88QlnZCzbfMlXA7oqe+qpt+6cSOCU5EO3hTX9JlFjcQdAZzNmP9mkFvZ0UetpmEkUpBuN50nefSRRT9qkM1pGtxpOC6L7/HPbXzKEHgKy8g+4w54PmvqBinRvtqYzKdwG7KecTt54q63K8qQI+L3x75ZQLbbu2efdldJ+BqD6fX5JtWQe9LxdbxlJYC6ZzN2hAwX21bJRtd8Xy3+oGe9/q7yTJOIsrlgBBpc9jtl8zarp+QnpDmrM2jcC23R+PUAT9fRnqy/7MtqmmxvfUg5iDeg4VoH5jtJ/sxxgEy397HwsAW4pzFKGeqdTu9RfkehhcDrV68LrNbkZ6A9Kpqlv9773mzo+zbhvoKr3TTLw6v9QsH2dxp6RuSxXcKxG140ktGLZ6rnsiIiIidyMO6LX04xt7gCr/VMwgPifi8FpA2u0laqUDbJwrSORdXvpWOsDGeRPRfa8XmgnmevlV3DsDzNwXVKCOig86z1KIn/a+MKl0gK91c59nCw+oKH03BQA4+aeKuX23eZnO7erzMuGyzLnPMjIle91Zj1PObOGiHrHV+7BeDJheEdzP2auVkflwhMr8nu1Y3AIOOfMNL4Lz4V0NstEzn1XCVT4GYcW63UECD227gv1Fj9b5u519oHIdsCEgh+3jB6zb2m3AkXPr3HyPuePyT7Uc6nQOa3mPbNfCwC8m+/EIBZZODAAoHeB/1zDa7fr3qv87EKzlzGyZ8+C1ueWBMnF67hd7mHO+wwENdBUAWlq3bZ8juB5OxGVcPFvqdt8RtK/0Oc5pqVvA6GDynjs/zrotI/PhEi/GvVidaqF2zPXOdT9be8Ch86WaU1O3ZWRy1u+APSDgO1SIiIiI/vjP0n//nXQhhk9NPe+ONY349bJyC7tPlrmhqQLuBgnmXKnpoaGSJdVVkrWfRvoN36Y8omM3XoDn8wZ+sVhTXwo29OkhgzJf+DXcqRZBtjs912SQczY9WLejM1t1S0RERORmbL9DT16SCM07Pnq/CAHBf27LXW+6sfhOAPq9Lf6Xo6UBDz2YV7d7Fld8f05vWqg/Szf8YF5NIXYbCZ9C+k9WzkjAybodnZmqWyIiIiIfY3jLPfkrI5NL4C5vfcu4+pKytwWfOWyfb6JjexlhExfh6X/YHi63N9FP83ZH40RcHklWxpt+CWHcSgfjefHhkLBuR2em6paIiIjIxy+ack9ERERERET0a2PKPREREREREdEMYkBPRERERERENIMY0BMRERERERHNIAb0RERERERERDOIAT0RERERERHRDGJAT0RERERERDSDGNATERERERERzSAG9EREREREREQziAE9ERERERER0QxiQE9EREREREQ0g2Y3oE8VcNeWkZ10OSYsK7fQaav/rqRJl4aIiIiIiIjGZWwBvTXwnPrgM1XAnaWsndsCxCFsVizW0JGHe+An4jKWwkeoKEPd7O/Ddq5rKKYmXSAiIiIiIqJg/hz9LpIo3p4igSoOwweQR7/Dt5FkdPYjaJwvYyM36cLQaEm4yq/i/ngZmRLU4D4vI1sScTLpohEREREREfUx+hH6VALrQhMXHzyC+X6j4Y7ld8WkbfVQseYx6i/hymc9L9nNCJTrI2x7BfOS7JFpIOGqLaNoKY+xT+0YzuICsLLnvvy2gKzbur77DEKrhwEyA7JyC1dFrd5lyciu0PcrWsppL2vvvrJy8AwH3ywOZztx28+AGRVicQfR+jc1mAcgxlYhIIKtac4eISIiIiIi0ow+oH+/CEF5RMNreekAG+FlLGn/Lp5jSOsBVaqAu3wML+fm8o1M2bJyBImFb+qy8yaiKT2QS6J4u4Pusb7eEe7X/gqQTp1EaB54+Vl2XyzJ6OwDF3p5j6uY27emaUeQWHvAobYM8U/qHH/tGA+vFaB+6X4sQgy7+NvYrrFu332ORjS+iK/HVSgre9h9OsJFHZh7pwbucmbLOIal8CVe9LIih+3wJRore2owLslIz1dx6NWZ46BOH7Acp3E+JVxZ28F5E1CqOBTVXhexWMPu05Gx7uH3VXzWOhmcnQTWgD+6IEB5ahh/d7bwzXacRERERERE02zkKffiOwHAo89fSLhq7yFq+UR5SgIoqyOm9Uuf1PcmLrSgDj8eoQiLiAKQUwmsCwKEfAudvPnXjfce+1T0oDOKkOB/LMr132Y6dqmCeymGkLFdBZWcFryWunjJryKUAlDyOXzLsXzVA/zSATb0UeO+++wnh+3w4HMHlOsvOEECu3q55FNzoTYtwfLX6BrHmcP2cQh3+RY6aOLCNs1Cm35h1HETF2EzvV0s1tQsBpjLo4B7Z4B+rpFEYk2AIJyi07aUsR4FUMaJuOyZPh/V/rd4e4r170dYypSRlff8K4aIiIiIiGhKjDygl38qOIsvegZmWXkP0follrTAPCu3sDuMHSt+I8NeQW4DXQVYf6d2KJAbCVfaOwbUaQkSrto7vX+mKFAEwdGhUUbmg0e9pgr4HAcqtvnsi9rCHGr1PaT3W+jsA4CCyvGWJVBX/zvj0nGSlVtIrzjLpraNxpOCdHwPIeN9CVqGxg3PPRERERERTb/Rp9znvqCiRJB2ncOtBlB62jNSBexagi+5+gBlZWfw9PJSFy9CzEi7Dq6MTKkJIe6eni//VCAY6eUApE9ICE3UAg6Ayz8VYD400Bvz37rP18yh95UKYQ4Kuj/U/xSLO7bsCuNFc7ktbJwrSEgBfyHg/SIEKOhqQXn2YwzGWH2qgN35qjqVIbyMpbA1eC+j+yx47seWxq//0zp65OoDFFjqcuC6JSIiIiIimpwx/GxdGZkPR6jM77m88EwPoE/Vz/OLuL+2/P5a6UANCvODvtwuh+3jKqBvt91CJ+hv1udELDn2abxkLSfi8FpAWv98X0DleIA3oue+oIIYzgY5Ft99JlG8baHTVtPYo/tj+EnA0gG+1gWjfs4WHiw/madOZZi7/lsNuHMiLp5jOAtS93rHj3acu09V870LpQN8fTbrzfkTcyfika1eA9dB6QAb57DULWxTAIiIiIiIiKbZH/9Z+u+/ky4EkS8t/f6rJdjOyi2kYU7VICIiIiIi+t2MYYSe6I3eL8L+rkLHVA0iIiIiIqLfEEfoaSb0vNyuztF5IiIiIiL6vTGgJyIiIiIiIppBTLknIiIiIiIimkEM6ImIiIiIiIhmEAN6IiIiIiIiohnEgJ6IiIiIiIhoBjGgJyIiIiIiIppBDOiJiIiIiIiIZhADeiIiIiIiIqIZxICeiIiIiIiIaAYxoCciIiIiIiKaQQzoiYiIiIiIiGYQA/rXkGR02i1cSZMuSBLF22koR0CpAu7aLXTaLXRuCxDd/mZq6paIiIiIiGi6jS2gz8paIKf9m+qATZK9A056vdIBNsLLWDpvTrokREREREREM+/P0e8iieLtKRKo4jB8AHn0Oxy9nIil3KQL8Yti3RIREREREQUy+hH6VALrQhMXH7yCeTVtvOOSii0Wa7grFnBljOzLyBrbLeDutoCi7DXqL1nWa+GumLTvVkvttq+rrbMfAYQYzvTlsr5ha1lrKKacx2pJKXfsMyu3cFX0SznXtv2GzACxWHPdr1vdWv/eq26zluU99efFUQfBj8e7bsVirWc7WTn4cRIREREREf2KRh/Qv1+EoDyi4bpQHb1f/36EpfAylsLLuHiO4Uw2I3MhHgPOtWX1CHatgaUQQwKX6rrnTURTeiCXRPF2B93jZW27R7hf+8sMEiUZnX0BFWP5MrZzAJDDtp4SrlRxqC1bEvUh4zIyH5axFL7sPZ5UAXf5Vdwb27zES/zU1skQjevLj1BBDOkhTjsQizWcrT3gMLyMjUzZ+Gz3yazbw++r+KzXnyTjbOGbsWzpHEhb6h1CDGl9+XEViH8yA34/elq95XwGO07vupUz39AQVpEwgnwJWysK7qsBjpOIiIiIiOgXNfKAXnwn+CyNIiQ08VULQAHg5KYJzIfMEdb6pRZsA40nBcJC1LJ+Exd6sP3jEYqwiCigZQUISOT1UdtTJAQBoffqn2Y3I1Cu/0amNJRDVL1fhFD/ZtlmDrU6MPfODCzNfZbRfbYvMwJaz0wGb9H9lhqc29ZNIrEmQIifGiPXZ3HBqL/sZgRY2TNHtfcj9nq31m2pgntFQMjaIeKZ/WDPjEivOI/zNXK4uAbWY3pnxCaiRl37HycREREREdGvauRz6OWfCs7iaqA91vnzShWHrwiOZ1Hj/Ajd1Cnuig1jdF6loHK85dlx0ThfNjpLBuIzzz0r7yFavzSyGrJyC7uv2IWTXH3AZykBEWVENyNo3FiT6v2Pk4iIiIiI6Fc0+pT73BdUlIg9ndvQQFexptEnUUxFoHyvvC0QL3XxIsQ8065PbpoQ/FLIraP9Qf14hLKyY6b1pwrYtaSF9/eWOfRlZD44U/zL6D4LSEju22s8KYjuy8HS6KVPSOABlb4BcxKheUB50pLmUwXsrgQ8hH5KB/j6vIpESsLWfBUXRoeC/3ESERERERH9qsbws3VlZD4coTK/h96X0JmBqJEa/3zpGGV+jRy2j6uAJQ3b9tK3nIjDawFpr5/RKx3gaz1iLjc6I/R08j1Eoaf0ay9wKx1g41wx0/zzMbycj3PUWD3muX2zvCeiOlf/zOU45cwWLqzH2JM6b1m2D5+XGlqVkSk1zfT3/CLurxVzsZ6qb33poNGB4VO3mpMbBYn8HlCyl8XvOImIiIiIiH5Vf/xn6b//TroQNGVSBdzlF/E1LOJk0mUhIiIiIiIiV2MYoSciIiIiIiKiYWNAT0RERERERDSDmHJPRERERERENIM4Qk9EREREREQ0gxjQExEREREREc0gBvREREREREREM4gBPREREREREdEMYkBPRERERERENIMY0BMRERERERHNIAb0RERERERERDOIAT0RERERERHRDGJAT0RERERERDSDGNATERERERERzSAG9E6pAu7aLXTaLXRuCxAnvc9UAXdtGdlxlIOIiIiIiIhmxugDeknuCVKzcgt3xeQwNo6rdg3F1BA2pSsdYCO8jKXz5hA3OoX7BFzPTeD19A6IdgsdWbItzspey5Io3lqWOc+dtWNj2OeViIiIiIjoF8MRehqQhKt94CK8jKXwMpbCR6jM7xjBt1isIY1LbdkyLrBndN6Ixb+w/v3IWLZ0riDxUTK3m1/F/bG27PgB63lmJhAREREREXmZgoDeMWrrMprvNqKrfr6HKAQk8vpyRwCojSRf2QeQ38YxOu3ctr28lvLYRp8HT+cPFWvu+3Rs15754BwR18sj4ardQmc/AggxnHmMtIvFmstIeQNdJYK0/rfSJyQEBd2Sut10HKj8k9MrC1srgLCWgAhA/qlAiP+lbS+JYioC5amh7WsH0fo3ZEravmOrEBDB1jDPHRERERER0S9kPAG9NWhst5Be0RckUbw9tY3aXjzHcKYHi6kCduerODRGg7eMgO9EXMZS+BINKKjoo7phESejPA5JRsc6On1cxdy+vZMhbSuvpTx6Wr3lONOBg9UIEgvftFHtJqIprTMgVcCddVQ7fImX+KkZ8EufkHg2R8vN8uSwraf4K5byijmvAliUkfmgjrx32i10Uo841LebCmEOWnCfKuCuvYPueRWKsIgoAOREbeS9hU77FKHSMjYyZQBAdEEwgvus3MLZwjdc1IG5d8OYmkFERERERPTrGU9Abw0aw8u4qOsLoggJTXzVgjoAOLlpAvMhNWAtdfEixHD22vnUORFL4WVsB4lTAxDfCVCuv1iC9AruFQGh94A6Gq2gkjuA7Lq2Nipu6dQIHqw2caEH2z8ezQD5/SIEy6g2kEPNGgT/eISystebuRCQnNmydaKo1FF/Pa3+4jmGM7fMiPwivoa3kPnh/FzrgDiuYm7fmVEQRfG2hd2no4CdC0RERERERL+vKUi596ONJIf/BiT3FPdZkZX3EK1funRqjJCRFXCDrWG9aC6VwLpgdjCciEeoKFpqfKmLF0SQto7av1+EoDyiASC7GYFy/bfaQVA6wMZ500jHbzwpEOJ7llH7JELzwMvPsldJiIiIiIiIfmsTDujV+di7xiitNq/6e8Uxyq2meR9eK45R7Qa6xgi5iyHPoVfngH8yR6OlT0gITdRygDo6Llhe8malBqd6SjlSBeyuuPzZoH48QlkxX0inblfBfdUZBKsdIxd1R11ZR/tduM+hBwABIeOzKEKCuZ9aHZbz13s+hQVzb+I7Y0XI1Qco0OsSjrolIiIiIiIipz8nu/syMh+iuGqfotM+VT+qX2JJT8GXZPXFbTqlisMPZfv6pU/o7LfQ2QeAJi7eOo/ets8IztotnClVHH44gJwTcfiuhrN2C2m1QKgcbxn7OxGPELo9Rae9p32il0cvp36cTVSuFawH2adfWUsH2Hgvo5NvoZNXP2qcL5svlivWcBY3g2bUL7GUs6//9WMLaf146pf9U91d9qlcH2Ej56yDU3OZdj7d60c7Rn27Rt0O4VwSERERERH9wv74z9J//510IYiIiIiIiIhoMFM+h56IiIiIiIiI3DCgJyIiIiIiIppBDOiJiIiIiIiIZhADeiIiIiIiIqIZxICeiIiIiIiIaAYxoCciIiIiIiKaQQzoiYiIiIiIiGYQA3oiIiIiIiKiGcSAnoiIiIiIiGgGMaAnIiIiIiIimkEM6ImIiIiIiIhmEAN6IiIiIiIiohnEgJ6IiIiIiIhoBk1PQC/J6LRb2j8Z2THuOiu3cFdM9nzmXY4kircto7y2dVMF3Dk/G5BYrKEjS69e304r620B4pC2OH4Srto1FFOTLgcREREREdH0GENAL+Gq3bIE626BsoSrfQGV42UshZexFBZx0merYrFm347WIXA1rDjYd99/IfF8qZV1GRuZ8uh36kXrQDDqdkYDd7UDpfffOM6nJ1vd9nYo2Mo8YAeM2n7HeHx9Osz8jsV7mb1jy62O/Oh14NpmjfK+rnPPvX7t96KBOt36dThalw9yDXpcv373N6PeHP/e0olIRERERLNpDAF9DtvhZSyFL9GAogXtjoA9FcIcFHRLg225UQe2tAf27Kb638NyInp3LEQXBChPDfcVSwfYGFuQL+Eqv4p7oyNkGUsfDiDb/qaMzAe3z6eLWt/LWDquQkETF9rxbOcmVaIkipJZt4fXQEIyAzWxWEMaZqfOBfYGCKiSSKwpuDhvIro5johewtU+jDq9qEeQtgTmvsciyZZll2is7FmCZK1thS119DHY8WTlFs4WvuHwWulZJhZr6KQecXjefOXhyjhbU9CwbTqJ4u0e5q6PtPIe4X7tNGCHSv/661iWB77WJBkdn+vX6/4mZ7bM82HcUyfcsUhEREREEzHZlHt9dCofg4AI0gOMNEUXBODmBtiUAEjYwg1qbtv22KZ11DG94rGeY6RNXye9Agjx057ROus23QIF20inY9vWUbezuND3+NWyhjDnt9w6augYdRWLNdwVC5YRS+eoo2P01VbefiOd2vKhTRvQxGTXfTqnTLhNoRhcGZkPW8honUxy9QGKsIgoAEBCOg5U/tF7GyRsrQDCWiLYyGwqgfXnG5zkbtBY2bTUu4Srtoys13mTZHRkqW8765XDtqVz6uSmCcyHtLL2OZaciCUxZ2ynVgfm3rnXrW9Hl8OJuGzZrp2c2eobFKvXi1tGgJbtk/uCrr10CAlNfDWC3jIq3xXHsXhNT/GrvyQSa0DluH9WkV0SxVQEyvXfRhuzlbbf/Y2IiIiICJMO6LXRbOeobPCRphxq2ERW2gRucmg8aQ/oqQLubCNfl3iJm6NxWbllH5G0juzrZXIZHdRHkS/qgGKM9Fke9EV15K/SO+gIsVjD7tOROZr5fRWftaBTLNZwtvaAQ2Ok02UDHvX3v2sgkfdIA86JvtsT4jHg3Bx13DWC4CSKt6e2aQVmgJVE8XYHXaNuj3C/9tcY5rcLSKw9qnV0XAXin8b6ngUxtgqhfqOea2tGMNAIDwAAIABJREFUSaqAu/YOuudVS8Dff1svNzmoAXLEGIVVRZBOaccZvkRjZcdetyt72LrR6v68iWhq8CkW2c0IlO8V9XwOdCwStlYU3Fct16elAyw9X8X/JjxKnJX3MOcaJDfQVax1LSEdFyAsBDljjn3Y6i+BdUEBYjXPzjN3UYQEvS6tnWfW69jj/kZEREREpJmel+K5cs7R7Q1aT/55xG7qERfWwb73ixDq3ywP9daRRTUoMUckxyGJxJpgGdVXR+HVYEJd1ih5j0g658xaR2WN9NtzqBkOg8zfrV8aKe2NJ8UMblIJrAtNXLiNoKYSWBcErROhhU77FAlBQOi99Y+0aRYeI7Cvo6CS0+qo1MULBITG9ZI8ScZZXOmtD0lGJ7+Ir+EtZH4E3hjScaCr/f3JjTPt3nKcyKFWd9StUjXbek4ceCqFWKy5B959j0VPWXcEy3oHmNZJdTamdzio7X7LXhZteoB7h2AZmVwVc/t6u91E91pxZBT0n57iXn8RrONvo4OrMr834LsRtP0eV+HsenO9vxERERERaf6cdAH8lZH54PZwnkRoXlGDotIBNrSH+ul+GZyCyvGWy8hh/xE3ObPVP2jLiVjKqSPraQmQRxkAKFUcTvmc/KGRZG1+tCWlutTFSz6GdKqKw7BWD+8XISiP6JtwLm0iCgHRfAudvPlxFhgwZXtwRiaI9dwFOha1Xa1/P/LNnpEz35BubyIKTKBtqCnsECLotPfMj/db6KS09mq5VwBqpk7oJnhGgWv9AQDsqfzd51Osv0sC8Nt2A11lz9ERZh7L7N3fiIiIiGgSpnyE/pV+PEKxpiqnCtg1UoUb6CoC1mNmurttDv1IlNF9FmwvVbMvgzlKK8nB59D3iCL02lWtShXcK9YUfOuyLl6EmDFdwN2I5tD7MLILJNnlfOqZHoO9Md182ZlzfrSa8WGkXevzoY3/9pbdjFima5jTHbbcqipVwO5KE7UhdM5k5ZZHMNrvWCRctfsH8wAgFncQDdKpMQS9c+jtL+jTp740zt1H3PWRdvvIt/dPPHrWn3atWFP5e6YluFLn8Ef3x/sTnURERET0axnjz9btIQrBe773kAgLUXVU61wx08LzMbyc66PjauottPT3njdt6y8k248AQgxngdPY9aDxFAkBiO7b0+NPxCNUoG2v7Vymvj28024N9nZv209pqXWMc/PN8Hqq/llcAPTtBwqyy8h8UN870PtSvBy2j836e8tPiw3LyT9VKJb6u+h5Z4DaaYKB0vTVOdawvKzR+jK+E1F9S7o+7SBIwOsV7DWeFMtceMt0hvwq7gd+2ZqLVAG7KzDbc0/78z4WsbiDKGCbLmKcb8eLJ88WvgWeAmBrm3q5ZLNTy7gG9fofQiq/7cWTA5TVv/6cqfx7wLlbJk4vObOFw2vBbF/5WN8sj9fM+SciIiKiX9cf/1n677+TLgTRyLmlzk8dCVftHXRdp2YQERERERHZ/Zop90QGLUNk6oN5IiIiIiKiwUz5S/GI3iqH7TBfEU5ERERERL8eptwTERERERERzSCm3BMRERERERHNIAb0RERERERERDOIAT0RERERERHRDGJAT0RERERERDSDGNATERERERERzSAG9EREREREREQziAE9ERERERER0QxiQE9EREREREQ0gxjQExEREREREc0gBvREREREREREM2h6AnpJRqfd0v7JyE66PDNBwlW7hmJqgkVIFXBnPV+pAu7aLVxJgFis8VySO7YTIiIiIqI3G0NAL+HKCNS9AnYJV/sCKsfLWAovYyks4qTPVtUgQA0IVEkUb63/PWaSjI41uNYClrtiMvj6twWIIytgUB71KMnoyL2VK8ZWgesv5vkqdfFi/QPlEY2etbQ2YTtel3Zi3Z9Wn+oyZyeGc91BgkNzXde2Y+1o8i2vY5/Ger1l0duu/3pux2lZ19lWbPXjsty5355zaT0e637V9uC9ntd2Hes5yxSonRARERERkZ8xBPQ5bIeXsRS+RAOKFrQ7AvZUCHNQ0C0NuGlFwVxqGoJglVJXEIqpAbwYW8RLXZlwiUZNQjoO3FfLjs8VdH8A8k+340+ieLsH1JsuyxRLp84ylsScuY60intt2eE1kJDM856V94Bzc73DawG7QTpSUgXctXfQPb50DSbFYg2dfeBCL8+HA8gB9ikWa+ikHnF47nKMkoyzuGJu8xxI64FuqoA7a8fW8QPW82bAn5VbOFv4hsNrl3otHWBD32b4CBXEkLbE3lm5hbO1Bxz21K1eD9bj2UKmpK93isTzpXGcF9izdVL5bhdAw1JH1vpT+bUTIiIiIiLqZ7Ip9/qoYj4GARGktZG8wKPaz9/w9XkVCbeUc8eIpTMIuSpaljtGM31HUD2I7wTg6QbdhQREJJFYeETtybs85j61kdH9CCDEcOY6EuoY7XSOvsZk1+OEdfsuI6vuyug+uy9Rnhxhr7SJaP2bEfypctjWA8Kc2BPEicW/kHi+xPZNwOJoZcp8MINMufoARVhEVFvaeFIQ3dfPk4R0XMDLT2cng4vSATYswatdEok1oHLsni3it085s+USvKrEdwIUa0ZD7gYN/VjeL0Kw1mepgntFQEhr3ydib8DsLoqQoAbL0Mq3tdLEhVeZYqvA9RG2ezadRGheQeUfc8HJTRPCgl7z/tv1599OiIiIiIiov8kG9Pqo4nEVCprGqOVGJkAwpjm5UZD46AhWUwXc5c0R3aXwJV7ip7aU6mhcX+4YzZRknC18M0cVz4F04GC4gcrTIhJSAqGnCk5+KmbwYxtBXcbFs75PLYPhvAkoVZeRziSKt/ZRUnvwIyCx9qiud1wF4p+GMhd57l3SNj9efCc4/iKJYkqwBXt9pQr4HFdw4RmUCkjkvdPNdWJsFUL9xgiK5cyWep7aLXTaO+geL7sEpwNKJbAuKEDMPU39tfuUfyoQ1hJGh4xY3EEUWtD+4xHKyqZ5/qRPSAgCQu+DFdnsiNrD3PXfZseAtImo8oiQ7NbBlURiTcALEpYOJ72joozus4D1mPm3xVQEmA+p5ffdriq6by6b2HQYIiIiIqJf1PS8FM+Vcx6uy2h57gsq8zv24M850okcanUtSNUoRsCjjkjry7KbEWBlz9znviWAgXP0vjdIkTM3CO0votbTKWGfc51esZfHUyqBdaHpEwQrqOS0AL/UxQvMEV392LddUqH9NJ60FOj3wEtdwJbr3PJPSOABlcDTJPS0ea/3I+hTMyxp9XmX862nrFuOx5Yaf64gke99t8Lr5tdHsI6/zTT2+T1ju/779JETcfFsZmJ8xgMa+nST0gH+dy0YmSqdzUdUFOtIuz85s2WU9X7t1B5cCzGEbqwdXH/ZrpnoGvA/y/QBvRPrRFQ7w9S6+wv43gSeu2aHkud2y8h8sKTbnzcR3Z/wCxyJiIiIiH4xf066AP7KyHzoN1pfRqb0CXexKO6HtNfGufdoq5zZck0Nji4IeLkpAyhjO9y7PCvvIVq/NALrrNzC7pDKOyrZzUXU/nnA7kcJeIItjT27GUGjJAZPk9ZGm5FvoZPXP4zgrN1C2qW+5eoDPscXHduQtSDa2imgjjA3zrfUz3IiDt/VcLYpAcghWBvy0sRXo2OmjO7zKda1Thj/ffo7EZfN8qcKuFszXwhnb18SrtqLqA36bgntmuhsRgFo5VequDCK1kBX2bON/DdKZtaH/FPB2ZraiSUjh+2wvfNk3Tr1os92DbkbNPZ3Bj0QIiIiIiLyMeUj9AHlbvAS38G6/t8/HqGs7NjeOL+7ori8vK2XfW70sCQRmrfMQU8VsLvi+JMfj7Z54YZSBfdKJNhL3lwNOodeSwtf+IQt3OCkVMH9/CbSC5aU+1QBu/PWQC6AnGiO1jqmGLh1nmQ/xmxp9eaIuPsIvzXbIbrgnB7wClq9m9kJErYcbejt+5RwlY/hpeQ2f1x9eeCcdb59YGpqvNHecjdoCJZ3TWhZH7UcAJRR+a4gumm2j+xmBMr3Sm+ZtOwIo5PDd7t2YnEHUWWQjA4iIiIiIupnDCP0Eq7ae0agGs230Mk3PQOz18nh4noHZ3GoP4VVOsDGexkdy2hw43zZ4+VndnJmC1G5hXS7hbT2mXJ9NNC8fpv5EETk1BHT/VN02v9/e3ez0ki+xnH8N3BuoZqmUWYSRgYMLrRBaS8gZtF2mTtosBWCG9FNjbMeJxvFjQT0CHMHsVoXMReQRsHuhSg0gYSD0oh1EXMW9ZKqmMQk5qUz/f3AwHSXVf+XSkk/9Tz/f3Yl3ahw5tReQHh9Pn4fajfI5p8oM5fQacU/V24g3O9NxKYmpQN3oUHh8+/aW3BU+Ns9tPU+KX3e6HH70c+JQtUM/qZzktHwvjSen3beNtS1uVpWddVRYXNemfyJMtmULnbKqq66h2ufoSfatGx3qYZnpVLWSnDPwm26u/rXPpfefglGrb3Z0DDMXEl7C/6LA7dsf8+bp+ix+nOzenvwJvQ8uGOs7UHwl1Lnu6pWlmtz73/ew2NxilqPhz93ra4bHctAPrMAAADAD+anX2K//jPsTmCEpPd1sTOm456+kAEAAAAAdIqAHgAAAACAEfTvWEMPAAAAAMAPhoAeAAAAAIARREAPAAAAAMAIIqAHAAAAAGAEEdADAAAAADCCCOgBAAAAABhBBPQAAAAAAIwgAnoAAAAAAEYQAT0AAAAAACOIgB4AAAAAgBFEQA8AAAAAwAgioAcAAAAAYASNRkCf3tdFpaxqpaxqpaRcetgd6tyWXdZFbnHY3WiqZf8sW9XzfZmhn6169+PUGlz/mrX5vc/tMHQ3J4vKnZcj93qkpfd1UbG1Nex+DHhe+/U8DOO5BwAAQGsDCOgtnVZq/xDs/B+Di8pZST0cTCgWn1AsPq9Mvl99HaK6oLnuoE77+iLD0vzUjY4zJw2Pbr2Z1HV+Tbb3521zQrH4hgpOv/rz2DDa9AOxzoMXL4Br9hKq1Qsqy448K1U72ng4qKo/FrpIy/s5ON3O31Paex7M5LR09l9t97r5+nZypRb34jn69Ny3/F3T3HCeQQAAALQyoAy9o8KmF5Af3Cix2knWLKFxw9Ht1z527wdn5t4pcfWpceCT3tfS1I1K2UH3anSZud/1+vOG9wJqQrEDR6n3fsBn6XRnWpf+87D5Ra93/OfB0umqdOifF99Q4eW7IKAzcyWt6Ci47qGWG2ZiW97Plk6UmZtQbK728mZ0WVpZkC6Lw36pIf275hUAAADfk8GX3H+9kyND46GsUyTrGGSO/Mz+shIylNppkJWMZDqjmcAtu6xTK1wdEH2J0LhN75rn+9rKlYLj9UGTmSt1WfqfqvWnfpyrk5KR1F5d9tXtZ90cVEIBYMXWVjir+yhT6F2/aQZxUakZqfB344i98yxnXXa6PhNYd8/Ccxu5Jx1XcjSa20bXrXuZVJcR9/vj3uNdpQwpsdpsuUfjubX/58hY+N372UXl0pNyvl17132nxNXHoMrETE7L0KTmLUm61q0zqRX/etYHpQxHt3m3rZWF8H2yND8lGTOpukxr4/vZam7N0Gf98WeovsKmNn+PngPv3p5a7c1f02fwUX9r57V+HsLdfhOZ59Ztus9RzpuH2u8N77pt/E5oquWz2YNxNtXd75rTnPd82lbQN8rrAQAAvl8DD+jN5LQM54sKfkCTK2npWy2buf55Wn/kFiVl9TY+oVj8SNfhDL9ZC2hOd8Z0HGQzj6S6zH9i9Y1KfjbzalJLoWCtcZseI6kl/eVlUIvSwoeerMM1FqZ1u+llXpXUiqXaOA9uJKeo9Xh0nG6Za90cxM1QgD2plfSdd96Rrqfedfaiwfqg1P3jwMc7qJUFp4PS7UXlzncj2enD+6T2/EAmva+LnfDyiQnNhq7tjnUimPcX6fbLghvPrRukhLPa62eGVoIAZ1G5tBGa11p/7Mx8UF583elyj6zpZd7LqlZ2NZ6vXTfxygiC+y27rL1XH3V4Jb34eVF+JvdQy26glb7Tun+v0+N6IS+4T+/rovJOtwdFOcaYEuG2m9zPVnPrjrVWQVM3GO85rM2f/xzZmXmtn0kpa19maGnM2+zT89fyGUzva+ll6FkInff08xC6r3UvNVo/95NKvfqo9TNHidV3ut080nX4xaOR1Mqrj53/Tsia3rw1qFN/9jib6+Z3jSQlFsZ0vFmUM7WspW8boc8mAAAAvkcDCuhrWaa9mS9aD0pPF5WaMWQs7AZZqr0FQ8arxBPXk5uB06RWguyWm80KZ/6dUGZ52/SDqnbaDK0/zq9ptu4f0m6w0vlafufsL++cE93e9+ofyo4KWX8+sypdGRr/LXzc+0e82SgD72aPrz81yc53XLqd0LgRXbu9/elGejkuU97LnKsjvW1Svh/JFO8kZdQHqy00nttFjb90IoGdXfwSCoJPdHvvfja720Ssydxatqp+Wf1mUS9W66+fUO687AaXkXPd6gb/BcThfVJ7jSoKdsZ0HJ9X5tEylOb3s/u5jVZc1D8rdmbe66f7IqfZva2/ZstnMH+rByOpvW7Xj1sflFLtpWFbbSr0OWmQ2ZdudOjfq3xBl070d01XnjvOFrr9XVP7nfk97MEAAACApwx4Df2Rro1QxjZyLPRfw+Czgauj6HltB9nPaPPfJJ3SaxV12HDorUvxe9+Xff2xoNp92SxqEHtv+ZnrP/X7ExvNtW/rzWQtoMqvafbgJiiNv/7myFhYDmXtFzX+Unr434l7P4xa4LhtbqjgeOX4+Vs9BNUY3gum38ZkOHe69htudj+fMbdm7nelVMvmNsw0S3Icp70XcbUzWjyDflXAX5LVedl3/SaO7bU5DM8bJwAAADDgkvusDs8caeqNl3X0MqRWF1/n9PVOztRyF/8Afkabnu7X0Lfw9e5x+XTgWrdOfea9gYYb2DVfQ7/1PqmHhoGPnijFb8ZdA74UZKO99eOfC7LlZcebLQn4bUyGX1Lu9c3opOmGvHv9vjb2rfdJGQ2qDuzMvBvoetUEtfNbZTebz204uDV/ro3ELn6Ro9A9sj4oZYTvWTjzm9B4cGpWpSsFc1k/t/7YGt7PZ8xt4pUh3d9617S0shA909+ob3buLxVe1j+Pzeav3WfQXYKwfubUXaPF8+CVsT9+SfX85z7QsALgOboYpxSsz++4uqTl7xoAAACMkoGvobczf6kQCvq2TXeNZ7BBU7tZKi/zWdtwq/3vee66zX7Kr+n4KrSEIBIkniiTD481XIYd2jRrZ1qXm22us225e32rUny/BDu64Zk7fyfKzB3pIShr3lXq/qi2Tj6/ptkDJ7TJVygYyf5XBac2/qVvxVrmuWWbrW2bGyq8XA7aW3lZ1Hp4H4bwhm8707rMRgPi7b+LUjCe9l7i1Le5t+Do0F9mkl/T7IFq93lVOvQz7o/mZ1kvzmpl7Nvmhi5nanP7+vNGbW5b3c+Wc/vEWP5211O7bb7T7Vltjb2ZK7ljM7OSTpTJPl5e0Gz+Wj6DdRsV7s180Z+R8u/mz8PW+6QUesnx6L50/dxPRu9Z/Y71U8uRPvvX9Zc67C0YtZ8JNj3sfpzP0vJ3TTPdP4MAAADon59+if36z7A7gW5ZOq280+1m5+v5t2x3Dfdso3Wylu1uyMbXbI2MlvezA2aupL1XH0dzCUp6Xxc7YzruYPO4oV4XAAAAeKb/DLsDGI5tc6J5cJI1FRvBeO5H1vJ+ts3dOM753G7+/juTX9Nsz8rgAQAAgO8fAT3wQ3O/ajDlL42/OlKM3c0BAACAkUDJPQAAAAAAI2jgm+IBAAAAAIDnI6AHAAAAAGAEEdADAAAAADCCCOgBAAAAABhBBPQAAAAAAIwgAnoAAAAAAEYQAT0AAAAAACOIgB4AAAAAgBFEQA8AAAAAwAgioAcAAAAAYAQR0PeMpdNKSbn0sPsxaD/quAEAAABguAYT0Kf3dVEpq+r/d74vs89Nbtmh9iplVSu2tto92bIH0kfXonLndX21rZ5d3cyVenq9fx9eSAAAAAAYTf/pfxOWTnemdbk5oUy+/62FOWcbms2cDLbRLl0fTOhtVnID/F1VbSlmZofdLQAAAADAd6r/Gfr0uF488SORbHp9Zrwuu3+RW+xJtxq3aem0UlZ1dVIyktprmDGvy6jX9zdpP7OvJ8pki3Km3tQqCurm4DTcnfrqB7+v3t/vLRjS1HKTPnlj6bgawZunSlnVyrISkWNPzE+z+5ne10W4iiL0ZzNX0kVu323zfF9budKjsTT7DEXOravUcM9ZVkKGUjtdVHIAAAAAwBD1P6DPr+nPM3kB0+NgycyVtPRtQ7H4hGLxCa1/ntYf4SBvJ6mHg4ngeCcZd2Nht2mQ17jNrN7GJxQ7uJGcota947VMuZs9T90fBefG5tZk11pUaubOPW+zKC186C44zN/qQYbG05Jb4TCmY7+9+JG0GgpK30fnJ+hrfk2z8QmtnznS1VFX89eYpdPKsnRQ6891cMydn9efa3N7eJ/UXvglQ5f301iY1u3mka6NpFZefdT6mSPjlfsqoeVnSJKxkAz6e3g1qSXv2Lbp999RYdPvk6ntZ84QAAAAAAzCQNbQ25l5N1g6kFYiwfWiUjNGJPDeWzBqgVpyWsbVkVeK/pjpZWobZq7lltw/Drxbt9lSOqXXxo0Om5bCOypkvXYiQbkUzWp3kBW33iihSXfeKrWMsn/d62+OEqvdrrs/UWau/qVEG/1xijpsOAUJjRs3Og4F6dufbqSX4zL19P1s6eqjt2TDUeHv8AXauJ+hNq+/Oe3dawAAAAD4zg1gDX1I1lQs62ZxVyzJzkqSo8LmfFfr6+3MfPuBaET3bXYvq7fxNiPZ9LheyFEpL8mSm2Fv8hIhmAPLLfWXU9R6JwH6v8Iw7icAAAAADNcQvrYuoXHD//8T3d4bSlmNs9V28YucqXc93oG8dZuSpK93cowxPcrj5gu6dGol2/1h6XQnKZ391y39/nonZ2r5UfXBI1nTLR+v67f9PyfIkD/WxRr6r3dyjGml0v754TX017qNzM+iculJOZ8LstXO/fQrDxaVs5Iymv1YRBv3s6Vr3TqGxn/r6mQAAAAAGJr+B/SWHSmLr3rrr/0S6G1zQwWFNqALl87n1zR74IQ2LOvNpngt2/TaPb4KlbkH5ewnyswd6aHJ2vznSKxG5ydYW55f0+zBTeh4dMlC9CvvlqWDujXg2f9Gxvrs+YvsibCr8fyGCo5/sH5+3P0GomNpcj/zazq+MkLXDa/Nb+3J+9nSiTL58PyyKR4AAACA0fDTL7Ff/xl2JwAAAAAAQGeGUHIPAAAAAACei4AeAAAAAIARREAPAAAAAMAIIqAHAAAAAGAEEdADAAAAADCCCOgBAAAAABhBBPQAAAAAAIwgAnoAAAAAAEYQAT0AAAAAACOIgB4AAAAAgBFEQA8AAAAAwAgioAcAAAAAYAQR0AMAAAAAMIII6HvG0mmlpFz6R+/DM1m2qpWyTq1hdwQAAAAAvm+DCejT+7qolFX1/zvfl9nnJrfsUHuVsqoVW1vtnmzZA+mja1G587Kqdi2CdfveQX/R2kDvJwAAAAAMxn/634Sl051pXW5OKJPvf2thztmGZjMng220Kze61httSdqWpXnd6HrYXRqWrKlYdtidAAAAAIDvX/8z9OlxvXjiRyLZ9PpMal12/yK32JNuNW7T0mmlrOrqpGQktecft8P1315GvVl/k3aHfU1o3JBKn6R5S5L1Rvr0Kfojlh2pNoiWo3t9rpRVrSwr0dY468bSUfba0mnFVi5XajzOptUYbj8jfU/v6yKoRAjPa4NlA/XXDd+XJ9pseT/rzqXUHwAAAMCo6H9An1/Tn2dSaqdxGbmZK2np24Zi8QnF4hNa/zytP/wAMb2vi52kHg4mguOdZNyNhd2GwWzzNrN6G59Q7OBGcopa947HTD9lvKjc+a5S90fBubG5Ndm1FpWauXPP2yxKCx/aL5vPfpLeWNp6I5Wy17p1DI2n5Qbzq9Kh395mUS9W/YDX0mllWQrm5yiS2W85t88yqdTMl8bjzK9pNl67X4f3Sa1YkpTV4ZmjxJtaxGwmp2VcfdK2JOlEmbnHY3BZOg1/Dvz749+XFm22vp+WTnfGdByvzZ9WWeoAAAAAYDQMoOResjPzbtDrZZpXnKLW59Zka1GpGUOGsatqZbd2wlVC0okX8B1ptkkJtpkraW/BCP58fTCht6GfbVxy37rNltIpvTZudDjXrCbcUSHrBfj5Wz3sTLtBeV7yg+8ggx7MgS+rw28l/aG/NCsp54/xZ0PO2V9e0CspX9ClldT4b5KsN0o4Ra037E474zxRZq6bJQkdjFOS821R0onszEetVPylBYtKzUiFbJf19caYEpI3f83bbMl6o4QmlaiUtRIa220wFgAAAAD4fg0koA9kTcWybpZ7xZLsrCQ5KmzOd7W+PnhR0LHu2+xeVm/jDYLX9LheOHe6Vng8vVlWMIxxbtnLSlwdBVnwLbuspeBoVqWrsru04GtKr/VFf7bVt6xKV8taWS2ruir54/JfcrRu8wmh8wAAAABglAzha+vcNeOuE93eG0pZjddw28Uvcqbe9fhr2Fq3KUn6eifHywBH5Au6dCa11KN1/O2w/+fICJe0Wx+UMm5Uyvr9nFYqLbnLAcJZ6jbG2dUa+lYWNf5Scr55RfPpfS1NRX9i+++iXryxZCan9ZBfa++FTHpfSy9DJfPx8EuKp9tsej+/3smZWmbdPAAAAICR1P+Avm5Dt6q35tsvjd82N1RQaMOy8MZk+TXNHjje+vvebYrXsk2v3eOrSa082kTtRJm5Iz00WZvfW4ZbVp81tX5m1PqyaqiwabrZ6cj+BLsaz2+o4HQwzp47USZ/U9u7YGdMl2dO9EfyBV2+XNbezBcdRhLj/uZ+y0rI8Mbk7RWQX9PxfXQctY3z2mmzyf3Mr2n24EaJ1cF+pSIAAAAA9MJPv8Q96os1AAAJfUlEQVR+/WfYnQBaSu/rYmdMx3EzVGZf1ooolwcAAADw4xpCyT3Qod/GZET+oq7MHgAAAAB+QGToMRK27LJWwmvj2cwOAAAAwA+OgB4AAAAAgBFEyT0AAAAAACOIgB4AAAAAgBFEQA8AAAAAwAgioAcAAAAAYAQR0AMAAAAAMIII6AEAAAAAGEEE9AAAAAAAjCACegAAAAAARhABPQAAAAAAI4iAHgAAAACAEURA3zOWTisl5dL9urytaqWsU6tP1/+RdT23i8qdl1U935fZj34BAAAAQAuDCejT+7qolFX1/xtAALRlh9qrlFWt2Npq92TLHniQVt/f9oNLN6gk0AcAAACAH8t/+t+EpdOdaV1uTiiT739rYc7ZhmYzJ4NttAtmrqQVHSkWzzb/oaypWIvDeIau5/ZEmbnv//MFAAAA4N+p/xn69LhePPEjkex0fWa8Lrt/kVvsSbcat2nptFJWdXVSMpLa84/b4fS3V2bdrL9Ju+O+Jl4ZLY6G24uW9Ju5kqqVXaUMKbHa+Gdazm23JeP1FRfh+WlajWHptGIrlyt5FQjeXIcrJ+rO7bRKoeE40/u6ON/Xltdu9L40n9uGYwmP1bIbj1/ufbnI7Xvj67A6BAAAAADa1P+APr+mP8+k1E7jwMbMlbT0bUOx+IRi8Qmtf57WH37Ald7XxU5SDwcTwfFOMu7Gwm7DIK95m1m9jU8odnAjOUWte8djpp++XVTufFep+6Pg3Njcmuxai0rN3LnnbRalhQ9tBXLb5pGup5abvAQ4UWZuQrH4ka7rjtiZecXiGyo40nUwR/NBJUTLuX2GrffRe1KbH0n5Nc3Ga8cO75NaCeLdSaVefdT6maPE6jvdbh7pWobG05JbyTGm4+DcI2m1nUDYvSevP29E2twLB9lGUkv6yz0euS/N59btT2ic/mfCH2vWdOf0zGnYK2MhKXnnHl5NaqlHL6IAAAAAwDeQNfRu4Dmh2IG0EgmuF5WaMSKB996CIeNVQpJkJqdlXB3pbZNyaDOUdW2U0XXONhoE3q3bbCmd0mvjRodms/psR4Ws107+Vg9BsCoF2f+G2XLvRUJ8Q5czuz3a/K6dcXoBbeSlxNOuvzluRYDdqJPRca5MSS9+9oNZR4W/vbm7+hhdgmG9UUKT7uejUla1sqxEeP7CGfHIi4+Exo0bHYde9Gx/upFejofmN3Q8v6bZuKntDsYbMMbUxqfEG1/tc3v9zWnv8wUAAAAAHRjAGvqQrKlY1s2orliSnZUkR4XN+a7W19uZ+Y4C0Zru2+xeVm9brZGXFKzJtmxV0/sys50F2o/1Z5zBvHtBtpyi1r2XAlv2shJXR0HWfssua6ndC4fOe2TgewhkVbpa1spqWdVVyZ/Lrl4EAAAAAEAfDOFr6xIaD5aMn+j23lDKaryG2y5+kTP1rsdfBde6TUnS1zs5jbKx+YIunf6XT5s/t1pTX+9Et/fhLHj4758Y53O/di1ruuXqwVwtavyl5HzzCtjT+1qaavNaX+/kTC13UZlwrdvIPVlULj0p53PheS9D0vtaehladhEf9AsgAAAAAGit/wF9Xal0tbIsHUwE5cjb5oYKCm1AFy43z69p9sDx1t/3blO8lm167R5fhcq/g9LyE2XmjvTQZG1+d+o2dKuUtTfzJch410rY3RJ0dy6iG7ht/12Ugj7Vjj05zp70d1k68EvYT5TJ39TK/HfGdNlkjfkj+TXNHtyENvdrd27r74m7x0F7ey20mNv8mo7vo3MXnlt/ucfegiF5+x80XoIAAAAAAP3x0y+xX/8ZdieA7056Xxc7YzoOrbffssvu1ws23UMBAAAAAAZnCCX3wAj4bUzRhQ91ywkAAAAAYMjI0ANNbNnuLv2BVpv2AQAAAMCAEdADAAAAADCCKLkHAAAAAGAEEdADAAAAADCCCOgBAAAAABhBBPQAAAAAAIwgAnoAAAAAAEYQAT0AAAAAACOIgB4AAAAAgBFEQA8AAAAAwAgioAcAAAAAYAQR0AMAAAAAMIII6HvG0mmlpFx62P0YBEunlbKqlbJOrWH3BQAAAAB+TIMJ6NP7uvACwGqlrOr5vsw+N7llh9qrlFWt2Npq92TLHkgfXYvKndcFxul9XXTS34HL6m18QrH4kbRa1kVuMXLUzJUGdp8BAAAA4Ef1n/43Yel0Z1qXmxPK5PvfWphztqHZzMlgG/2hZPX24I2q6ZRMnciW+yJlRUdaP3unvZlh9w8AAAAA/r36n6FPj+vFEz8SyabXZ3Xrsvv12eBuNW7TKyVfnZSMpPb843Y4fe5m1Jv2N2n3vK+y7Ei1QfS6tfL3R8csW1Xbiow1WiLvjeUZmXTzZyPy521zQjEz2+XVAAAAAADt6n9An1/Tn2dSaqdx2buZK2np24Zi8QnF4hNa/zytP/ygNL2vi52kHg4mguOdZNyNhd2GgXfzNr1S8oMbySlq3TteC1AXlTvfVer+KDg3Nrcmu9aiUjN37nmbRWnhQw/K5heVSxsqbDaag0Xlzt/pNji2ocuZ36Pr+KeWNf/JO35wo0S6R2Xw3kuGvQWpkA3PAQAAAABgEAZQci/ZmXk34POCwBWnqPW5NdlaVGrGkGHsqlrZrZ1wlZB0IjM5LePqSLNNEr5mrqS9hVqG+PpgQm9DP9u45L51my2lU3pt3OhwrlkG2qkFt/lbPexMazwtKS+5mfRlJYIf9efgKSe6vd/Vyk5ZF8m68aRTem0YMnbKqu7U/vr6t3CXijr0u5s1FYt0/USZuWcsSbg6IhsPAAAAAEMykIA+kDUVy7pZ7hVLsrOS5KiwOd/V+vrgRUHHum+ze1m9jXcQ/Dp3uvb+d9uc0Lb8zeZ2o4F02y8GeixrKjboNgEAAAAAgSF8bV1C40FS/US394ZSVuMycLv4Rc7Uux5/FVzrNiVJX+/kGGO1bLovX9ClM6mlXq2ND/ojJd7UFrdvvU/KuL99FKTbmXnFNotyXo67fc/f6sFI1pYodKz7NfRmrsQu9gAAAAAwRP0P6Os2dKtWlqVQafy2uaGCQhvQhTduy69p9sDx1t/3bqO5lm167R5fTWrl0aZ4J8rMHemhydr8Z/Xn5XJwzZWXRa0HpezRTe+qO9O6DNasZ/V2syiF+zPkr7vzv7Jub8GobSxo82X1AAAAANBrP/0S+/WfYXcCAAAAAAB0Zggl9wAAAAAA4LkI6AEAAAAAGEEE9AAAAAAAjCACegAAAAAARhABPQAAAAAAI+j/3+kX2s82fl8AAAAASUVORK5CYII=;" vertex="1" parent="1">
                    <mxGeometry x="220" y="-270" width="752" height="240.76" as="geometry"/>
                </mxCell>
                <mxCell id="28" value="" style="shape=image;verticalLabelPosition=bottom;labelBackgroundColor=default;verticalAlign=top;aspect=fixed;imageAspect=0;image=data:image/png,iVBORw0KGgoAAAANSUhEUgAAAVcAAACXCAYAAAChrhgYAAAZdklEQVR4nO3db2gc6X0H8O+lpiWlqZu44zOuVUvyKU611YFlKndFQ44GpH1x0mrBKTQQerCSQDEXhPSiY51f3um2BRnRVFnQSnDlSl7EB/JIerFaSEi4oK0VLJEsu+SiWPJFjiJrckmVP73m6LV9Mf+emZ2Z/Tu7ku77gYPT7s7MM7O7v3meZ9bzfaa17bn/AxER1dXHmt0AIqLT6MxfhP6y2W0gIjp1nrnyzz/itAARUZ2dee/RfzS7DUREp86Z//2fD5rdBiKiU4cXtIiIAsDiSkQUABZXIqIAsLgSEQWAxZWIKAANLa5f+PIXcbQQx4++fKWi1x/d6fF51RW8OeNY582hirZDRFRvZ+q/yit4c+YFDJ7V/3z8GMufbLX+BvBs9ws4WnhB++PoMYYnv4l7Lmu6t/UUr3W34tnWi3gVwB2PLS6/lUNr/AUcLXThq8P3PV9HRNQorsX1j/7g9/Dcn37cc6GDX3+Ag1+V+H3s4xy+ii68LPx99tUN20tevRPHy580/urB2wtdeN51Zefw8kLcWheAp5vfxqe/9gjAI9zLPsK97Ia2voUhIO3fNCKioLkW13/82z/H37T9iedCB7/6AH//7/lgWuTTky2mFWSkF/HZt4A7ry7iDrTpBCKiZnKdc3308//2Xej7P/tNVRt79U5cm0MtOY9q6MHbjtdq6/gi3gwDCL+Hf0m/h+cjcRzNfB5fcCz99PBRVe0kIqqVa3F943s/w6Ofv++6wG8/+BD/+t0n1W/xcQ5ffez3gk/gKzNGQd3Adx4D0OdcgR58rhXA0VMsZwFkH+HeW/dxdvjbWEYrFlwKLBFRM3he0Ep86ydI/d3V4se/+S5+87sPA2zSH+LZswDOPoc3wxtY/sX7QOs5fO4mgJ9+As8CwC9/jXvOC2cAgFYsLMTNv56PxHEUsZ615mmJiILlWVx//PP/wr997wD/8FcXzMe+u/uf+O7uUbAt+uWP8ensRRxFzmHw8z340je1Xww8/5kefOH8s3gWwA9+qF0Y+9KkS6G8OYSjyLkK526JiOrL93eu4vTAbz/4EP/0rZ+Uv+bWLrzcWsHjYa1X+vQX7wFv5bB8BG06IPsYD/T//8qnPg7gfTz+qddGr+DN8Dntf8+2YmFhSJ9OICJqrJL/iGBc2cb4/W0Mf+OHlU0HeM2tPs7h7PBi0c+y8Gd6cT3Ufl61/Oh9AOfwuZuP8KXJRZwd3gfE+dYiPXh7QZsm+EF6EcOb2vIvL8Tx9s3ym01EVA8l/xHBb373Ib6/X8mvAx4Jw/UN3MEVvDmjdVWNn0ppruDyJ63/13qcVq/03te+bh/S37yI5wE8ffTYMdQX5l5tUwFft+ZlI3Ecfab4d7ZEREEJ4F9olWL/xwI/SGvF8N5brfjR53+N5WtfxFHc+x8wGP+66+nmt/GNT72gTTEcPcbwsNv8ql7obw7hKNKFt29u4LNvBbJTREQ2z/xxfIEZWkREdca7YhERBYDFlYgoACyuREQBYHElIgoAiysRUQDOfOzM7ze7DUREp86Zc1f+utltICI6dZ5pbXuOv3MlIqozzrkSEQWAxZWIKAAsrkREAWBxJSIKAIsrEVEAWFyJiALA4kpEFIDTX1xjc9jYUTDV7HYQ0UdKsMVVVrD7YA5R4aEpZRsbyQG96G1j1/nfgzlEIWPV7TmjSLosuyq7NyHadw1YW8C0+FhyXdhWRTtktstre57HQWyvYl/YbI9Pm6aUbezurCMZq6jBRNQkzeu5Lt1CT3sH2to7kMoB6toE2to70HbjFhQk8KL+3PiaCuQWtefao0KRLCClv6ZtvoDQqFvhkTHSDzzMrJiPTCnbmL24rK23ErE5bOwMYm9yEflK9zUR1dvfgbb2ReS7Bq22ygpmu7cwbuzv5jXMuhTfERQq3y4RNc3pmBZIZJGHhJarjsflMEK5ZYwtWQ9NRzvQFk1Uvo2lW+hp77WtqyqxFpyHir0lABhAMtaJ/NItKND+jnRLQFfYmsaIzeGVfhWpqGvkLREdU8EXV6kPs8KQeKQrgG3IYYRQwLqtZg4gGZOQfqOKQhoAbVi/jd2ZPhzOGz3wEFokFXvvANqUw120LC1qJ4oYAAwgKYuvJ6KTIvjiqmbMIa8xBVAfnRgxivYokGp3FCB5GBFsIV1rT7NOpqPWtABGHXO2V40phw68KJwLosnbuL45YXuMiE6GEzwtIMy5OgsrgKmwONw+ThJIrak4f3kAQB57qoTI6CXcN6YczGkDGSP9EqT+u3qvP44QJERmii+IEdHxc4KLq4/YHIYuZJCqqsc3gOQD4ZcJdacVzcN3VwCsIL2pArmseXKYeqkPUi6LaeGinnkhDCrSk1XOGRNRQ53K4jr1Uh+wmXbttRo/e5rtl6z54LJ6gsbPsOIIAQiNlv/TKHO+dWcbu47hvzLWixTi1pw0Flk8iU6B03ez7NgcNmYu4b7LVAERUaOcvuJKRHQMnMppASKiZmNxJSIKAIsrEVEAWFyJiALA4kpEFAAWVyKiALC4EhEFgMWViCgALK5ERAFgcSUiCgCLKxFRAFhciYgCwOJaLUeyrXYrQwVTxv1geUNrcjGl2BOON5IDzW4SBSTw4mq/l6l/PHZ1cdd1EpvDhssNsqcU9xhtZ9KB8q49TVbdd8lqNfZZLLzO2G1nbLfteUf7SkR2+zKXdb8puC3u26+9XjHhRe+jcRPyMuLFi9pkLVtUjEoeA/t2ne9lefvpniy86vZ8ifczv2//nGg3TafTqCE9VzM2W4xk8Y3WPuZicxjqcgYiAlCfII8V7B24LSRjdeYaDnMukd6OnDErM0vG6ijMOJtUrhMjZgGwP9fWPoH0hcGybt4dTa5jN/YE4/MF1+enlG1b3Ld1827/bfrFlk8pdxE5WLSy1BC3CqWsYLZfFaLSgRGzOBvBjRNIu6Wh+8WW68te35xwObY++xmbw8aopKU+tHegbXIL12cUWyLvxk4cmDe260gF9nw/dQd7UJDHXoXp7nSyHONpAbFnUEavzdmr0Z9363W6WtrDoesTRjqrJdp3DVhbsN+MOxE1TwzT0Q70jNl7JFNKHOfXXkdqv8z2aCvFi8JNv6ezBeBCi1508thThWIrDyMiGZHd/pSxXp+TmIzergJSrs/7b9M7tnwALRdUWxLvdLYA6WIIABC9LEEVj2cii7x0CSHzGLgUKDe22HLo0eqLRe9Fyf28egmSGMm+lMZD1UjkNd7/6oIjlbFe/RitYOxGmftFJ1JDiqsVsldJNpU9Q2p8TcKQUTwdPYvxNRXw/BJV1FK0xPSenSJDKwrO18gY6Vdxv5JtyQpGLmTwmtcyYvy4z7TIVLgTqhlfo305zYiY2BOM1yN9QQ4jpD5Bi+J20qp2myvYO5Bwvc9YzwCSsU7zRKG8q0Lqjgjz14MIwSpmpbjHluvHa7/FY/jus5/vPIHaFbY+p/IwIpKElqta2yPdEg4REaa1HJ/pMt9POt2aNy1Qkn2ubLZfMns6rswenU4fLpbfM7CGaSGoyF8Ie8xFDiIkBAqWpg+lvXqKtmHtBNLow6zL3Gk0ue4o0NrxGYE21E4d9GHW9iV39Pwr+ZJLfWjJWkPtw/7belEqtU1v09FFHJon2dvAZkEfHmvHQFuX1tZXsIU8yuuFa+v2ji2X+i9h3ZxuUBGRhePgtZ9Lt/DammRFt4efIK3aRzChbuA14cRv9ubLfD/p9Du20wLR5G1EYM1d2ebx9GFaZMYovKp38aqYjN6LWaQ2JfTKAGxf8gFEumEb3pbej0GE0Gl+UWf7JaAr7nGRRE+DLVrHujY3KO5jLILrUgEpfRg+HZ1AWu3U2ww4e/4VzWWrYnKuFv/dcrWcbfoR29OLNCTbRT+rQHagJwOcV5/A5ZJgyW1YseX6rojTDe88gWpON/jsJ/ThuzkXu4cWx5RL0cVM58kdgNf7SR8Nx7a4hi5KVs9Gj6M2ycO2iyOuveFK51z1oWvLS2Egm4CS2cL58DBahM1q2122X7wowfYlFaYwii6CCPuZz1rF27zo4locxaFzyN7WaiWyyEvXEDHWqxdU6+JdHbapX8Byn1qRsTrTh8Olak6WYmy5Pq8rTjf0XdNjy1HGfhoGkHwQx3mzSGsFMxS2Plj26Zri9ojvJ310nGnERrQ517v6XwWkypgamH4jg6GZOHZ34gBUpNcKCF3Un0wsIP3grv6cobz1lhLqAlJRAEjjoXwXETWDFABjnjC/VOcZNFnB7min+Wd+XpjKiM1hqAsAtCHzrO01t9BzVcHuzDZ2Z7TH1bUJ9JTzPXZsc2RnGyNqRi/gCbw4HxbWqyI92Wv9wsNnm9HkutYzh9DmnB4VLm5TzWC8XSyeMlb1yHJtex3CiWcAyQd3ETFWq3+WjOM0pWxjpMt4rWPZRBSp8LZ17NQMxm8YB8hnPx3bzM932I6rMvY6IuLnL7eINuNE4fd+0kfKyUx/lRXtYorZm9O+DNc3J+pwUavcbRIReWtIz7XeopclAE+ER7ThaaA/yE5E0cYeCBGV6WT2XJ1DRejD06B6rUREFTqhxZWI6Hg7tr8WICI6yVhciYgCwOJKRBQAFlciogCwuBIRBYDFlYgoACyuREQBYHElIgoAiysRUQBYXImIAsDiSkQUgGCLa1GIoNvd90ss3+AMImcUePk32w6IT7R2bW01YnTKzTSrna29zugTW9S643Pi91wt8eLVbrMsesyO8/Nb9XrtsUfOiHHfY1uyqW7HUN+esC5tG9rnxfnZOzbfl2Mk+J6rGDM8ryIyU80HtTGiyXUzH8ozFrmh/KK17dEobfMFhGIVnIhiEVw/WEQqV25MS41kRTi2i8h3xYUvohY7/tA1ynoASdl6bnwN9hws32ht3wZVv82StPQC5JzR5X7b9BdN3rYiwiczgJlrhhLHttR617Fri0sXE3wLyMPIkpPRi4IZvWN+9iYzUFEwl+eNwS2NnRZIRJHKCSmgtrO4eJbXz/qjnfYkTfGM7Fi26MNUccyLHi3jJTaHjR1ndr1ifvBWdxQkk+uePYvq+EVr20Uvi7E4pUX7ruEwm8B0tmCLLEFsDhsP5jDlsS9TyjZWZTH8sMyebyIqfGkTWM/BzLrSQh+t+Jxo3zVIMIr+CsZuWJE4SmbLnoMlckZr++1/zdvUj4FrmORtRA4W8WK2km0aq3X/3CpjvdYtNY2obz3vy+/Y+tNjaObdEjy0eySvZ6G1Tw4D2WzxKshTw+dc8/uqleK6dAs9whkzddCHERkww+zmC/aer/kBkrE6cwn3hR4LRmsf3k5HtbN+dcWxE5HuLa2tkxmgf7juw+3irCaryM32q2ZwYGkDiHSrWl5UIot8V7goGnrk4rLQS7LvS2g0bCaqpnKdVuR52WT0dql4mNGKReiiFVY4pWxj9uIyUh4FwpaDpfOK1vZT6zY9xebwisd7Uck2/bfhlfcFOI+t/3pacB7GeoQTpjiVkcgCYRlTYWA9oYc4HtOR53HT5Ata9vjnka4yP2hy2JaoursTL865rzhaG7ASSifwsPtuhT1fFemEHgGztIdDZ3tqVBytLba3A23zwEi5vUh5GBEY6aoJrBdNDVgJr2YvSdgXMVF1OtpR4U3KjcC/1x0BjSEkH2xjaH9COIk62624nkT8orX9Vb9N89jbHjemE/wKfIltlvzc6gGOricRr2NbDqFD43g8tT+Iof2FmvPpPmoaXlztZ+84QjlrjjOVq2BFOfvcqHuaarVWMHajinnMgLhGazslFpAus1cxFbZPt4x0wT41EBj3rLP8vgqpP46WJaNQD6DlgiO2R1b0uUG/wlUcre2lftsUyMOISFbkuzittSqXuU3/DWB1Jw64hh5WkSPn1wmItZjx5rYpCSpbQ4trNLmOka6CHqmsfbDM7Hoz6VTgzJkXHy81aV/FnGtRey8752CND+IAknIfKkuV9rh6XIJ/tLa4+mFEpHLmG7VhY3qyw3EhKOze65WHEcEW0jWfuGSs7rh/+ZXMFlQIw1x5GBFh2GtddClV5OzR2n5q36bLnKvt4pp9WuvFROltao95fG5jc9jwLKzex9ZfAus5qcKLdVSu4AMKpT57tLEZqbyCsaVh7I4asdsFpNdUXBeXXbqF+y9ta9HPgNZbjSasiOfRbeyO6q81o6GrVZzLZVun0RY9ijk/v4j8aLiC9eexpwIh/WRRVjt9o7XFOGq4xFV7kMMIqVtI2YplHntqHEPJAUxnAOhTLiMAtMjy2hNvo8lBra1uMevG+2nbplHUtIIJSEKbrMw032htPzVss2q+2/Q39ZJ2MpdcPvPwO7Yl1jsd7QCUbdvnC7ksFLTgFdclhAtp5IsZWg1U1vC+2WJz2Ji5hPvlDoWJyBX/hVYj6D8bO/aFlYjqJvhpAdKGg3W72EZEJwGnBYiIAsBpASKiALC4EhEFgMWViCgALK5ERAFgcSUiCgCLKxFRAFhciYgCwOJKRBQAFlciogCwuBIRBYDFVSTmcnndd7UO94ltHD3Bs8EJukQUeHGVsSrGB+vFq/mFyePG1UamV1HUxXGlFc/mH88yVRuVXiKOuqZYaaKANLDnqt29/9D1TuoNJodxfm0RaVxDpNKcq6qyuZpFj6s50bc59I+5dsahpxCvU/IuUW0aVlynFC2GwlmUbL0OR68mKsQ77zpjrX3in0u2JSzhYSaB9CasmO+S9CG2S+8pmlwvavuUUhxJ7bWf1QzftWOjJSeERl3apU9fFPfm7DHgVky2MzbcI7bc8ZxzH93/LiMq3ZNfzLWMkX4g/YaVCtzbBUjdEU6DUNM1prj2KRjBYlFERjS5rqVg6r2O8c1reMX4csoKZo14ZyPdVPwyloh/9iaj94KWCaVktoCyv4h6L7B9UU9NtShjy8hLYi/YHm/su59VUsZ60dY+gbSqxb4UhTTqPezxNdVl6U5ELi5jfE1FaHQQe5OLyJv5YD6x5bE5bMxYvci29kUc9t8tY1qiRFS6eCLwGf4DjpjrWAvOQ88Ni81hY2cQe/MZ99w1ogZrQHGVEOnvdHl8AJFuCVL/XfMLNdsvQbqofS2mwp1AV9z6so12AhdahELoE//s+LKKvalochChgz09FyuNh9VMDRRJILUm9ILlMEK5Zb3Q+e+nptHDd9Xq7ZnthNV2r9jyq5cg2V6fwHquzDh0P85gP680X6+Ya1nB7swl3G/vxdg7tTWFqF4akESgIj35OiDfxUYy7+i9qkhPekdi56udn01E0ea6nFboIMWxuxO3WtE3ACzVFh2sZLbwihxBFCsIhTuRz4r9Yf/9PHaMIEinoK4VyYp28rRxHDO3mOulPRzO9GEkJoQzXr0ESY+EJmqmBs25rmDshnMIuYK9A+9Y3/y+itCoUt5Qv9z451gE16UCUmIPaTJTwdSAj6VbuH9wDZGYjN4LGaTM2uS/n5pqfzK1gr2DOvQcRX6x5e88gdo1aPv1x5Aw/QHA6pHLipDKKizvNmQv0XP1jrnWes7qZlrv8Q8gGesU/iZqngb+WiCBFyczOD9qDdOnoxNIQ7jAIVw8UcZ6kcqJw1PnRSvhuVEgVcaQ2jZfZ1jaw6HUhxEZ1nSCeOHFLHjGhR9tmByZKZ4XnM6qiMzEgSV7W/z2s1bTb2T0SGV7e4yLgbP9kjW9Us4FpKVb6JkvCBfJhGOwdAs986q+79vYnenD4bxVBKffyEA1thV7gpRzvnfpFu6L72lZF7SMmGv3z8J0dAIPu4391y6a1hR/TVQnJzNDi/HPRHTM8V9oEREFgMWViCgAJ3NagIjomGPPlYgoACyuREQBYHElIgoAiysRUQBYXImIAsDiSkQUABZXIqIAsLgSEQWAxZWIKAAsrkREAWBxrdSxidY+Ycmvpy62nMhfQ4qrLZzvuH95qo1/Jn8nLracqDYBx7wMIPngLiIQYjhOOs8IGaoZjy2dIsH2XI1YFc+UADGu2j5cjCbXsZGc0+/+7x6tnVS8esOysJxL7LYjwFBbtlT8s3e0ttkmn8jp1aTfsLjamBeLkTxQbpx3ILHljmNQ/v4EGVtO1BzBFlffsDitV3t904qcTh30YVaI/pD6+wA9NjqV68SQ+CWX+hDBoh67XUAoZnypBpB8MIg9M/55Ag+7b1tfWFnB7qiE9KSV16SFIJaIf/aJ1i4ncjrUbzyvRb6M1HFqJJpcx2z3FsbbO8yIk6bElhtDf+H9LG8/j1dsOVE9BFpco5cln2dDaJEKuC/kHU1nC/b47Nyimf6a31cdcdRCtLYYfBeL4LokWTlPO3cRkSS0XNVeOhXuhLr2en2TWMuInLa26RYqWH20dmh0WyuUtmWbE1vuHDGMdNUjPLHW2HKi5gh0zlV5V8Vsv1b0GjrfqmYwXkWhOony8xPYix2H2HJgSokjJMRyTynbGKpiE06nKracPjKCnRZILCCtdtqHnKY89lRxqF+nWGQ9zdVraDidLUDyG+Z6xT/7KSNy2l8tc67HJLYcA2i5AKj7+sA+NochZ7R2tWqKLSdqjoB/irWCsRsTSF+Io/gCklUUzOH7wWIdYpG1CG8IQ0XbBZtEFONrki2m2XYxzDP+2Sdau0TkdPCs2HKjvY2OLQdWMLZUsIboM5fwUIzWPoGx5US1YIYW2TG2nKgu+C+0iIgCwOJKRBQATgsQEQWAPVciogCwuBIRBYDFlYgoACyuREQBYHElIgoAiysRUQBYXImIAvD/+7ACgW/Uj8MAAAAASUVORK5CYII=;" vertex="1" parent="1">
                    <mxGeometry x="390" y="20" width="343" height="151" as="geometry"/>
                </mxCell>
                <mxCell id="29" value="" style="shape=image;verticalLabelPosition=bottom;labelBackgroundColor=default;verticalAlign=top;aspect=fixed;imageAspect=0;image=data:image/png,iVBORw0KGgoAAAANSUhEUgAAAx4AAAFBCAYAAAD5fXk1AAAgAElEQVR4nOzdf1SUdd74/2f7Xb/l3GqQExiGwgQLhJEKSuoKaRp+ix/q55zh9pNu7lbsmoct1FxObXncvWvJX1Teyq7VbaXdfuTcR0VYj2a3pq6aCumSKC40oCiCDoHiDnW8P6fvH9dcF9cMM8MAM/yw1+OcTs5cv95zMXNd79f1fr3f77siIiJ+CAoK4tq1awj3goKCAOQ8dUK+S96R8+QdOU+eyfnxjpwn7/Sn8xQ89G5+lRjGhWu32FF+pa+Lo+lP56g/k/PknR/jefpJXxdACCGEEEIIcee76/9Lnf1DXxdCCCGEEEIIcWf76bWrdX1dBiGEEEIIIcQdTlKthBBCCCGEEH73074ugBBddePGDerq6vj+++/7uihddvfddxMaGsq9997b10URQgghhOhV0uIhBpyBGnQAfP/999TVSXqjEEIIIX58JPAQA85ADTpUA738QgghhBDdIYGHEEIIIYQQwu8k8BBCCCGEEEL4nQQeQgghhBBCCL+TwEMIIYQQQgjhdxJ4CCGEEEIIIfxOAg8hhBBCCCGE30ngIYQXZs6cSWlpKTNnzuzrogghhBBCDEh3xcfH/9DXhfDEaDSSlpZGcXExVquVzMxMQkNDO6zX1tbG9u3bsVqtAERGRpKYmMiOHTuw2WwdXve2yMhIpk2bxo4dO7QyerPNI488wo4dO7TXiYmJnDlzhuTkZD777DOqqqr8WuannnqKQYMGae81NDQwaNAghg8f7nKbgwcPcvPmTe1cx8TEEBERwfbt27t1DlwpKyvr9rZ6n332GUePHmXlypVerf/RRx8REhLCk08+2eNjx8fHe72u828gJSUFq9VKWVkZKSkp2vl1dU4zMzOprq6mrKwMg8FAZmZmh7/dwYMHHc6p+ndvaGigpaWFRx55pMN+6+rq2L59u8vy9tVvzfn3oud8DrtKfx6FEEII0T0/7esCdJW7yo6z5uZmAF588UWtMtxXDAYDP//5zxk2bBgLFy50WPb111+zb98+h3WdK4fLli3j9u3b/P3vfwfAYrHQ0NDA3LlzAfwWfFRVVfHuu+8CSsVt7ty5nDhxQjueuwpmZGSky/2NHz/e5Tlwrvj2BrXlYteuXS6Xf/TRRzz11FMul127ds3h9Z49ezp8Jl8aPXo0NptNqzAHBARo/963bx9lZWVkZmby5ZdfejyPNpuNzZs3O7yXmZnp8O/Q0FDa2tr49NNPtSDHVWDiKhhRVVVVMX78eKZOnerw3fa3qqoqTCYTmZmZXl8njEYjmZmZDB48WHuvL76PvUH9DR88eLDDNSMyMpInn3zS7w8zhBBC/Lh1Gnj87Gc/IyQkhC+++MLl8scff5z6+nr+8Y9/+Lxwixcv1ioECxcu9PiUVS8lJYWAgAC2bt1KfHw8cXFxnDp1yufl84YaSJSXlztUZuLj43nsscc6VHD0lUPnJ7hGo5Hg4GAArFYrmzZt8nv51XICHSolw4YN4/r161491Y6Pj8dgMNDQ0MD169d7rUK6YsUKFi9eDMClS5fYtm0bL7/8MnfffTcA+/fv19a9dOkSzz33nBbg+Tug8FZERATV1dWA8n0CuHjxorbcarWyYcMG7bVz8BoaGsq0adM6BLnOtm/frrUMdIW7VsjQ0NAOAUpnZeipffv2MXfuXCIjI72uQNtsNq3FSB+I9aWUlBSHc+fv81ZVVSUBhxBCCL/rNPAYOnQoa9asYeXKlRQXFzssS0tLY8WKFSxbtswvgceGDRu6lZ5z5coVIiIieOmll9izZw+bN292+xTen9QKYH19fYcnxo899hifffZZh8/kXOEApcVD78UXX9T+ffv2ba1Vwh/UcsfFxXHlyhWXZVT/7S4wHDRoEDExMfztb3/jypUrZGZmsmzZsl57snzmzBn+67/+iwULFgBw+vRp0tPTHdbJysrSlrvjnJr12WefUV9f79fgxGAwYDAYmDZtGtOmTdPed3fM27dva9958D5FyPnJ/8KFC2lqauL69esdjg3K31qvP7USuEq16ooHHniAl156ySHFEJRA6uc//7lff2/qNQNg48aNWlCfmpqK0WjsUYqiEEII0dc6DTzKyspYuXIlK1asANCCDzXoWLlypdvWEF8wmUwMGzaMzMxMKioqSEhIcLuu+lTw7NmznD17lvj4eH7+859z5coVhg0b1qEi4W9paWncuHGDiIgIl6kpGRkZ2r/Vitu+ffvYt28fBoOhQ2pTT/PUuyo+Pt6hwvniiy9qlVHnJ7Dx8fFEREQAjk9Py8rKOlRIN2/e7FDB6osKq74lpKWlhU8//dTlevpgo76+nilTpgDw6KOPct9993H06FG/ltM5PSo+Ph6j0djtp9+uWieqq6u1VhNXgX5JSUm3963n76f2v/zlLxk+fDhtbW3s27ePlJQUhxQqcAzYmpqaHFq8VFevXu3wmXurj8fUqVO1Fhg9fXn0gb8aaOpbK/R/B+e+b3qZmZkYjUa2b99OYGCgw99d37/L0z6EEEKIrvCqj4cabKjBh/pvV60gvmQwGBg0aBBNTU0A3H333axZs0Zb5lwxd+aq0tub1NSVJ554guLiYrcpSfr0DucO3frgpLKyUtuHp3xtX1HPnxpUVFdXExERwe3btwHlb5CWlsZ///d/d9jWVcd0Z3V1dX369zlz5gyrV6/mT3/6k9t19MFGTU0NY8aM4dFHHyUxMZG7776bY8eO9VZxASXtylUKE7S3ODmfezXVqqmpidu3bzu0TjinFplMJgYPHswTTzzB0aNHycjI6FB5B9cV3u3bt2MwGJg+fToHDhzAZrNpLSnV1dV+T6/bvHmzFpy3tLQ4pJ+5C9qNRiMGg8EhIKmuru6TzuQGg4GQkBDKy8vdrqP+Fj/66CMtQJg2bRrNzc1anxyDwaC1lsTHx5OWltYhkFHX27x5MzabjcDAQG2Z0Whk2rRp2t9Xv4++GJhDCCHEncPrzuXOwYe/gw6AkSNHav8+cuSI1k9Af/MbNmwYWVlZWgXcVaqSnj5NCTyPzuMP+sq6qyeIVVVV7NmzR7vxP/744w7B1dy5cwkMDMRkMnHx4sVezcs2Go20tLR4vX5TU5PbkY30LST92bFjx1iwYAGPPvooV69e5e677yYoKIgHHniAq1evunxi7i9qumBlZaVWsYf29By1H4h+UAD1PKvfcedAQ//dNxgMBAQE8D//8z8YjUZiY2O1yntXWtuuXr3KCy+8QFtbG4MGDer3T8td9fH47//+b9LS0rh48WKvlv327dtuB8IwGAzExcXx5ZdfamVSO/KPHj0aUAYiOHjwoPbdOH/+PDExMYwcOVIbcCMqKorRo0e7DSTi4+O5ceOGdm25ePEicXFxHa69QgghRFf161GtHnnkES5evMj9999PS0sL27dv1ypSatBz8+ZNLl68iMlkoqqqSktVcqZ2OO/NIKO71NGf/vVf/xVob/U4ePAg//znP4mKiiIkJKTHuexdpZ7XlJQUoL3/gTecK8ADQU1NDSdOnGDBggUkJiZSU1MDQHh4OFOmTPF7mpWz8ePHa8FFTEyM9jQ+JiYGUCqZKn0rlSf6QHj06NHcvn0bm83G/v37mTJlilf9Cm7fvs0DDzzQoS+S2uKib03oT31BPLFarZSXl/PEE0/06nd20KBBDBs2zO1yV4FJS0sLRqORixcvcvv2bS3AACWoun37NsOGDaO5uZlBgwYRHR3NwYMHPf5dQ0NDHf6et2/fJjAwsF8HkEIIIfo/rwMPfZ8OoEOfD3/49ttvtadtoDx1jY+P5+DBgw7rWSwWpk2b5raSFBkZSXR0NIMGDSIlJaVXh/h05k1lXa3ouEonU/tddFZx6A2BgYFaRbUzRqOR0NBQ4uPj+03Fc+zYsXz66acuW3Huu+8+jh07xt///nfa2tp44IEHOHHiBN9//73Wv6M306wiIyMZNGgQ58+fx2azaU/mb968qQ1U4Px3UD+XWol07hAO7d/HwYMHExMTw/nz54mLi+O7776juLi4w9DOahDR1NTk8D39+uuvHfohOH931dTAvhzWuqt6O1XTZrNRX19PRESE2+O6CkwCAgK0AHPQoEEOAYKarqqe99u3b1NRUcFjjz3GzZs33baY+rs/jhBCiB8nrwIPfdChDzT8HXx88cUXGI1G7bU+BUBfedenG7gaJSo6OlrLV87MzNRGu+qNNCWr1erwxDQ+Pp7hw4c7DA/s6YnqoEGDHFo81D4WN2/e1Cp3W7du9fvn0FM7v6uVUjX/W19Z0ncwj4yM5P7776ehoUFbru8/0pPO0t4YO3YsY8eO5dKlSw7vnzlzRpsMMCsrS3t/5syZhISEaC0caj+PlStXkpCQwIoVK/j22297Lc3KYDCQmJjIiRMntOBi+/btZGZmMmLECJffZaPRSEREBN9//71DOqEauOoHDairq6OpqYnLly87BPr6ju2e+kjcvn1bG/HMnSeeeKLXUwO9/W656uPRV9Q5WZznIklNTeXLL7+kvr6exx57TEsBi4yM5N5779Ve37hxQxtQw2azERMTw6BBg7hy5Yp2zbxy5Qqtra089dRTLr87FouFJ598EovFIkPsCiGE8KlOA4/4+HiXQYe+z0dra6tfR7YCJXd59OjRDulF+rQCteOzWvlVK1hNTU28//77DhU2/czMvZVGoS+P2vEzJSWFZcuWOYwa49wx+Pbt2xQVFWlBE8Df/vY3xo8fT3Nzs9bRuzepZaysrGTz5s2kpKS4DObUjsVqDr2r+SF6Y4hQ5+F0AY+zlT/zzDMOgYXz0LW9nWaVlpbG9evXtYBbDfi+/vprvvrqK+1voVawjUYjo0eP5saNGyQkJDi0dHh6iu8c6HsjPj6elpaWTlu9ersflTocsDfH7U/zeFitVjZv3qwNOa1SWzjVv7H6nXQecUoNSNW+bOo5sNlsDg9rysrKMBqNZGRkdJhgtaqqimHDhjkMbNHbfeGEEELcme6Kj4//wdMKfTmBIHR80qqvmOtvqiq1gu/NjTIzM5OWlha/PW3Xd3T3VB59+pS+UqhPVxk/frxDWdV9+zMlQn+uv/76a44cOUJmZiYGg6FDh2E1lebYsWNMmDBBG9ZUv57z8LzgebhPd3qS/pKVlUVqaqo2j0dWVhavv/46d999N2fOnOGVV17h3//939myZQuTJ092O3u5nr7lxFvx8fFerxcREaEFGIDLp9Tq96GtrY3jx48TFhbGjh07XM7M7Uw/QpX+9xYfH+9xoIb6+nr+7//9vw4DJXT2+/Q3d/P+dGcoav3vV4aUFUIIIXqu08BDiP6mv/QR6QlvAw8hhBBCiDvFT/q6AEIIIYQQQog7nwQeQgghhBBCCL+TwEMIIYQQQgjhdxJ4CCGEEEIIIfxOAg8hhBBCCCGE30ngIYQQQgghhPA7CTzEgHP33Xf3dRF6ZKCXXwghhBCiOzqduVyI/ub//V/v8P2ox/u6GN32P9/f4PaJ3zPo++a+LooQQgghRK+RFg8x4AwaNKivi9Ajd911V18XQQghhBCi18nM5UIIIYQQQgi/+6nV2kx/jzzCTSZqLJZubj2V3M0vE/zF/yLnY58WSwghhBBCCOGlu0aHPdTf4w4ifvYzqv/xj74uhhBCCCGEEKKbfjIQ0s1/8pP/p6+LIIQQQgghhOiBn8Jd3HVX/270+MlPfsJACJCEEEIIIYQQrv30hx/6d9ABcNddMACKKYQQQgghhHDjpwNjaM+7ZAhSIYQQQgghBrABMY+HBB1CCCGEEEIMbAMi8BBCCCGEEEIMbD/tlaPEpvJiUghQz+GCEs46LR6RNI+5sUOVF5ePsrG4oleKJYQQQgghhOgdfg88RiTNY+6oS+w4DHOTOi4fk5ZF0r0V7Cg4SoO/CyOEEEIIIYToE34PPBoOb2MjQGyqi6WxPPRgPYcl6BBCCCGEEOKO1jupVu7EhjOytZnmtCxefFB562ZFEVsPN/ZpsYQQQgghhBC+1beBB8DQWAJPb2JjMUAsGYumk3RhGxJ7CCGEEEIIcefo+1GtWis4ofUlt9LcOpRAY18WSAghhBBCCOFrfRt4VNRwZegofhZsfx0cwaih9Xwjg1oJIYQQQghxR7krLDziB78eQRtKV6e1gh1b7R3KHZa3cnZHxzSrmNgxnK9wHoRXCCGEEEIIMVD4P/DwAQk8hBBCCCGEGNj6vo+HEEIIIYQQ4o4ngYcQQgghhBDC7yTwEEIIIYQQQvidBB5CCCGEEEIIv5PAQwghhBBCCOF3EngIIYQQQggh/O5HEXgEZRcTb07o+Y5My4jPX01Qz/ckhBBCCCHEj8pPe+Uo2iSB9RwuKEGdkWNE0jzmxg51Wtn1JIJCCCGEEEKIgcvvgceIpHnMHXWJHYdhbpLjsobD29h4WPdG8BTmzw3k2x4GHRkFx3gnZDfhGXk921FPzNnAybUPssuUwVt9VwohhBBCCCH6Bb8HHg2Ht7ERIDa103XHTIyFiiJ6Mkf5q0VVvDDiM15OdAw6bI0mYvJXYASgkgs5r3DNviwou5gok7qm4zJMy4jPTsZA+3KAIeZPGBdTzumVa7gFQAJhK1Yw/PxKygpLYediJkYVUWM5RujSySza2YMPJYQQQgghxADXf/p4BE9h7IP1nOl2jlUaBSeqeIEPCU9cTJHTUuPsVNrWp3EkJ40LlmhC7X0+grKLiWILR3KUZaePBxO1YhlDwB50xNFk3+7I+kPY7Pu7VViCNSAOoxqwmB5neEAldYWl7QfNyyB86Wni11ZRktvNjyWEEEIIIcQdoN8EHkprx6nutXbM2cBJyzriv1riNr3Kdvw9ai3Kv6+VV2IINgEJGO5rpu6vhdp6t0rLsQUEYwCGJMRhsJRo2zkqpO44DE9QApghCXFwfHt7S4lq52Immj6ErCpqiiT6EEIIIYQQP079I/CITSWpJ60dOxcz0bSEsvHrerVyf6u0HCZlEkQCxhhoKi3tuNKcDZy0PAebIvu2z4kQQgghhBB9qB8EHsEkjQvhZndbOzTFLEqM5H2eo+bEBjLcrpdA2OPRWMsLgVJs3wYS+rRZWxr0dDIGyymuAbcaG8E0wT58rpkYh74egGUNdZZohmdnEvqti5aR3CJq1o6jbGkkqRJzCCGEEEKIH7G7wsIjfvDrEbShdHVaK9ix9SgN2nIchtl1FhM7hvMV3oclzqNaOXYeB9txewdwQO0UHhpgf9lySNdhXL9tM3XrSxicPYEmfefz5NVMnR2NdVca5w/pCiGjWgkhhBBCCKHxf+DhA10NPHpV8mqmzsZxJCwhhBBCCCGEg36QajWQKWlbNledyoUQQgghhBCa3pm5/A6kpWBZtnCk0EWnciGEEEIIIYRGAo9uurY+TVo5hBBCCCGE8JKkWgkhhBBCCCH8TgIPIYQQQgghhN9J4CGEEEIIIYTwOwk8hBBCCCGEEH7XO53LtUkE6ztMFDgiaR5zY4dqr29WFLH1cGOvFKtPJa9m6uONDpMVCiGEEEIIcafye4vHiKR5vDiumR2H6zsuDJ7CjFGX2FGwiY0Fm9hYcJTW2AmM8Xeh3MqlxHKMgjl9VoCembOBk5YiXu3rcgghhBBCCOHE7y0eDYe3sREgNrXjwsYWWodOYUZSNVsPNzIiKY6RrZc44e9CuTJnAyfXPsm1TZEs2qlfkEDYihWEBthfthzStVKYiclfgNG+yHZ8JWX2OT2CsosZ3ngIw6RkDA7b6beJZlx+srKxZQtH1hcq/zYtIz7bvh1g3ZXG+UO077d8C8xW91HZPmv6zsVMjCqixnKM0KWTnT6HEEIIIYQQfaeP5/GooKjAStL8DF5cBFw+ysatFb1fjNwiarLuZ+9SN0HHt1s4srLQaaMEwlak0rY+jSMW9fVvCTP9glqLsoZxUhx169Mos9j3k7yG84cKOZ9T6CHVykxMdjB1Oeo8IWZi8lcTdOgVbd4Q4+wJXMhJ4zxKIBJqTuCaOolhXgbhFzZwcm0VJVGRpOb59EwJIYQQQgjRLX0ceMSSsWgKQyuK2HgYJQCZH8COrUdp6KUSvFpUxQuPnON902Tecl5oepzhAZVc6BB0qMsCMWQXE6p72xoK2AMP2/H37EFIKbZvYXhwAtDJLOfJEzASjTG/mCjtzWbaTPr9bteCEJcTGe5czMSduZRYqqiZ9CHhGRJ9CCGEEEKIvtW3gUdsOCNbK9hh70x+eOtRAhfF8bPgozT0Uv/ytzIieSu3m+lJDmlXPqRPu+oOXdpYuMQcQgghhBCiH+j74XSHBmp9JAgOYKindf0lL4PwpaeJX1tFSa7ufcsXNLVEE2pO6LiN5RK2gGSiXC3zRl0jtoBgrR+Hw/umBcQkd2+35BZRs3YcZUslzUoIIYQQQvQfd4WFR/zg1yNoQ+nqtFZo6VTOw+leObyJIqduHjGxYzhfcRb/y6XEkk6dQ8uHYwdyh1YOp07g+o7eQdnFhDY6djbXv1bfizLZX+hbOZJXM3V2dHuxdMd0tR/NnA2cXPsgu0wZHdPGhBBCCCGE6EP+Dzx8oPcCDyGEEEIIIYQ/9H2qlRBCCCGEEOKOJ4GHEEIIIYQQwu8k8BBCCCGEEEL4nQQeQgghhBBCCL/r4wkERX9TY6lyuyzcFOnX43Z1//pturO9EEIIIYToPRJ4iA5cVeA9BSSelnnaZ3fojyWBhhBCCCHEwCGBh7/o5+LoykzkpmXEZwdTZ58PpFeO6cSbQELPOQDoauuDejxXx3Xej76Fw91+3G3rkX1OFo67mSOlv5mRz2vmGGoLZ/Hp5+5Wmsczm9KxrprHvurOdhhC4fJojKdPMd1qonymgc+3HmdJvW+L7StPzZxE3jgbH6+yMPLXE5jRXElcoY8Lm1tEzZzLvJy4mCIc592x7krj/CHvdjPE/Anjgku69Xvs7jE96sk1RgghhOiB3gk8tEkE6zlcUIJ+Rg7HCQQ7Lh+wDr3CkUNqpWPgHLO3WxE8BSneBkCu9tHV4Kn3JRC2YgWDv/BRZbLHWrl8g/aJMrFxpZ8GHQB7rDbydK+tza0+P8arkx6mYmcGRfbX19ancU39u/n8aK71xTGFEEIIf/F75/IRSfN4cVwzOw67qMXEpjI3tpXDBZvYWLCJjYchaf4URvi7UH6QUXCMmqLcvi6GB7mUWI5RMMf9GjWWqk7/8yU1YHDXeuEu5UvfQuLcz8PTtqpXi6o4WZDm+KZlDWU5aQOjtQPg8xzezPLU2tE9VmsrNP4Tq2936x83/sl5WrnS7PT+nA2ctBTxaqc78PCbmLOB2Y+c41iei2X9hS8+p9+OKYQQQnTk9xaPhsPb2AgQm9ph2YjhQ7lZcaC9haOihitJ4RiBBn8XzIdeLarihRGf8XKit7UUMzH5C3RPlyu5oE97aGkE8ydMnRQIgM0h/cdxW5vXqUF5pC4N5eTaKkqiIkl1U1RPFXZfBx7qsdTgQx+EuCuHN53J3X+GNApOrGNWw4eELyrW3vWUzhKUXczwxkMYJiVjAGg5xOmVa7iF0rIURQlNMQsIDQBopm79L6i10DGdRffaZv6Ecfa/LbOLmTrbaVuPJpDy9h9JCFS2Ke2QRjWPZzY9S5j2utnLIKKVJX85YP93NdNXOS0OieDA/FHa965y/wHMp0FJ0bqfy6cNzBinPJO3nj7F9P2tLrfjxiVy/1LNHqftKvdXwsxoomni41V/Z63HYwKn/06c/d97Cg8o66t2LmZiVBE1lmOELp3Mop0uPu6cDZxc+yTXNkW6XJ7x5DjY9yfe6vS82dlT9Qzqa933BMDWCGErijt+T1xs63VKVU8+p4drTFB2McPLt8Bs9Tqjuz55c0whhBDCjT4dTrehqZVhoyK0Fo4RSXGMZCj39VZqUo+lUXCiihf4kHB7Hrh3Cjmfk8YR+3+njwcTak5oXxyQTFRwibJ8/SGYlEkQoKTnpNK2Xt12JU0xvyXM5OVhdy5moulDyHLxxN+F3k5XUoOJztK9nPuEOJfTdblzKbGsI/6rJYRnOEZd19Yr57KuxfXxjJPiaFLXIZnQ5PZlhkkLGPyF+neE0KfNnj8kcKvwF9rxrLvUv6U3QQfAKfb9bhZvZn1MbYdlStBB4SzezHJeR/mudmjF8qqVLoTC+f/CX1cdIG7VAeJWVcLMR1mqLR/ODNN1clcdIG7rJRhnal9WX810bbsDfNw8ioXjdNsFXiT3dBvRM0dzeWsllRgYGeLNMTuRl0H40tPEr62ixPkj5hZRs3YcZUvdBeC5vJBynV264LRT9hYz9Td94VtvvydmYrKDqdO23QKzV9t/7378nG6vMQrj7Ak0qZ/FEu14ffJ0TCGEEMKDvu1cXlHCYVMWcxfFAnCzooIrBPJtY5+Wyjv2J4nsW+Lw9Nw7Ss628vTTzmIC1JaLSi6oHVEtX9DU8lsMJoDHGR4QiCG7mFDdptZQwKtKK0AeqaYKCk6so+bELK3jbF/xJmjw1LLhbn2HFpHcImqyHqZiUyQTu5E6Yzv+nj0oKMX2LQwPTkD7W1m2aE+nb5WWY1swiiGgPenuVTMmEtZ8kI9cpl8Vsyixq99Tu3H3E81wopdP51ntzTYuK922gDY+L65mD0C9DSv3K8FDPaid1qN1u7M2D9X28fnf6iF2NNReZEk9aN2vOz2mF3YuZuLOXEosVdRM+pDwjDyldfKRc7xvmuy2NSOjIJ3Yr3fTsY3WE+dWTLA1evE9SZ6AkWiM+cVEaVs202bC+990tz6nm2uM/Zi249u1Fliln0nnxxRCCCE60+ejWp0t3tSeahU8hfmjvE0N6WM7FzNxp5K6U1MU26Ub7xDzbwnlEKdz2lN2vO4M7pTC0XW5lFieI6hbAZPv6FOqutLB3FVKVqctM3kZhOcplaSTo5cwsQ8/d9+xp5nd7/T2115WGmu7N2rUUnM00bptl5qn87S3G3fzmBpdmlG4/SO+lRHJW7meUoXSmDUe9uZ1rSIdlLuamOAAACAASURBVL0Ao24kuSCnhwMe9WAEOqCbn7OHXBxTCCGE6Ew/mrk8loy5sbSePjqA+ncUsygxkvd5jpoTG8jwcitDcCB8e8kePJgJVfP9XUnOJJRyrBbAcglbQDJR+rSHrpizgZOW52BTpMvKt77yr6/gd9bvoju8Salyt52e90P35pFqWkLZ+HV+GwQg6OlkOP+FLigMtrdUJRC2QJf/D6itJ4bgbv4tXaltoCVwLGMiQOkLou/roXxX1fOu/edN0NH4T6xh0RSO63xVR0MZGagbcSokgqfDPG/R82PaeUoz8pie9DyzGnZ3saKegOE+sDXamwtMywj1kP7o8D2pa8RmWkBMsvv1Peru59TTX2N6ekwhhBDCA/+3eGhD6SqSFmWR1FrBjq1HaSCWjEVTGAlAK2d3bOLwQEizcvJWRiQVBcd4pyiXIntFboi+AzELmJq/QHuyee2vhwjNtr9HM3XHK8GhxSOaKC31opILOWoLRyHn148iPnsFUyep67Z3/PR0TMilxF5Z8FSpcg4ynEeM8tdwu93tT9K1DuZKupEyqlWFPfhySnuzd/b2uoOvSf07opxrtaO/ZQ11lmKi7E++rbu2YJ09wWFT5Xug/i297Vzu2Hk8bPleErRO5m+z68g2Fi7fSwJQW/g6pTOXePEhOlFfzfT9/0L5zOmUz7S/p3US96SVJSebKJ85gfJxAE18frqNsX49JkqAnYXHdKr2VKFjFFxQWwTSKJijDKHbkafvSSm1X1QSOlv9W1ZSd7yZ4frNPXxPynYFM1UbZABdq2Yn381uf05wf43phDfHFEIIIdy4Kyw84oe+LkRnYmLHcL7ijpjdo9/yNrBwbmHoSsDgKZ2qq8vclaM35yHpycRwoh9ymjBQCCGEEL4lgYcQ3SSBhxBCCCGE9/pRHw8hhBBCCCHEnarPR7USYqC6VfgLjvR1IYQQQgghBghp8RBCCCGEEEL4nbR4CAeeOov7u+O290Pjuu5c3psdy4UQQgghRNdI4CE6cDeKlDvejGzlzchUXV3uvH8JPoQQQggh+i8JPPwleTVTZ0cr/+7KzMSmZcRnB1Nnn5ujV47ppKtzanR/Uj/XM5N7s42r/fd60GFaRny2fWLAHs8o70MRv2Px8mlw5HU2bDnldrWE5XtJvOp5HdVS83SeDbxE7l9sLFwejfH0Kabvb3VcKSSCA/NHgatlLjw1cxJ5gRfdzk7u1TF7UcLyvaREKP+uLZzFp5/7Zr89+5wGlr4TQzJX+cPL9ZT6pkg+OWbCb2J5w3iV9H/7ttM9mn8fz9PW8zz7Z5tvizqghFCo/v2tJspnGvh863GWuP55dFMaBSfWEbqz55M/BmUXE2WfKNPreY/6iVeLqphdv8TFXE7ezqekCMouJrRxJWWFXf3ldf+YHvWk/iBEL+mVwGNMWhZJD9pfXD7KxuKK9oXBU5g/N5ZhgDKJ4LYBOYlgB4de4cghdcjVgXPM3qy89/RYnQUpfv8sljWU5axRAr7Hfbzv5NVMfbyx3wQz55vbILD9tdXq/wDAb8eckc9rMxv46Hdvc6ULm5WumkUpE0h5+48YfVMSoG/Obd9QApbgA2Us391bxwwj43AO441w6/N8Vv+21v7+NJ4/N5tQ59XP7mKFuUbbxoH1Sz5I2kad38rayuUb6L5bNq74NOgA5swins940wczzl9bn8Y1ewV6cM93p2MmJj+VNl9VxjvIZfIj59iVUWx/XUrtyjRq7cftHX1xTCH6h16ZuTyJo2wsqAD7TOUZsRUUVaC8njuKS+qM5cFTmD83lTEFJQy0WTsyCo7xTshuwjN8cEX3i1xKLOnULZ3sduby7qZMdVd3jqffprtlcXzadQeqfpsNWW/7fr/NNvbQyowb8KCr5fXVTF9V3bvHvFN0+3PaWPtyGWv9VKz+c8zuUIIL/iOfr9Jz+JnDsoN88PBBh3cmF77LlIYaoJaipJccJpEMfe+PPD+iwY9BRzurtRUa/4mVf3F439vrlqd70asLn4SvlgzYCTK9vs/O2cDJtQ+yy5TBWx32kU7s17vp19V9D+V31Pl93ffHFKJn/B94VJSwUWvgqOCby1MYOzwYaGREUhwjL5dTZG/hGBE1imEM5aFYOFvhZn/90KtFVbww4jNeTvQ26DATk79A92Srkgv6ptGWRjB/wtRJymNQ23F9U67jto7LPMkjdWkoJ9dWURLlvpm9sz4Xvuaqb4b62tXxnN93lXblPtVLSTOY1fAh4fqbtz5lCjqkqelTCrqUUuW0X+d0BIf9at8B/d83mnH5yS7L5E5n6UD65QAtV735ILBn/3H22P+95C8HdEuGsu7XE5hxb/s7lfsPYD7tZvmNS+T+pVrbl7UZ1v16un15m0NqiftjdkZplUjQWhHOsy8rh1Lm8cymZwkDIIaFm6Ypi6s/5s1V25Rzg/JvhbI+XqZVOZzb5oNet6i4+5wJv4klm2YaEx8g+sZVtlYGMj/xHppP2FOS0h9i95wAZeVvahxSmhy2BaCFrb/8hs6+Qebfx5NQ7tQiMTaEjxfC+pfrKfVwTPW4byTe0/7GNy7enxPP7jkA33Ho3QrWnlFXDmDV5hilvDec07jsv10+68LM8mpwEUZGeierps9jyphajpprXSycRsoM+Cr3oLbuK8vg6JmHSZmhtNVrrSnLclj5qzDq/uMlPlijbPv8udkEOrS2KClV0bWVTmmGrbq/fzXTVzmW4q2MJYSeWEdNUazbirfne5Hzk36F43XIKe2nk2uYJx6vm077Ve9jDttkF9tbpNrvj0WLJhNbVEXNiVD334PcImqy7mfv0skuKtBpzBoPe/O8f0A4xPwJ4ya1N0k633NtjSZi8lfYr9mO93LHbZ3u857sXMzEqCJqLMcIdRdUzNnAybVPcm1TpONyD/WHoOxihpdvgdkLOpbXm2MK4QO93McjlocebOXSSSXSMN47lJs3rIA9HYujHNYFJv2friLrddABUMj5nPYqwBDzJ0SZE7imXswCkokK3sKRnEL7BTqToMJSe7N2Km3r0zhiASVP9LeEmbxskt65mIk7cymxVHFydOdPznqrs7Y++PDfMXMpsTxH0L4ljkEHEPR0MrZdaZS5uKEOMX9CaONKjqwv1V5HmRO8CPbMxGQHU5eTZr/RmInJX03QIeUiH5RdTNR9hzid4xzE2L8b3Uy18pQOpFWss7ZprxPty14tquKFR5w2uO5NJa/VobK81Dxd26cadIy1nCLO3mdhqXk6eWYbe+wVLuO4aB7cf4C40/Y+Hz8PATd9Prw243+T0PQxb/5um9OCbXyatc1tqlXpjoMkLp9IAtuUCu+MiYQ1H+QjL4KOkQu2kXj1dd5cdUp7PXvBBDZsOdWDcwuBiYGUv1sDL4Uz31jDH048wBvGewAb7P6G9N1qXwpX2z5A484y0nfb+1D8xkBhJ30oLNbveDrEANzDqs2BlP7yGwpHDSbQ2qycEw/HTPhNLG9EN/OHXyoBg36d0j9XkP5nz6lWymctY/kZZT1zej2lvZSSNXn+Y/B5PsdcLAt9bzqhZw/wgb4sxsdIGbGLFQ8fVAKRvDlMJp9ja/JZQQ4rf5XD5DX5UOgcdPREMYsSi3nVZcW783tRRkE6Qfv+5FgZNy0j1OV1CDq7hnni8bppDzpcXXOV9C3PqVZvZURSUXCMdyxFxDo9nc8oOMY7Kdd53+Qq6AByn2dWw27Cu1CpvlX4C45ot2szMfnq/VhhnJ1Knf2eHJRdTKh6L09ezbjgEuU+Dso1PdvMNW/7XuZlEH5hg+uHhVpwFdkxQHBbf1DLO4ELOWmcx6m8nR1TCB/pxcAjmKT5UxhaUaS1cCiMJM3PYNSlIjYebmRM2pTeK1JP2J824KIi2zl9xzI7iwm053uVXFAvTpYvaGr5LQYTwOMMDwjEoD0JUlhDAa9zYfNINVVQcGIdNSdmdeHpoX91N+jwarvcImqyHqZiUyQTXVxIbY3NRM0uZmqcc6tCAsaYQAwBK5g6Sfe2w9/KjeQJGInGmF9MlPZmM20mwGJmuKmZuvW92X9jHlERzZSucq6MK97KiPRD8/pQHry3ib/qOkqvrWri2YkGnlLfqK3UWkf2VFxnWZqybI/zrrqitoEW87O8tmmivaXDS9Vvc6J6L1EzoPRzSBgfQ+3+HC9aLSYwZkwgAYF/5LWp+v1FAKd6dm6/ucraM7CK7zhU8i089kAXtq3RKvgW63cEqgELHVsmKncqwUBp/XcExt0DY++h8RtISAdLyD00W7/r5GAGkqPvofJA9zu4N5+osbd+2KizQlyIQSuvWun2i660dmhq2We2v7f7OP9Y9hz3pwO7gTX5fDDqjzx/7l2lz0iHoKMe86ruB9ftFe9jzFo6mUV4cy/K5YUUKFvqtNxyCVvAAsblx3Xs4OzxGuaphJ6vm0MS4jBYtrh80OOtokWTKcotosZSxeRNkaTm6VrETO7uaWkUzHmYip0ZXTuYftAWwPkc2I6/p523a+WVRMUpnzMoLhpM0UzNX9C+aUsjQ8D7677uYWHNpA8Jz8izP8g45z64cld/0Mq7XQtClECv82MK4Uu9FHgEa8HFVl3PceuNVobFTiHw8Ca2Vijr3XcvtFoGQGvHzsVM3Klc7Dw1fbsyxPxbQml/ytSlzuA9Hj3J/ZP/vuSrFg+X2+dlEJ7nvqVHe6KVvFq5STic4x6MONKDkcV6W0+eyvc7Wh+XeTyzaS8pNFO6ah77vOh+UvrVeVJm/o6Rn18iKuI8F1Z1vo3C/TH647lVWiBcLLjURnMcJDw2GEqaIfU+TNxDY/mdOtpUGBnL3Ld2TC6cTejZXY6tHV66Zb3JkBEjCAWf9g3R0qm0CrYX96LcSUq/hg5P+tXW9wTCVhQzNcApnarb1zAfjtTkQnvLhhrUK4FphpuWEKCbHevNxMyO1p2TrnUG7/FoX7p0qnB7ud/KiOStXD+mRLk4phC+1Aszl8eSsahj0AHQcOESN6nnG7U/R+wExgzVve73ilmUGMn7PEfNiQ14+xzFEBwI316yV2zNhOryRztIziSUcqwW7E+nkokyJ3SvuHM2cNLyHGyKdJlm5a6fhdqnwl9pV/pgwV3fjp7LI9W0hLLx66gpynW9yqFXOJKzBWtAsD33uBTbt4GELljGkK4erq4Rm2kBMcmuFhbSZAkk9Gmz5+21cvhCNdbmQCImTQCUVCB9X4+3MiIJNzn91+OKcSuXbwzn6ZlD7a+Hsm7icKyWRpctGkt/PgrcLOuebXyaNYt91YEYw3Rv1zbQEjgCl20Hn/8npYzl8eXpBBz5Ty+f3p+iqSmQhBd+x0gXS/1zbv3kzHc0GgMxG9s4ZP93At/ReKmzDZVWiui4+5SX6Q859vXQrRMc0p1vdRoFJ6q6dJ31yrI5jDfWctRVKlT6PKaMuclXW51bO1zsg3N8pQYny3J4fuw5/k/S6+xreIx/fS/MaYOhrPv1dMp/HdHe8ucV5Ry8wIcuvj+e7kVpFMy5n70feapFKqMsnT7ejCHYfn/xeA3zxPN181ZpOTZTKmEmFwsBsNDWEsjgDkOOKV4tquKd8ad52UVwUbRoMuGb4AXLMQrmOG238Emu7ezi7840CgPNtNkjxyHmVA8j2iUQ9ng01nIlULM1NmOcvZqgrhxPL7eImrXjKFvqIuUpL4PwpaeJX1tFiZvbGeBYf+jpMYXwEb+3eIxIilNuxrEZvBirvlvP4YISzjYeZevhVF5clEWS/n1/F8rHtKbvolyK7E+bHDuVLVCepNufHl376yFCs+3v0Uzd8UpwaPGIJkpr3q7kgpZ/W8j59aOIz9Y3Ybd3DvN0TMilxH5B8fSExDnIUP/vz+DDeZ/dSbcCb/qktOdInyyocDGGu8K6K03XFL0Sw4oV7Z280T3FcmiCt3cEV1tLLGso2xXM1NnFTJ1tX0XXkqLut70Z3qnjoWUNdZbi9u+BV08enTpVm/fymlntZH6Kfe8fJGK5PR2o+mM+OpLObE+767FWlvylksLlEygfZ3+rtlLr7wFAWDTly6NdL+umkQu2sXCqLpiv/pg39f007ClVKZv2kqIu11LQTnH2LCycCqU79PObeDq3ULrqdYa//cf2Duv4dq4PVxzTpcLZvTncZYfvLrs3gGhrM6XYoPIe3kj8jtIznR+z8N9qSNhsf+/GVf6wE96Ic9x1YclVnn4pht2J0LFzua+FOQ6LOyOHlefQdfwOIyM9jFvuWjvmP8aQs7soctnaEUbKuXeV7w+17HvYPszushxW/uo+vsrNpw6oM+/i4XM5rCzcxQo1NYtWrjQDYfczI6SaPV5mXb1atI74rzy3VLu6F5H7PLM4zcuurvvOaUQthzi90h5ue7yGOV037euo10aP103LGsp2rWaqLmXYscN2KbVfVOqO235tzCg4Zg+8PNSKtX4KRby60x6czNnA7EfOsctl1Oo02Et2MaFai439OqyW1XKIuhbHL7VhUvv92HZ8pZZCdqvwF1wI1l3DHT6np2Mq5T2ZhYd0KnQpUccouKBv+XBXf+iEN8cUwgfuCguP+KGvC9GZmNgxnK8YaOHIwOJtYOFqBCpvdWWiQU/l8TTqlafjCX9TOpM/eFI/qtXAM3LBNhaOOdPleT7Ej0T6PF7JG8HRh10HLN54auYk8kzXHUZ48w/fTRg4kN3xQ6gLMYDIzOUC8L6S3tPWCW+39WaZBBb9TEgwY+9t48wA6KLl3jwenxpIbaEEHcIf7EPp0sTHq/wddIBfO+UPIP4ZPEMI0R0SeAghui8kggPzR2kpA5X7D2jzcAws7alULUdeZ4MfU6TEj1nPRrQSQoiBTlKthBBCCCGEEH4nLR7Cgad+E/5MbeqtyQqFEEIIIUTfkMBDdOCuQ7c73nQw92VQ0dvHE0IIIYQQPSeBh7/ohynsyiRMpmXEZwdTpx9a1d/HdNLVeTS6MlqVL3gz8lavMC0jPjtZmWujxxM7+lDE71i8fBoceZ0NW065XS1h+V4Sr3peR7XUPJ1nAy+R+xcbC5dHYzx9iuk+GPq2vx3Tk4Tle7W5T3w5VG7PPqeBpe/EkMxV/vBy92cN7xrvjpnwm1jeMF71anhf8+/jedp6nmf/fKdOVOgNpeO58fQppltNlM808PnW4z7uM+W7Ua6CsouJss/F0eOJ8nqZ4yhX+qGBuzbxYVB2MaGN+qGAvdX9Y3rUk/qDEL2kVwKPMWlZJD1of3H5KBuL9TMExpKxaAojgSuHN1E0YCYP7MShVzhyqIuzkveDY/b3loJ+NYSuZQ1lOWuUgO9xH+87eTVTH2/sN8HM+eY20E2NYbX6PwDw2zFn5PPazIYuD5dbumoWpfZO6O4nEeu6vji3fUMJWIIPlLG8GzOBd0/7XB63Ps9ntTZR4DSePzebDnPUnd3FCnON4/wfKuuXfJC0zaezkDtq5fINdN8tG1d83Q+9W7N3u3ZtfRrX7BXowT3fnY4yO3ib32Y+z2XyI+fYlaGO9qVMnljbxVnJe6YvjilE/+D/wCM2lSSOsrGgAjXIyIitUAKM4CnMnzuKSzuOwtwpfi+KP2UUHOOdkN2EZ/TXwdJzKbGkU7d0stsJBPs6hcnV8X05fK/qjh/TvfptNmS97fv9NtvYQyszbsCDna89cI/ZF7r9OW2sfbmMtX4qVv85ZncowQX/kc9X6Tn8zGHZQT542HFG8smF7zKloQaopSjpJYcZrkPf+yPPj2jwY9DRzmpthcZ/YuVfHN739rrl6V706sIn4aslXZu9ux/x+j47ZwMn1z7ILhezm2cUpBP79W76dXXfQ/kddX5f9/0xhegZ/wceFSVs1FoxKvjm8hTGDg8GGqHxKFsLjgKxuJxQdIB4taiKF0Z8xsueZlN14DRrqfOs1S2NYP6EqfZZyB1ndXXc1nGZJ3mkLg3l5NoqSqLcN7N7qtj7O4XJ26DCXTk6315JM5jV8KHj7L/6lCnokKamTynoUkqV036d0xEc9qt9B/R/3+j2mX+9TJ3rLB1Ivxyg5ao3HwT27D+uzTmw5C8HtPefmjmJZVzHOm4U0Tcu8bHlfp4dNxirli6kTCo441793pr4eNXfWRsSwYE0+Kt9G0C3nftjds5plnHOsy8rh1Lm8cymZwkDIKZ9lnH7zOUJy/eSgn4Wc2V9vEyrcji3zQe9blFx9zkTfhNLNs00Jj5A9I2rbK0MZH7iPTSfsKckpT/E7jn2qaOdZix32BaAFrb+8hs6+waZfx9PQrlTi8TYED5eCOtfrqfUwzHV47bPbA584+L9OfHsngMdZy4PYNXmGKW8N5zTuOy/XT7j5cTFXlac1eAijIz0TlZNn8eUMbUcNde6WDiNlBnwVe5Bbd1XlsHRMw+TMmMYoGtNWZbDyl+F6WZHV4KfQIfWFvtcHrWVxBXqmzRadX//aqavcizFWxlLCD2xjpqiWLcVb8/3Iucn/QrH65BT2k8n1zBPPF43nfar3sccttFmNm+/PxYtmkxsURU1J0Ldfw9yi6jJup+9S13NwJ3GrPGwN8/7B4RDzJ8wblJ7k6TzPdfWaCImf4X9mu14L3fc1uk+78nOxUyMKqLGcoxQd0HFnA2cXPsk1zZFOi73UH8Iyi5mePkWmL2gY3m9OaYQPtDLfTxieejBVi6dHNAzjOnoKrJeBx0AhZzPaa8CDDF/QpQ5gWvqxSwgmajgLRzJKbRfoDMJKiy1N2un0rY+jSMWUPJEf0uYycsm6Z2LmbgzlxJLFSdHd/7krD+PNOWqX4lnuZRYniNo3xLHoAMIejoZ2640ylzcUIeYPyG0cSVH1pdqr6PMCV4Ee2ZisoOpy0mz32jMxOSvJuiQcpEPyi4m6r5DnM5xDmLs341uplp5SgfSKtZZ27TXifZlrxZV8cIjThtc966SZxx3P2e2VsL8aJ4NrCT39GjyAocCrSw1T2BGcyVxf6lHqXCN5vLWv7c/Lb93FE9zirhVrfY5QUws3f/3nj1Nn/G/SWj6mDd/t81pwTY+zdrmNtWqdMdBEpdPJIFtSoV3xkTCmg/ykRdBx8gF20i8+jpvrjqlvZ69YAIbtpzq0bkNTAyk/N0aeCmc+cYa/nDiAd4w3gPYYPc3pO9W+1K42vYBGneWkb7b3ofiNwYKO+lDYbF+x9MhBuAeVm0OpPSX31A4ajCB1mblnHg4ZsJvYnkjupk//FIJGPTrlP65gvQ/e061Uj5rGcvPKOuZ0+sp7aWUrMnzH4PPXc9EHvredELPHuADfVmMj5EyYhcrHj5on8l8DpPJ59iafFaQw8pf5TB5TT4UOgcdPaFMBviqy4p35/eijIJ0gvb9ybEyblpGqMvrEHR2DfPE43XTHnS4uuYq6VueU63eyoikouAY71iKiHV6Op9RcIx3Uq7zvslV0AHkPs+sht2Ed6FSfavwFxzRbtdmYvLV+7HCODuVOvs9OSi7mFD1Xp68mnHBJcp9HJRreraZa972vczLIPzCBtcPC7XgKrJjgOC2/qCWdwIXctI4j1N5OzumED7Si4FHMEnzpzC0ooiiOyHusD9twEVFtnP6jmV2FhNoz/cquaBenCxf0NTyWwwmgMcZHhCIQXsSpLCGAl7nwuaRaqqg4MQ6ak7M6sLTwwEst4iarIep2BTJRBcXUltjM1Gzi5ka59yqkIAxJhBDwAqmTtK97fC3ciN5AkaiMeYXE6W92UybCbCYGW5qpm59b/bfmEdURDOlq5wr44oezexbe5El9VBIG5//rR5iR3tYeTAPBgPag94m/qp2pK7v+JS3e+VpoMX8LK9tmmhv6fBS9ducqN5L1Awo/RwSxsdQuz/Hi1aLCYwZE0hA4B95bap+fxHAqZ6d22+usvYMrOI7DpV8C4890IVta7QKvsX6HYFqwELHlonKnUowUFr/HYFx98DYe2j8BhLSwRJyD83W7zo5mIHk6HuoPND9Du7NJ2rsrR826qwQF2LQyuvXGbi70tqhqWWf2f7e7uP8Y9lz3J8O7AbW5PPBqD/y/Ll3lT4jHYKOnk0i2F7xPsaspZNZhDf3olxeSIGypU7LLZewBSxgXH5cxw7OHq9hnkro+bo5JCEOg2WLywc93ipaNJmi3CJqLFVM3hRJap6uRczk7p6WRsGch6nY2cX8Cv2gLYDzObAdf087b9fKK4mKUz5nUFw0mKKZmr+gfdOWRoaA99d93cPCmkkfEp6RZ3+Qcc59cOWu/qCVd7sWhCiBXufHFMKXeinwCCZpfgajLhWx9fCdEHVg/3EqFztPTd+uDDH/llDanzJ1qTN4j0dPcv/k/46Vl0F4nvuWHu2JVvJq5SbhcI57MOJID0YW6209eSrvydqqJp6dGU35cuXGbT19iumne7BDb2h9XObxzKa9pNBM6ap57KvufNPSr86TMvN3jPz8ElER57ngdSDk/hj+Orc9obRAuFhwqY3mOEh4bDCUNEPqfZi4h8byO3W0qTAylrlv7ZhcOJvQs7scWzu8dMt6kyEjRhAKPu0boqVTaRVsL+5FuZOUfg0dnvSrre8JhK0oZmqAUzpVt69hPhypyYX2lg01qFcC0ww3LSFANzvWm4mZHa07J13rDN7j0b506VTh9nK/lRHJW7l+TIlycUwhfOkn/j9ELBmL7rCgQ1PMosRI3uc5ak5s8LqfiiE4EL69ZK/YmgnV5Y92kJxJKOVYLdifTiUTZU7oXnHnbOCk5TnYFOkyzUqfvqSmWdVYqrQ0pv6UdqWWS18+z/JINS2hbPw6aopyXa9y6BWO5GzBGhBszz0uxfZtIKELljGkqwWsa8RmWkBMsquFhTRZAgl92ux5e60cvlCNtTmQiEkTACUVSN/X462MSMJNTv/1uGI8lHUTDXy+9QBxq5T/enc43G18mjWLfdWBGMN0b9c20BI4ApdtB5//J6WM5fHl6QQc+U8vn96foqkpkIQXfsdIF0v9c2795Mx3NBoDMRvbOGT/iHn/cQAAIABJREFUdwLf0Xipsw2VVorouPuUl+kPOfb10K0THNKdb3UaBSequnSd9cqyOYw31nLUVSpU+jymjLnJV1udWztc7INzfKUGJ8tyeH7sOf5P0uvsa3iMf30vzGmDoaz79XTKfx3BU10qrHIOXuBDF98fT/eiNArm3M/ejzzVIpVRlk4fb8YQbL+/eLyGeeL5unmrtBybKZUwk4uFAFhoawlkcIchxxSvFlXxzvjTvOwiuChaNJnwTfCC5RgFc5y2W/gk13Z28XdnGoWBZtrskeMQc6qHEe0SCHs8Gmu5EqjZGpsxzl5NUFeOp5dbRM3acZQtdZHylJdB+NLTxK+tosTN7QxwrD/09JhC+IjfWzxGJMUpN+PYDF6MVd+t53BBCWd1Q+kCkJTFi0mtnN2xjYEUo2hN30W5FNmfNjl2KlugPEm3Pz269tdDhGbb36OZuuOV4NDiEU2U1rxdyQUt/7aQ8+tHEZ+tb8Ju7xzm6ZiQS4n9guLpCYlzkKH+v78FH90rR3uO9MmCChdjuCusu9J0TdErMaxY0d7JG91TLIcmeHtHcLW1xLKGsl3BTJ1dzNTZ9lV0LSnqftub4Z06HlrWUGcpbv8eePXk0alTtXkvr5nVTuan2Pf+QSKW29OBqj/moyPpzPa0ux5rZclJG+Xzp1Oue9fq5/k4Ri7YxsKpumC++mPe1PfTsKdUpWzaS4q6XEtBO8XZs7BwKpTu0M9v4uncQumq1xn+9h/bO6zj27k+XHFMlwpn9+Zwlx2+u+zeAKKtzZRig8p7eCPxO0rPdH7Mwn+rIWGz/b0bV/nDTngjznHXhSVXefqlGHYnQsfO5b4W5jgs7owcVp5D1/E7jIz0MG65a+2Y/xhDzu6iyGVrRxgp595Vvj/Usu9h+zC7y3JY+av7+Co3nzqgzryLh8/lsLJwFyvU1CxaudIMhN3PjJBq9niZdfVq0Triv/LcUu3qXkTu88ziNC+7uu47pxG1HOL0Snu47fEa5nTdtK+jXhs9XjctayjbtZqpupRhxw7bpdR+Uak7bvu1MaPgmD3w8lAr1vopFPHqTntwMmcDsx85xy6XUavTYC/ZxYRqLTb267BaVssh6locv9SGSe33Y9vxlVoK2a3CX3AhWHcNd/icno6plPdkFh7SqdClRB2j4IK+5cNd/aET3hxTCB+4Kyw84oe+LkRnYmLHcL7ibF8X447mbWDh3OG8KyNd+WI7T+XqyvqiNygjWj148gBmNb1q3KOUz0QZ1apPy+beyAXbWDjmTJfn+RA/EunzeCVvBEcfdh2weOOpmZPIM10n9y/V2ohm/uG7CQMHsjt+CHUhBhCZuVwA3lfWfTWvhq+DAwk2+qOhPHiv4ztPGQ1w4zrn+6ZAXpjH41MDqS2UoEP4g30oXZr4eJW/gw7wa6f8AaRHAzwIIXxKAg8hhJ/UY95/P+Uzp1M+U32vtypcXdWeStVy5HU2+DFFSvyY9WxEKyGEGOgk1UoIIYQQQgjhd70wqpUQQgghhBDix05SrYSDro5e5a6TuC/6XLibOV3/vqdO6tLvQwghhBCi/5DAQzjQV+i9qbirc304b+cqIPA0qlVXggT9Md1t15VRs4QQQgghhP9JqpW/JK9man6x8l+2h4ninJmWEZ/fzUmHuntMF9wFD13dh6fgwNMyb/btU6ZlxOcXE9/dyRl/xJ6aOYny5Y+yVJ0YzRzidt2l5ukcmDnUvwUKieDA8ukUjtOXrQtm5PPapr08M8PTSvN4ZpPjJIweCkThcvvnHvco5csnsU49RSERHOisfPbP47fz5k0ZfGCpWZ00T3c++pL97/zapr28tnyez3bbld+DK+bfx7N780P07AreNV4dc2wIH3tZLvPv4/n4N76b/nRg8vC79yFlXqo0+yv7DPT5xUzN/8TDJI0dBWV39/7X/WN6MsT8SY/rMaJ/6pUWjzFpWSQ9aH9x+SgbiyvaF8am8mKS+mtUJxa8Axx6hSOH7JP6BXe++oA9pp0vWhhc7cNVy4unVhUYKClWygRcg7+wT6rVJfN4ZlM61lXz2Fftj7J1zR6rDf0UAdZmX00OGELh8tFc3nqcJV0ZCKjehlX/+sY/+3j43lYu30A347GNKwN4YKOnZk4iL/AicYVd+xDnm9tAN6+j1eqr70k3fw+f5/Dm5/Z5W1xOY989/vs99DcGlr4TQ/CBMpa7nGTRH9onhbz1eT6rtRnnp/H8udl0mOz87C5WmGscJ5JUWb/kgyT7xI9+0Ru/+1wmP3KOXRnqkMnKDPS1mInJT/X1wdzoi2OKgcz/gUdsKkkcZWNBBdhnKs+IraCoAuV1Ehwu2MRZ7AFKWixn9YHJAJFRcIx3QnYTntFfZ2nKpcSSTt3SyR5nLlfpK/feplyp23WXuwCjq9t0xuVkUpY1lOWs8b6wwtGNf3KeVmiGsX1dFgDauNwIe7CR19UncPYKqa9Zra3Q+E+s/EvXNqyvZvqqfhBh+kKzjT20MuMGPNj52gNXD34Phf9WRqFfCtW/jtl1SnDBf+TzVXoOP3NYdpAPHj7o8M7kwneZ0lAD1FKU9BJFumWh7/2R50c0+DHoaOfud+91nWHOBk6ufZBdpowOc5FkFKQT+/Vu+nN13xef02/HFH3C/4FHRQkbtTiigm8uT2Hs8GCgEaigqKA9yDhrqSdpXAAjgAa/F8x3Xi2q4oURn/FyordfcjMx+Qt0T0IquZDzCtfUly2NYP6EqZOUx4O24yspKyx1ua3jMk/ySF0aysm1VZRE9Y9ZbHu/H4Yyi++shg8J1wUdQdnFRNkrp9Zdji0QQdnFDG88hGFSMgaAlkOcXrmGWygtS1GU0BSzgNAAgGbq1v+CWgtK6lZ2MHXq31X32mb+hHH2vy2zi5k622lbDxKW79XSe8KW70VpGD/PvqwcrnaYcVuZmyLi7Ots2HKKhOV7ifrqYzA/S5huO/XbM3LBNhZOVR9JOy7z6PTfibPPTL6n8ECHGcmXmqfzbFj7a2uz+i91MjVVkzajuX6b6PnTKXda7ryt9fQppu9Xnyzr5kqoby9b59rn8oBmSjs8QZ/HM5vUc6esY8UbrSz5ywH7v6uZvqrjGiNnTqJ83GAAKve3z/SuPw/69wElfSPyOh8T7XKdp2ZOIs++T8dzh5JeNX+U7hrUpP3LcTvduXXYJpry5dGOyzs55p79x7X5W9rPh3f033v936Ynv4fO+Pz3MDaEjxdCufUBkh/6jkM7m4mb8wCBN67yh5frKR0bwscvPaA0CqnvudxWeatypxctDekPsTuumfR/+1b3poGl74TDRxWsxcMx1eOqywFoASDhN7G8kXiP8taceHbPAfiOQ+9WsPaMum4AqzbHKL/RDvu2X4v5jJcTFzsEBe6pwUUYGemdfe55TBlTy1FzrYuF00iZAV/lHtTWfWUZHD3zMCkzhgG61pRlOaz8VRh1//ESH6xRtn3+3GwCHVpb7Nei2kqnVkDPv/uiRZOJLaqi5kSo+3OQW0RN1v3sXTrZRWU8jVnjYW+e9zfzIfp7Dx3rD7ZGEzH5K+y/ccd6ieO2TnUWD3ryOW2NELaiuOP9lQTCVvwWvihn+OyO92avjin6TC93Lo/loQdbuXSy0eXSMaYQbl46NYCCDl1F1uugA6CQ8zntz5eGmD8hypzANfUCEJBMVPAWjuQU2iusmQQVlnKNBMJWpNK2Po0juh9fmKnzCisAOxczcWcuJZYqTo52euLfQ+7SpDxx1UribQuLt8dol0uJ5TmC9i1xCDoArq1Ps5/bFQx2saVxUhx169MosyjrhCav0YITw6QF2Haltae4PW2mdr3nZ4e3Cn/BkcLupVqVrppFqbvUki27qd2UzpgIuFINREwnIvA8J3SVrDBzOqWrZvGpvdKWuGACpVtOwYx8Fj6wmzeztikrzsjnteXzKF21zX5TeNipJNfZ60Xr2VLzdJ6lkjh7ILDUPJ2ntaWOk6k9NXMSy2YOZe3+VtYWHmCt21Sroaz79Wgubz2AuV59PYZ1IV1MyergFPt+N4t99vPrSAk6KJxlbw3Rr2O/DtzvtMnXH3r5xG04MwLt52jco5RPjOCp08oki8p5GMq6X09w3UIQFk3i/gPEFfL/s/e2UVGcacL/b75FRjcyohBiG+jAAwTH0YgadAHj0ciJYEM+dMYJRHeTOI/jIfEthmM2a9w8yRLfMONRZsjkv/Fl1pn+EGkhHow5RmTVETEkTAi4koYBRTFtGgfT5tv8P1R1d3XTL0VDI8Trd45Hqu66X6qr7qr7quvNu+6sXyjmUK7fd9YvaDbHs8vSowoQk/ni8Cnl94pP4lSR52vs8ZPnOX7StRWPZbORjSe/ZJeqeQloahWsz6GQ9BrzJn3Gh6sHZpMf6nwISITmAw8+xIy2Vg6TRlHhOA6/d51lr4zDCDR+0cPKf+lRhIVF/uvm2DtY/i/fqcfEk3GsJ7gw1HUXx6IHyACM/zabjOZLbD72ALEP/kDjFwBB+pwZz4FXoml+75IiTMyM58AryhOy8XctLP9dcFOr6HlK3c1fKMeZl/fQOEImWfOLnoBPyznnp8zw20UYvjrFH7RjiXmCpXFVbH3sM0UQKStkPuWc21nOVtaz7V/XM39nOVh8hY6h8Y4pmZaKc+yxWUn3+dJvqjjHnqXf8r7Rn9ABlL5I7o1jJOqwYHChvHtcW2bSyl1rC4WYgjy61fXFlJJqDK51Sc4OZsXWKGsSUPxJS8zcDPGuG+p5Bn+/RmNYCE3r87nDwHdzsD6Fe8sICh6xZBctYEKLFasfuSMuewXZD7bwUbV/oWTUUbiPhl1PgZ+FbGjUSTJRs8tmBPcrpI3LrsllO82tvpeJMgIsZNLEaKJKqr1sWe0GQI/gAUAZecYWKi7spuNCrt+vAdrFv15zK18hYihO44MRPnSZWqkLhZbKZOaGoelxnv+tKtg14vwOJsVm4L5WtkPuB92dxmacxdMYD9wZfDfDwBFO1y+nIHMOJ9ov8nDmTKjf7bUw6avf7V6cNX7eytLHk4CLZDyeBklpvF650nOw4wYPA9fKTCSGpSGLZ17CXT49HGjhqSyoFz+o2dU5AQhhEx8fy8wHxxHj1oQotMUCkfKdWDyXBMdnfOjXBKuaNfOGIsTf4oBrcd77PfYHf0oa6MvufruLD11aEM2X9o3JkyBhklsroRz7PU8DpE8mpvNvgYW0Wb+geckkzY67XI0n5G8brM8hZapv76IveiWrKmf60UIFI/R8CERk5gNAHx//zgn/Bo4L17EwUSOIh6572KW56LqL40FVYAFFcCj0vFAcF1pZ+TsnfPEDvQ9GYyQKg70PZvwMuh4g9vbdkK+MjCeiif7mukaDMTgcFzrUuk667TAjPgpwqqVDnTNBGIy2w00nJ8zqvmPn+d9NLzB5OXAM2FnOH6a9xYtfv6f4jAwQOoaWjd66Zj7WUisdtivMr0wmr0yjDTIG+lqfT0XhY7QcNQ2us5wdZBVo5icO7hpxrx887zq42dxGygzlDpsyIxWMqWSVF3uq9vUO6l0X1nmGeL/aT+9U/1b8TEL3qXOwQkQZIcEjluwiE9O6rBw+M1CwiMtewTPTuvjo8Nmxo+04upa5R5WJ02FNH5Qt4Xjzyxioo2m9x2RHtzO4Rp0YHoG//A8Xg9VaRJwyE4llkdH0jDaunf8CNv+KjEMwaTq0v6/j665KpyWXP/pbWA/lC28Qnl4yncV0Ubpd+bqvfEnXWfl2F6W/bx/agnbYGKrGIzIMMM1SeTporXgsSyZp6ipap6H2OTSO8MfVR1BMpWp5PTrIverDWJoPQ+LYNyz3q034gd7bwMyJxHKdRh7CPA2i7Q59ZmNjjgRMmwJrO+ZbCjB8VeWt7dDJHfvfGR8XhwGG1TfE88U/Wf0qrwhlpmBf6wtzmc0nvD2ox4uZtIJUjTnx4JzBfc2QB0tY5zlEBvYpjAZGIJxuOqY1gYWO6fmrx57Q4aaaNfOSeZ8X6LiwD73fHqJio+G7LlV4MGPIDLLaynkWA83YbYCtC+fEHFLCDflauI8G2wtQmRxw8e1PaAgWQcq1v8N2ZYC2Q1sWqG6ofB+hcLURqC0PZeQZN3Dp8d10WEt1tz8YpizLgdbTGqEwVtVUZZBQrNqhulG0J1Gx4VzLduyOaGIS/BW9y4X2NFI2/4qMW8eCfB2ew9IlaXR+rpiSXL/uIMFcjt/RlJm8QiMr//Qssvq5enscM9OVsKlPL8n08vVIix6nOhsDxLNqlq+hm1J/qq9Q3uPE/uA0No1kONbOG/RFz2R6EigLYK2vh/IcGPAb3UOho9Vxl9Ql/kPkHrc7IWGyWhaPRevrER9FjOqYD/D0kkdI9Vc/OmqAABOsz+FBMYX7sN7BxIfmaPYPx3zwJjLz4V7gpNv+ABl54+j9ixOb/QEyZoDD/kPImo09P8Cj0Wr43J+x3cvXw9U2xMaHEzY3n4oLVwb13tTFpkIej+nkrD9TqOUrWDD973x+2Ffb4acNvuZzl3CyaT0vzvyaP2W/wYkbT/DL3/reaGrY5F8nhRDqB7LFeoU9jzexzs+i27pmPomV8JLtHBWFPvVWPcXNo4P0XTBOIwoHd1Wpabw5D99AXx4ySFiYir1Zsbxw9jqIKQgzzD/hn6eWge/X8PsU7i0R13jEZc/gYYB0E79Jd+1Vw+bGLmDmVIB0nlnjLuTamUo16tXYwG1LaC3Fqi42vB2xihUVpe0Q9Xst3Py4DkOJug8H3efbwGtxlUpKeTUpgOLE5dJwWGjdO43ZJVvJynQd63HyCtYnlFKzaxaXNiYHfEEG01QEMoHSY+oUqm64TuaD16ooX1iUuOctqvDlY/amOnvr/rpjLPaon22HqHf56dh20m2rJkU1i7NXHcJeMMerqnIfuK6lPudyhYucONnK6+ZaXjeDr+Nr4+etLDWn0WlZP6DmxKy3eD1L+buv/g32qV90rx1awYmHallaWctSNOV67OED0s+G6i5OFc2heRbQ2UZp0yNsUkt3/U8Xy4pcTsp3+bTpFqnRPvUbbtG8ZBHNS8DjrNyD+XCUp120ZUPB23lccVZ2OTK/S1X9EVapDsydljdoXLJhSL2FxscUTf0d9GgVjp88T1r0IlZuXoTLWMjtBN70JQeSXWV3+fRwGxSp6pqedj7unMZKlxlbZxef3vZR5TTZ+HTuHMo2T6NM027QPofC4nJeN6d5th2f8eFr2vsyvPng7Ty+UjGraj/A29uPRGg+hMDLXGoi//5fD/l3+B40D5D6qOLT0YiDklceorf5m9B9HvuGwzNmU/RfsyniB+re64BXvEUPS811lr2SxrF5MNC5fLhJ8A6Lu3g9275G4/idgGl5AncCaTuKnmD8V1VY/Wo7Elj69Xvqte7kxGNqmN1N69n2rz/j89JyuoFucxWPfb2ebZYqtrpMs+jnmgNImMzi+HaO67S6MlWc4yVC+IeWmUi8vI+GXVa2HFUX0IX7KPj511T5ldh8AteUVGNwv1u830nY6ujum+FVOyrTs7Zwnt/GJZeZk+V5LsdWa9YlWsf0YH0O4Twh8Ps1BLr6FO4ZP0lITPrHvR5EKNLSp9Pa8qPI7jFq0WseFeq4QGF4B2N+pRVE/NUJ1laousOJYiJXowp2o4jF5bxuZkAUnozNtcy7HuHFkyCMNgLMB0EAVGfyOM4+5l9g0cPTSzIpM347IuaffsPBC8IYYoSjWgmjlXCduQOVh9KMDEcf4dT98aOYUPXVvyGLLEGQ+SBEFFdY71sc2D4yPmfvmMRfQRjbiOAhCD8S3DkN2g/wtmg1hPscmQ9C5BlaRCtBuB8RUytBEARBEARBECLOCES1EgRBEARBEAThfkdMrQQvgkWYGi3+E0NxXBcEQRAEQRDuDSJ4CAMIFEkqEHrC4Q62zWD1AkXN0lNXEARBEARBuDeI4BEpcnaQVaCm3nLn0tCBcROzS2LpVnNzjEifPgw2r4a/XB56Fv3h1tPW1dbx/XtQGDcxuyQH3LHJRzlqboPgGZxX8FzlcuzbV+hInKZEZ4lpusgiu5HmJVF8evg8G4bqNznrFzQvmaT83dnGDIu2wQj16YWSVdxwNJm8MtzXOQqgr46mbTt1JqRSsvze1Z1rRUPYfQZnSkk1ht4xcr8KgiAIAiMkeEzPX032VHXj6ln2V7uyA8aSXWRiujsBcT9ffXQEPwnOxx51r1Jf58r1MHb6HCtaApeQ4St0+O4fvSiJC8ed1pmoMOL0c/U2mky2Tq4NhwDQ9CUzmtQ499G+hRHqU0thLrP5hLddeaRsO7m0fqcipC8c5r4CcS/6FARBEIRRSOSdy9PzyOYs+ysq2V9xlmtTF2ByJynv5czhSrWsko9aYPrc9GCtjVpMFefosJbe62EEoZQa2zkqCgMf0WG7EvLfvcY1Dq3Aod12CR/BxqpkLs/33mnbyaX1+WPn6/Gn63l7dTBtR3jY7f3Q+z324W02rD79Xic/BJt7W1Y9BZ/XYh2GcUaK4TjPSPUpCIIgCMNJ5DUeLTXsb3Fv8M3VBcycFAsMVGvEPDiBv98eySXP8LDFeoWX4j5h3byy0AcDitlGseZLbxuXtaZVfb1gPkhWpvKJ2Oll/uNd16nbNKiMvI0GGnZdoSZFNTvxQ6is5PcaPYkJA5+DYnaTe+MDEjVZX6eUVJNiVP62V3lrIKaUVDOpt46ozIGmMuPNB0mhhltpxRgmAjjodpni+JrMabad5oPMUq8tBdVkFfjUDcoclr77FhnRSp3GAWZUK3iuciUJ7m2HTiGinw2/P6X+3c6i7T7FWpMpwN50kUUn+wFVmzFrnN+yofT5jmkDhgu76bCmk2jyf8MGn3ulzP/511SZ9Gf41d4L4Hs/9OI07CCrxL85o1fdQZhUDeU8nb1G0sq3qs8DzXPEuInZxdDdOoMUP88RPX0KgiAIwnAzwj4e6Tw6tZ+uBo3QEbuAomfS+SeA/hY+qh5LdlaahaxuoQPAQut6z4JlvPkgKeYMbroEiIk5pMQeon69RV2wPssUSyM3ySBhax539+ZTbwPFXOdlEow67c6PrmXu0VJqbFdoeGQDc9cEX5CN1mhR4Tmll1Jje4EpJzZ4CR0AN/fmq7/tVsYxkJjMGXTvzeeSTTnGkLPTvRiNyizGWZXvMXFbZqYzhG/NHcvz1FvCNbW6yInXcjmh+m94owgdWHJ5+1PXtusY9V6d7FPlrx/oWHhOYPfcKD49fMqv/8Xxk+c5ftK1FY9ls5GNJ79k12BOyy/VrJlXzRbrFTouGFg3b61GcxF67pkqljPlxH8OKsuvci+oGDcxu3gT4+tcAkQqKQvraFr/KndUn48Eo4VOm3LtDb3bqN+rzGHXnNb3USD884wpyKNbfR5MKanG4PMcMbCN+vWNPs+RUH0KgiAIQmQYQcEjluyiBUxosWLVyha9ZzlccRaAuOwVPFMEHx0+y42RG1h4FO6jYddT4GchGxp1ATtRs8tmBFyLlDYuuxavttPc6nuZKCPAQiZNjCaqpBqDpqrdAOh2eC0jz9hCxYXddFzIHbMLjmDhdAcIJqVWOlY/RktlMnPD+LjrPP9bVbBrxPkdTIrNwH2tbIfcgsOdxmacxdMYD8PiPDxoFs8lwfEZH/o1v1IWmuHRzzXHOFYWLeKUP22GjzYE7nI1Hhgmf413TMm0VJxjj+0cuRvnswY9c6+Ul5bCpY2DO+fxWm0UAG1E4bqeDroPuYQQC7dsxUwyALYMYtKiiZq4laxMTVWvOR2acM7Tc2/CzeY2UmZ4P0e6XUKIbSeX1uvo86ju4QqCIAjCoBkhwUNxIp/WZeVwEM/xG2eaubYmkRgY/YLH0bXMPap8jRysucJ488sYqKNpvcdkR7cz+JCj4gT+8v+jpcxEYpl+Tc+Pk6FoPGCX5RS7UMyqmjeP00SoiseyZBJtJ09hbkLZ3vzIsI7cbWZkdAnJOuZeaSbpfz1G3mAW0sZNpGRC9958L3M5feg1lQtMWOc5RAb2KQiCIAiRYwQyl6djWhNa6ACIy57Bw/16bdJHA9WsmZfM+7xAx4V9mHTWioqNhu+6VOHBjCFzQLgfDznPYqAZuw2wdeGcmEOKOSO84Rbuo8H2AlQm+118+9MiaB21R4vZVXjjLCPPuIFLj++OWBCAKctyoPW0RiiMVTVVGSQUqz4ibhTtSVRsmNfSH5036IueyfQkUHxBtL4eyr3qivjl/jfIxezxk+eZcbgLe3QUTwPERxHDXa6qU/vpJY+QOlznQz4VF67wEh+QOEAzF2zu5VNROJnaDwe5UDfEEkUvTlV4mLLM95ppMG7CYGzjVh0o1zIaQ/Emxg+uR894wzpPLRkkLEzF3qw3hHawPgVBEAQhMvwkITHpH5HsIC57Bc+kT/DZ28OZihq+0vp3gE+oXQ9p6dNpbfkqksMcMqaKc+yJP+ZeyA002cDjjKqN64+D7vO9GGIv+imDAY7nQcqD9kkpNbbldIcwpwi0eB+M8BGub8hg6g1lnFusVyjocWk+/Ji94XEq9s2VoN0e8HsHcTa2Vx2CgjncCngt9X4x93UeV+q6nMwfLj7CqixlTJ2WN7Av2QDv68njEQwl34ZHoLjrlW9jo3kRK10D6uzi0+jJUK2U+zqeK8f45vPwj/d1Cozv3KPUSkfhVf9mhNpcNy7cWkTve8F5vg5nZqx6zXwDQvher4H3kdsxPWif4Z+nryO8V6CJEPmA9PYpCIIgCMNJxAWP4WAsCB5jHb2ChZ6M4YEYznqDHWckUEzkasJO1ChEAp+EgYIgCIIgjBokc7kA6Dej0hPOdjj7C7feaDELE0aaoTjRC4IgCIIQSUbAx0MQBEEQBEEQhPsd0XgIQpjcsTxP/b0ehCAIgiAIwhhBNB6CIAiCIAiCIEQc0XgIXgRz+o6U34Q/h/XB9DVaM6wLgiAIgiAIHkTwEAbgbxEfTCDRE6HKX9jbYMIOq9H7AAAgAElEQVSCts1Qx7nyeIjwIQiCIAiCMHoRwSNSaGP3++R3CEqI+PsR6dOHwYS6hcELFa46/o4bTLhe7bFDFj7UnBpocyGMZhaX87o5jU5LLn/8NNBBK3iucjn27XryeCi5OmKaLrLIbqR5SZRXro57wUbzIlZGd1H6eyerXGM72T+sfQTO6TK4TOS++V70E36fwZBQz4IgCMJoZEQEj+n5q8meqm4ESBKoHNPPVx8dIUSC87FB3avU17kWAGOnz5HUGgQSOvRoMfyVjS3Nh7LgHHdaTTJ3z+nn6m00CfKcXPMSOiaw+9dzWPyga1uTRDA+iVNF09x17W4BQSPMnOz3tEEXpb/vZfGv57DY4UkmqCQivMWB7V+yC2h13AVNfka7fXiFDihl/s+/psrkCr/bSOe2fDoxk1aeN8x9BeJe9CkIgiAI94bICx7peWRzlv0VLUA6pjULMKW3YNXIHnHZK8imh2v4ZjgfOwzInjzqCJ25PByTqaHgKyTo0V5oEwj6G692f6Cx+s3abNvJpfU7wz6XEefT9bwdUNMRPnZ7P/R+j52favaqmcs725jxe18VSDyWomnYT55iUZPr2DlY7KcwNwG3b2GPjuVp+jkeH8tUxy3sbmHiFm1MZiM97CKeedyizXdADifH6WfxbZiq2a17vhXuo2HXVKqMJt7xKTJVLCf9r8cYzcv94TjPiPUpCIIgCIMk8oJHSw373UJGC99cXcDMSbGAqtaIXcDi9H7OVHTw6JoZER9OJNhivcJLcZ+wbp7eF7WZtPJizdflNi5rTav6esF8kKxMZYXm9DL/8a7r1G0aVEbeRgMNu65QkxI4q7Nev4uhMlhthgt/gkogAWYgSlbr3BsfkKgROqaUVJNiVP62V3lrIKaUVDOpt46ozByiAPrqaNq2kzsomqUUariVVjzQVMbXZE6z7TQfZJZ6bSmoJqvAp25Q5rD03bfIiFbqNA4wo1rBc5UrSXBvO7CHahKAfjb8/pT6dzuLtmuKZk0m9XYXpZaBdldPL3lEEUiaXHt6+LDpEcqS46E3ihi+52PHT1kcD6T/lKtXvidmLsAEpj4IFxpg3iyAyXDlW0iY7G77+MnzHFf/9oxNwbpmPunWK3RcMLBu3lqs/k6p1ErH6snUbpzvZzGeT+7jUFumf3E9XnvdGDj3nL1G0sq3qnPTe0571/WZ70EYynk6eyFha7UfM64MEra+DKebmVQw8L7W1acgCIIghMEIh9NN59Gp/XRddtlSxZK9JJ3+MzV8NbIDGSbyqbhwhZf4gMRBvaAttK7Pp17913Q+FoM5w1M8MYeU2BqlfG8dZD7LFEBZMORxd6+r7jZupb1MglFnt0fXMtf4Aay+QkNFfsjDh1PQ8CUcoWNolFJj283szzcM+JJ7c6/yW3b3+a8ZkzmDW65jyMGQ4ymLyixm3GnXdQTDMnPIkdyxPO/uz17lupZ6bfsvcuK1XN5efYDOAWWK0IEll7dX+x6j3KsdNp9/1tKQPT4dE6VqHgaSFj0Ou8PbBOq43QnRUTytbre2fM/U9HgWR3/Pp01O7A/+lDTXwU3fQnI8G5PhQlM/V29H8XC8nt8B3jEls+7zWeyxWdniU2aqOEfHanjfGEDDV/oiuTeOBdT++UO5bq7rdQine14qxBR45uZlW6pnTufsUPwtXHWrIKUk9H0y1PMMfm9GY1gIl9f7v6+D9SkIgiAI4TKCzuWxZBctYEKLFasqd8RlL2Jal5XDA10+Rj+F+2jY9RSc2OD19VwfWodSFZsRcH09beOyyynUdppbfS8TZQRYyKSJ0USVVGPQVLUbAN0OqWXkGVuouLCbjgu5o+KLZiDNRSD8CUS++7zaKbXSsfoxWiqTmRuG9Yjz/G9VoaAR53cwKTYD97WyHXJrSO40NuMsnsZ44M7guxk6i+eS4PiMD/2aYFWzZt5g71OFtOhxQxoWPe1c+OdFzLtyiuPEs8q7kA8dmWziKxYBuwfZtHXNfKylVjpsV5hfmUxemarV4hPWGQPd2/lUFD5Gy1HT4DrTBm8AwMFdI+6557lP4GZzGykzlDk9ZUYqGFPJKi/2VO3rHdR9EtZ5hrg37ad3qn8rfiah+9Q5WEEQBEEIwAgJHrFkF5kUIcPtOZ7OvPQJ/BMmfpPuOfLhZ1YzPYAD+qji6FrmHlVe/h3W9EHZQ483v4yBOprWe0x2dDuDa0wiwqOUGtsLTAlLYBo+AmlTAvltBNsOKbCUmUgsK6XGdoWGR3x8O+4b1IXqZJ/df/0g5L3b6rgLRkWD4av1aHXcZWX0BMCj9VA0JN9yPHYyZY5vOQ4ct3ibShEfRczt72lFa1I1eB8vU8U59iz9lveNyaqZkSJgmSrOscdmJd2fz0NhLrP5hLcHtZA2k1aQqjHFG5wzuK8J32AJ6zyHyMA+BUEQBGFojICpVTqmNb5CB0AL1opK9rv/neUa/Xz1UeXoFzrcVLNmXjLv8wIdF/ah9/tpVGw0fNelCg9mDBq78QHkPIuBZuw2wNaFc2IOKVqzrMFQuI8G2wtQmex38e0viZ/LJMe3fKgkGpO9/mnb91fmy2AEF4Uy8owbuPT4bl3mReEwZVkOtJ7WCIWxqqYqg4Ri1ZbejaI9iYoN81r6o/MGfdEzmZ4Eii+I1tdDuVd9f1s9AvPxk3+j7cFpbFoyUDA43vIt9oRH2O0yj4pPYtMs+PR/Ih+Hd4v1Cnseb2Kdn0W3dc18EivhJds5Kgp96q16iptHB6npM04jCgd3u5XN8eY8jY+WLxkkLEzF3qxoLZ29DmIKdniZZQ2GcM9Ty8B7M/w+BUEQBCFcIq7xiMuewcMA6VrNRg9nKsaqX8dA3jEl01Jxjj3WUqzqQs7bmbRYMbNQc2vc/LgOQ4m6Dwfd59vAS+ORSkp5NSmA4ojq0nBYaN07jdklW8nKdB3rcVQN1ieUUrNrFpc2Jge1a/cVMrRmUNrt4cJff3r68hf5KrSplvKVeIv1Cg0VLX5yN+B29tb9hdpY7DGhsR2i3uVsbNtJt62aFNUszl51CHvBHK+qyn3gupZ6ncu9nccTNteS4XYyf5eq+iOs2lxLBtBpeYPGJRt0nEQoejBvB8vmOTTPcu1zhdNtZ9HJn9JctIhmtaTt5CklzG5ALV4UD8d8H6BsHFNjgRByi6ninOpbFURwKjOReHkfDbusbDmqLqAL91Hw86+p8vuVwCfoQ0k1Bvd18b6e2Oro7vMOhhGV6ZmXzvPbuOQyc7I8z+XYas2c1jqmB+tzCOcJge/NEOjqUxAEQRDC4CcJiUn/uNeDCEVa+nRaW34sYsroRK9gMZgEf774q6cnitZw9BcJJEnb2MNvKGVBEARBEEYEETwEIUxE8BAEQRAEQdDPCIfTFQRBEARBEAThfmQEw+kKwo+LO5bnqb/XgxAEQRAEQRgjiMZDEARBEARBEISIIxoPwS/+IkQFcgjX6/A9XNnKtccH6zvSzuWCIAiCIAiCfkTwENxoF/H+FvahwtvqbdvfPq1QEzQLOd6hdAeb50MQBEEQBEG4N4jgESlydpBVkKr87c6loQPjJmaXxNKt5uYYkT41+FvI69EchLPQ1yPIBGp3VGgzjJuYXaImBhxyRvlhJOk11m5+EurfYN+hiwEPy9hcy7zrwY9xsdG8iJXRXZT+3smqzanENF1k0cl+P0fGY9n8CFcPn1dyeYw64rG4xm830rwkSs1Hcq/GM4el775FRjTgzscyHO0O8TxnxnPglYfgQisrf+ccjgHpIIqNe9LI4Tr/sa6HQFlHMv5vOv8ec53l/++7EO39jO3/9RC977Ww64vhHusYIj6JU0XTsJ88xYcxmZTNcnJg+5fsGs4+CvfRsGsqVUNOOKnNq6Q3t9FoIZ+KC7sxHE0mr4whvB/MpJXncTesc4/M7ycRHIXhZEQEj+n5q8meqm5cPavJTJ6Oac0CJcEg/srHMHWvUl/nmrA/4j5V/JlfhZMTRK+QMyoED9tOLq3fqQh8C4e57ZwdZC3sHTXCTKvjLkR7tu12f0LHcBMJIaafq7fRZB13cm2Y2n64+AirHjrG29uPDKLWRU68lssJVvBc5fLhGQgQyfMcfdwLAeNJXvy6AAPQ/f+9wh92qrs3rWfbvyYMOFo5xlPHi6+q2Gr+LHJD7XFi127f/p7WYe7C9NQsOPGfw5DlvpHObfl0qovvYSXSz9TCXGbzCW+78m5G8v0QkAj+foIwTERe8EjPI5uz7K9owSVomNJbsLpli36++ugIZ3ojPpKIYqo4x574YySaRmu231JqbMvp3jhfV+ZyCKx10GveFMpMS2syFcinJBICxo8+iVz7u+xb/e7wt+twcpx+Ft+GqaGPHtXY7f3Q+z12fnqvhxJRwj7PL3pY+S8jLak42bXu0vB+iY8Ey1fwatlj/G9pFZQVeJftLGfrTu2OJ3nx60V8+78An/GHx7wFjPmW91hwoyPCAwa4y9VeOI6TMqN2v773AgR7bpby0lK4tHHsPk/1vhOCvee3rHoKPt+ANVKDHAZ0r1OGTYM1FtZGwkgTecGjpYb9biGjhW+uLmDmpFhgjEsaGrZYr/BS3Cesm6d3YplJKy/WfI1s47LWtKqvF8wHycpUPjE7z2/jkqXRb13vsmCUkbfRQMOuK9SkqKpgPwTz7dAjCPg7Vq9/R+T9MhRVeO6ND0jUvmC0KnEYYKY2paSaFNfLejAqc5927VX5tNZ5ir3add8D2uubyqzyHL9jCkTG5lqWJil/d1py+eOngcsB+q7rORE4fvI8x9W/N/z+lE+pYtaT6t6+y1VN6UbzIla6PgLf7qL09+0cB55ekskm/sYXxlQWP6jUc5kDaeukFi2iGYBbqolIPJbNk7naFMXiWeMAsHuZfk1g96/nqG169wn9mvG3s2i7vvMH3CZsE13b7QcU7YbX/pW8XrkSgL76N9h3KInnKleC9losLud1M5xYvT6gOZGHFTxXuRLXz9cXwnzOQ+DzNP/bbDLs14md9xDR33RwmESKHoW2o5fYfEwpL3pUOda1z29dgNvBzaIUoti4JxE+9NFILH+UYzMcisnU8kc5Vqj+st90DDCjyvi/6fz7vAc8O77xjMc11tRXZqPMlj4O/8s3uGfLE49y7BWlbccA07FSamwvkP7XD/QvjI4dYccxgCd5MUQVw28XYfjqFH845qdw+QoWTO/krLlTPfYtfskp/ndmAY/HAPydz0vfwHpMKXtxMe5tRfh5AodW2zLrFzQvmUTbyVOYm7Qd9WDergqRPV8yw6tMz3shwHPTRWkm6X89Rp6X4KI1+QHfd9x480FmZUb7LQtOiPef1twY1zM39DP1HdMGDBd202FND3gfBH/PlzL/519TZdIvfHk//33fD704DTvIKvFvOh3u72ddM5906xU6LhhYN2+tfyGp1ErH6snUbpzvJXQ4eyFha7UfM64MEra+DKebmVQw0LRMV5/CfcUI+3ik8+jUfroatELHBKY/s5rpwNjTfmgeyLqFDgALreu9HyIp5gxuuh6gE3NIiT1E/XqLunh9limWRm6SQcLWPO7uzadeM+ETjDrtOI+uZe7RUmpsV2h4JDJf/P0JFP4IJsD4OpoPj9ZDWWBMObFhwMtzyrIcnFX5XKobWGu8+SCG3m3U7210b6eYM3QIe2bSSmLpXp+vvhDMpJXvYEqd8oKYUlJNys/qaFrvK8So90aYZgGN23NpVP0GYnzKMjbXspQDvL36iHt7nlq2xXqFl37uU+HbT3S8KBShg5On1AWNYh7l4uklmSxzXGSGpd+9vWlJL8dVISFmVipT1bpPL8mk7J/jwdLDLsspVcAIZGo1icXGLkq3t3M8PolTRUY2nvySXarQMdN2kRlqHxvNiygzOzluGdoX/IxnnqTPkss+H2HOpWHyb2p1kdP1y1n1+Ar4VP3dH0+jr/4NHULHHJa+uxz79lz+2O7a3sDSpBWcaFefPZN9quhcQKfOG8fh966z7JVEll1o5TBpLIuPApxY/t8lLKq/hT+LzdR50dS9d4ldXyjHmJf30OhvYe3GSbf9ATKmAcRzYBXsXdcD8Q/gsP+gHHLsG5Yfc/lveNfO+L/p/Huqg//4F0XA0R6jjDWYqdUD5KQ6+I9/+YZG1W/F/DuNUBJRnmTpYvi81L8Z1fyiJ+DTcs5p9o1fXMDk/+8Vtu5UhY2iJ7Ee+4zul9/gD799ixc3reDzY+d5fJOP0DEUgr4XAj83FfKpKJxMbZnPPZfzLIbvDlG/zc8vnbND8RdwvQNzdpBVYuZmyA8rId5/OTvIKoile2++z/tQzzO1mjXzqtnid4Ec+j1vqljOlEGamt3cm+8RFoybmF28ifF1rrGlkrKwjqb1r3JHNZtKMFrc5xne76fwjimZlopz7LFZSffRaJgqzrFn6be8b5w/4FyiMotxVuV7zLmXmel09xmNYSE0rc/njkvozNnpFqSC9Sncf4yg4BFLdtECJrRYsboFixasFR5/jrjsFTzzTB7fVdTw1cgNLDwK99Gw6ykI+EAOhu/XIMBmBPdSpI3LrgltO82tvpeJMgIsZNLEaKJKqr3shO0GQLcDWRl5xhYqLuym40LugIXlULQOg/XX8NdXRHw3Sq10rH6Mlspk5vp5bzh7HaQUVJM1w1erkEFMWjRRE7eSlanZ7XWtApAzhxhSiSmvJsW908FdI2AzM8nooHvvSPpvrCAlyUFjAP+Dd0zJ4b0MZk0m9XYXpU3+Ciew2DiOmAfn0DxLs7tzAqBqJzrb3F9nj7d8y6b8KJ4Gt3YlMHf5tFrVYvQ4sTOZh+OBnglMffAWH2sc33dducXKuXrbDcz16w6Wmmt5/fEDg/LjuHboGJ2Vc8ngCI2sICWplQvbdWgtkhaRFB3NxM21ZGh2dyYA7cpCKVwcF65jYSLL6OPj3znh3wZTt0Nd4DvptsMMVWBxO4e7NE0azYPN/oMq2ECvfRw5M6E75gF6m0M5rkeRk/oAbadCaVUC8QN1H6p1v/iBXqIxzATcAkoZecbImIAMRtvh5qsqtzDR/enX3NkUp/iRAN0vv8EJy3u8+PUT3Pm0nB2+QkeTrzZjMPh5L4R4bgJQ+iK5NLHO10yruxdnQTFZ5XMGfI2fMiMVjKlklRd7dvb1Mh6CPw+Nwd9/U2ak4jy/bUjO1J4F8jlyN85nDXre8+GZmnlrLQDaiML1GzjoPuR6P1i4ZStmkuY8w/r9NFjXzFeur+0K8yuTyStThSs+YZ0xwMcm2yG3IHGnsRln8TSvPu2nXeNV/ExC96lzsMKPjhESPGLJLjIxrcvK4SDqjBuXu/h7enTA8lHF0bXMPapM1mDqWX+MN7+MAc/X7kE5gw85elLwL1h68mP4I5Q5lbbtQPsiZmpVZiKxLLCm547leeotKF+Oyot9fuMhRAYJM7LYvSB8jUco7t7jqFHDx7VDK3j7EIqpVOVKcHzGh6+9y7WQNY9wuX0l84rn0Hh9LgntDfxRb6cB+xiaxiMyBPbRaOz5AeLBPGMcjTV3yXjiZxDzA71dIz7IkWH5Cn4ZUNuRgGnTQG2HXu7Y/874uESgM+Sx+vHzXgjx3ATYkvkYLUdNA58RLsdqzKSVV5Pi8xz1NTvVTYSjB7rNqdyLbx3veb+mZiEwbiIlE492Ro1mqZewfz8Vj2bD9cFJ+ZBhiqBWYmCfwv3KCGQuT8e0JrTQATB9bjr/dLVj9Gs73FSzZl4y7/MCHRf2YdJZKyo2Gr7rUh+eZgyZQYStnGcx0IzdBti6cE7MIcWcEfj4YBTuo8H2AlQmhzSzCkfz4Mqr4arr+/9g6LBdGWbn8jLyjBu49PhuOqyl/g+pe5X69YewT4xV/TIacX4XjaF4E+MH2113L05jMWk5/got3LJFY1hmDl7fPY7hoB27I5qkzDmAEoFJ6+vxjinZ6/olGpNJ1CN09H6P/cHJLI4HxbdC6+vRzzXHOBbnJ/G0jhFu/OdpYOvVaCX6uXp7HFMHFaGtn6u3J7FsyQR1ewK7507C7tXuEPl0PW+vPkBndBwPaXZfu34DJk3zjtKn0vjRZzD9Vzy3JI7Gj3RqS9q76It+koLiOX4KlWfPgGs2Wh04u+5CzENk4MDyxQ+QGk0sP9AdMgqVolVJnfEzZXP5o96+HgD8QO/tB4idFs7AlIV1wGdCmMwveoLxX51S/DF82VTI4zGdnH05uOAwv+gJ+OI83eq24bdvsZQqdmR/wOdxBby4yadCfBKnNi/ilPve10nQ90KQ52bhPgriPuH9oLechdb1+Vy2RTNOVVM4ex3EFOxgyuBGGfL9d7O5jajMZwO3G/SZmk/FhSu8xAd+nnvB3vOqqdmHg5x3hlii6MWpCmJTluUEftYbN2EwtnFLFTTC/v1UtlivsOfxJtb5ES6sa+aTWAkv2c5RURi4jSnLcqD1tG4BMFifwv1HxDUecdkzlBdxuonfpLv29nCmooavfMPpjtFQum71rLUUq/ri91ajFitf0tUv4Dc/rsNQou7DQff5NryNqVNJcZvotHF5vUfl2rp3GrNLtKY/HseyYH1CKTW7ZnFpY3LI6CUuwln46/XxCHVMZMLleux4Gypa1JfsQLM3e5XH9vbm3m1Ebd3qcUhE87XJy5FRdVp0fZGz7eRSVSxZBdVkuQLfaL7Wudr1qMt9HARtO+m2VXvuA13aE21OCMBcy+tml5P5RU68/xlJm9/i9Syg/QAf1i+nIFhzeuhpZ2fTZMpUB/C2kxf5dO50d/Euy0Ue/vUcyjZPw/Vq9nJ+TUilebP6G3a2uf0yFPrZ0HCL5iWLaF4CHufyYPSz4fdtWDZrzLsGtBsOPr8tyu/qZf7z6X/TuOQtVlU+Cfg4grefop23yOAzTnvl6fB2Hk/YXEuGO5/HEf64fRprXdcMgFadTunh4mMuVTibY4UDnczD4tGJxF64DjhptCdSFHPd7Wvh7TyeyLH/SnQ7mVv+XwcZ/6Xuu32d/zgK/z5D27CTXaf6OKaOdYBz+bDjExb3X99j27/+3cvxe8H0vwfWdixP4E4gbcf0ArZ9rc7Kr6rY+rLH8fzFxd9xQo2KZd35F14te49Xp5WzwyXAqGFzU42xPE2/TkFbz3vB33MzeBSnAWZEtkPUu8x0LM9zOVbzbEPrJO4TeKWkGoNbWxL8/UfdqzTFHmSWpl0vzUCQZ+oW625mfx7cbNrfez6gqRkEfz/U/ZnuhVvdY3Ger8Nu1C4CojG4TcqU83e9G8L//RStgyJcBRGUykwkXt5Hwy4rW45qBAVjsed9ZTtEva6gNjr7FO4rfpKQmPSPez2IUKSlT6e1ZezoQcYienJqBNsXTEjROovr6TOUwKOnL3/9CaOLp5dkUhb9N2YM0el7bKAILklf6Y1KJdxvGH77Fi/GnRpCTg9PYAX/yT2HkWEMtzp28UkYKAiCLiRzuQAMXKTrzWCux5wqUFmgPvWG7B1smSDcMxb/iozoVk6I0CFEAjWU7vBo93RwdC1zB+PT8KNkaAEeBOF+RQQPQRCESOHO8aGYT0XOREq4rxlSRCtBEISRQ0ytBEEQBEEQBEGIOCMQ1UoQBEEQBEEQhPsdETwEQRhWfCOVhZufJWJ5XQRBEARBuCeIj4cgCBEnWLQxPYkmBUEQBEEY+4jGI0JMKalmdriJ/u4L5rD03Vper6zl9UrvZHZukl5jbWUta/0mUAvECp4L1F4o1ARclllKqNfmzb9gYxjNePMse2oPU/pE+C2s2PMxJ2p3sSLM+hvNvknFJrD715nsjvd3dDwWVxKyWb+geXOg4/wTKESyNrGkL6HKh46SHKxGzX823nyQrJIgyRsFQRAEQYgIIyJ4TM9fzW/WqP/y0weUx2WvCFp+/2EmrfwgCUZ/ZRkkbK0OkBF7LHGRE6/lKhmg7/VQXKgJuNzc/p7WezUWXYQWap5eksnK6C52+ibmq/6WmUX+BKt+rt7Wbju5FkaaDW3uFlcW+nATUmr/hUVhLrMJlWFZL8Hnnwg1giAIghCYyJtapeeRzVn2V7SAmqnclN6CVU1QPj1/NdkPtvBRxVluRHwwkcNUcY498cdINEkmoWGj/V32rX53hDu9y9VeOI6TMr+C38hzZN0yjoRTMT6JTbOcHNjePjCLcU87O5syKTPHs8tPAj+7vR96v8fOT732b7FeoaBngzt7sZZAvh2+GhDfff7Qk9BSS7D5FyzD8lhAni2CIAjCj4XICx4tNexvcW/wzdUFzJwUC/QC6Tw6tYczY1zo2GK9wktxn7BunvfCwNlrJK18KzEAtHF5/avcRPkqOiu2hvq9FvDZnlJSTYprwVtSjUFT12k+yKzMaKWsoJqsAgAH3Xufp9MGytfYrRgmqvX76mjatpM7ah8pNOPMzBkwnpC4cxGozdZ7si9nbK4l5fpnTMxSyx2f8eFr73JNR91gZGyudZtLdVpy+eOn+sfkrx2/bQygB/N2dRHeMzAu/oo9H7Mq1bXl4LM3iyj7C/DEq/zpzTisuRsVAcF3m17+ZtzFiTfVym0HWbruz8pxr8AXvQt5MtXBZwe/ZObzC4l2nOaNFTtoeOJV/vTmQqIBXPv8jCXtzY95UmmYD919wsZ/ngZNF9kV4GyPn/wbqzY/wu74Hja4ZY9+Nvz+lPp3O4u2e9d5x7QBw4XddFjTByyEXdoN7baWQMKDP4FFTwZ7F4Hmn0Ip83/+NVUmb0HJ2QsJW6vVuaKZQ8ZNzC6Jpds1NzTbQecfm5hdkkMUAMVklRcr/ZzfxiWLkr3Da25r559xE7OL4dZ3ORjUcntVPq11yt/WNfNJt16h44KBdfPWjlkBShAEQRBG2Lk8nUen9tPV0KtuJvJwvwNH/mp+M1XZ9fcWK4fP9I7ssMImn4oLu8m98QGJfhY9MQV5dO/Np96mLDoM5gxuWoKnELu5N5+bmEkrz+OuW6BQsTxPvUURLsad9ixMFJT9k1q3UZ6r2aMAACAASURBVK9Z6Mwq6XILOFGZOTir8qmv0z8eZYE/k/btuZxoB8WH4i2eu+5ZyCdkzaRxey4n2uew9N23WLj4XaVMFQ76LLnsC7no96Zxey6NKO3F+B1T6HYzNteylAO8vVpdihfuo2HXU0z2Oa6lMpm8UB+Tn3gVU+xp3sj1LP71k8qq/NO8kbuRBp5lT20+pU/8mTKA6IXM/PJNPuRNVj0fx4dvnsb0ZhyPAg1/2cEvc3fAr3ZxIt+7RUULorR1wyUAeTGBh6Pv8sX/BMti3MOFzlSWpU+AHr3ZjpVsvVsGuRAOJUSE598RfP4BmCqWM+XEf/KOz/6ozGL3XBhvPsisZWY61XkSiDtB599OLq3fOeCjgospJdWkcIj69ZqPDVs34VQ/DDAxB8N3annODrIWbmJ8nVoGvGNKpqXiHHtsVtKNpgHnIwiCIAhjgRF0Lo8lu2gBE1pO4SVXTEgn2lbJ/opK9lecpT99EdmxIzeqsCncR4NtN7M/3xDQBMJ5/rduweFmcxtRsZG03TEybmIb3RpB4mZzG/xsGuNdO2yH3IslZ69D33gS4pjYfkwVOgCOcLkdJj7kcfjuq9+tll/k1i1P2cOZM5nYfkCHpmFwhG43mozNtcy7/gZvb9cYKR1dy1yNI7PrX0ihA+AvXdyIXshbYTmKO/jsPZfA8mcutEUTp/nybS1TNDWO038Kz6TKLxOY+mBo/4xWx92wWn/HlMy6z2exx3aOisLAx/n6doTjp+FXaNEx/6CUl5bCpU8GmoVp58Kdxmac2nky7GQQ9TMH3R97hJE7jc04J8aqGhKANi67hJXuXp8yBeua+SRWwks2j6O8IAiCIIwlRkjwiCW7yMS0Lj/ajP4WLrhNsew4+icQPeAT9yjk6FrmGjdw6fHddFhlFTC6cNC4/QB9WW/x3GLN7sJ9NPg4K3foXsT9mXW5y1ia+x688jEnaj9mz68iNPwxwBbrFfY83sQ643zWHA18nEu40+tc7muqFbCOnvlXmkn6X48FHd9YwlRxjo7V8L5eYVkQBEEQRhkjIHikY1oTQOho6eDahGn8H5eGIzaJaRN6+KZlQCOjlGrWzEvmfV6g48I+TAGPyyBhYSr2Zo35hesLq3ETKS67cTc27vZFM87gr61GnN9BVKxvqF4bd/tSMbhD+Cp9OltPu801wqLzBn1Jyz3haZNeY16Sg/bzof00rp3/wrvuMKGv3SP8cftnTDRrQusORePh5iJlK5bxxmkHcdO0YX5jeeQJgDmUvqL6ZfjjiVcxpbZx4b8H02cgbNxwaLUnWvq5ejuKh0OEwk2LHqc4kutGCU37Eh+QqMPMSitwhNJ6BHIoD6wlCTb/8qkonEzth6Ev7pRlOeA1T2KJMgJkkFCc46N5CDT/FO709nprGd11ojEs80S7mrIshyjbRX0+VmgFPTGzEgRBEMYuEffxiMuewcMA6SZ+446U28OZihq+ogXrmUR+88xqpgPQz1cfHeGrSA9qmHHbX1tLsWrMPqIyt5KVqfztPL+NSy7TDksN9vJiZpXnAG1crmojZYa2xUY6T7eR5XZg9XYEv/lxHYYSV9sux9hGOrcdYly5p09sh9z+HmHT/i77LOW8vrkW11Kr05KrMb0aXF2PE/gKnqtcSYK6P2FzLRk4aNy+wu0rkuFavZtred2scRAP2q7//pN0OrUH5Fe7OPF8qmfbcZo3Vqjt/WUH1raPWaU6ebcePEjr83M1laN50u0Arjil6zKp8uozlbdqF/o4mV+krLqNE89/zInnwdu5vJ9rjnEh/DfimZdwl6v/o+sXAGCLVTVv8hPVSotLgNAb0SpYFKtQjuZ+51/pi+TSxLpA2g6jxwHca57YdtJtqyZFDexgrzqEvcA7j4z/+acW1v2Z7oVb1bntcS6/uXcbUVu3evrsq6NpW3CfEheminOqoCdqDkEQBGFs85OExKR/3OtBhCItfTqtLWNNHBGEe0x8EqeKfsrH27/0G9nq6SWZlEX/jRl+wumGSzB/jkCCg97QufrzgChO54ajYpIkCIIgCKMJETwE4UfM00syKTN+S+nvfXJ5hBBKBEEQBEEQhpsRjGolCMJIc/zkeQ44prFqlnbvBHbnT+aLwyJ0CIIgCIIwcojGQxAEQRAEQRCEiCMaD0EQBhAs34Y2FLEgCIIgCIJeRjhzuSAIYwFtJCm9TuKgP0FgeJnKBUEQBEEYy4jGI0JMKalmttl/rH8BYA5L363l9cpaXq884j8nR9JrrK2sZW3xHD+FgVjBc4HaC0V8Eqc2L8IyS3HKbt78CzaqRXNLD3Niz7NhNBoc3e3GJ3FKMx4AZv2CZrP/RB2e8U9g968XBTwuGFrhQJv3RE+9YP/CptSqyddhJq38IAl+c5gIgiAIgjAaGRGNx/T81WRPVTeunmV/tZIhMC57Bc+kT/A5Wsnl4Ztr8P7CTFp5Hne1+QHcZJCwdSvjTufTWncvxjZcXOTEa7mcYAXPVS6/14NR6HFi127f/p7WezUWL+KxFE3DfvKUtzN405ccSF7EqSX9LDrpnavjuN2JNpKs3TGYJIEDCaTJGEnNxZbMx2g5agqZtFAXOTvIWthL07adfhJsBpt/giAIgiCES+QFj/Q8sjnL/ooWlCzmCzClt2BtgRtnjrD/jObY2AUUPRPNd2NQ6DBVnGNP/DESTZI4YNhof5d9q98d4U7vcrUXjuOkbJR8Td9oTiWm6SKLmgaW7bK0MW/zdHa3nGeDbzqO29/TSj84YKZ2f+E+GnZNpSpAFmytkOEvEaC/4/wxGBMthVJqbMvp3jifNb6J/wr3UfDzr6ky+a04BghyboIgCIJwnxB5waOlhv0t7g2+ubqAmZNigYHSxfS56dBiHXOZy7dYr/BS3Ces88ks7Ow1kla+lRhAm318vPkgs2JrqN+rZC7Wbk8pqSbFteBVsye76jrNB5mVqabzdmc112ZOVrQhholq/b469xfd8eaDpNCMMzNnwHhCkvQaazc/ibtZTRbwjM21pFz/jIlZarnjMz587V2u6agbjIzNtW5zKXfGcp1j8teO3zYG0IN5u7p67/mSGT4LfccNKD3yMU9GgysDedlflLIVez5mlSaxeevBZaz7b8+2d7k2w7iGJ17lT28uJFqbnTw+iWUJt/jYEkhj0cOHTY9Q9s/xoE0E2OQZ/3GLj6bk6FrmpljpsJ3D4GchHCgBoP4EfqHbGkDhPhp2PcXNymS/C3PTU7PgxH/6CEq9OA07yCpRf1jbIfecmlJSjaFXyRruvW0krbxYnQOp7gzjrrrB5t9NAOMmZpfkEKUe4spM7upjUm8dUZlquWb+QRl5Gw007LpCTYokNhQEQRDuT0bYuTydR6f209XgR6URu4CZU3v4onosqTuUDMm5Nz4gcd7AlURMQR7de/Opt6kLH3MGN9VFSiBu7s3nZiBTD8vz1FsCmVop+ye1bqNesxCaVdLlXoxFZebgrMqnvk7/eJQF/kzat+dyoh0UH4q3eO66ZyGfkDWTxu25nGifw9J332Lh4neVMlU46LPksi/kot+bxu25NKK0F+N3TKHbzdhcy1IO8PZqdYmvLm4n+xzXUqlvIRi98HniDi5j6X8rvhlv/fJZyv7yZwCOrFvmESSeeJU/vfIqc/9bER5W7PmYVbGneSNXFSb88cSr/OnNX/DFm8vcwgwAsT8lpvPboPk2jrd8y6aiyWykR39ejjITiZf3DWoh7OtwPmxmVqVWOlZPpnajf6EDSnlp6bdUGat99qeSsrCOpvWvckedMwlGSwjzKAut6y0BTa2Czj/jJmaXzODW3nwu2UAxydpKWq9nLsZkzqB7bz6XbOpHgJydnnl6dC1zj5ZSY7tCwyMbmLvG93wEQRAE4cfNCDqXx5JdtIAJLaf8+m8o2o6LY0fbUbiPBttuZn++IaB5lfP8b90Ll5vNbUTFRtJ2x8i4iW10awSJm81t8LNpjHftsB1yL4KcvQ5940mIY2L7MVXoADjC5XaY+JDH4buvfrdafpFbtzxlD2fOZGL7AR2ahsERut1oMjbXMu/6G7y9XaNXOLqWuX6cnXV/fW476NZiNJz+EkfsNOaqRXNLD3Oi9mPl35sLiY6O41EAnmVeqoPP3gsidKQ+z4k347DmFnkLHcDTMVGh/TN8fVP0cnQtc40fwOordFhLdVUZrNARKuzuFusVOlbD+8bAJkimiuWk//W8H7MwB92HXIKDhVu2aMYZdA0rPAyxRNlqNMKIhVs2iIr1BJHwzPlGnN95lymUkWfcwKXHd2sc5QVBEATh/mCEBI9YsotMTOuyctif1JGeR/bUHr4YSx7lR9cy17WA0LloE0YKB43bD9CX9RbPLdbsLtxHgyYHhetfzVAv3xOvsmEhfPbmMpbmLmPpm6dxDKZ+20HeOB3LqiOvugWZEaFwHw22F6AyWbdvUqAQu/7QE83qHVMyiZXwku0cFYX+jsgn93Go/fDHYptUSo3rg8W8tcPjKC8IgiAIY4QREDzSMa0JInQQS/aseP4+lrQdbqpZMy+Z93khxNfLDBIWpmJvtnh2uTQRxk2kuPw23Ni42xfo622gL6k27valYnCH8FX6dLae9hO1ZxB03qAvabknPG3Sa8xLctB+PrSfxrXzX3jXHSb0tXuEP27/jIlmTWjdoWo8NKz45UL48rSixTDGEU0vf/uLp8xzRf/MhbZonvxl8JC5DWVFfNi7kLd8QusetzuJifaN/OZDfBQxg43AVWqlY9csLm0Mfv5a7Yb2b73Chy7KTCRubGL2Lj9CYOmL5N44Ftoh27gJg7GNWxrzQ7dGL2eHx2/DRXcvzomxbl8NbwLMv+5enMY8Twhf4yYMRge3GkOYK7rQCHpiZiUIgiDcj0TcxyMuewYPA6Sb+E26a28PZypqFEEjfQ7TJ/RwZixpO3x4x5RMS8U59lhLsWq+HEdlbiUrU/nbeX4bl9RF0R1LDfbyYtWxtY3LVW2kzNC22Ejn6Tay3A7k3o7gNz+uw1DiatvlXN5I57ZDjCv39IntkNvfI2za32WfpZzXN9fiEmk6Lbka06vB1fU4ga/gucqVJKj7EzbXkoGDxu0r3L4iGa7Vu7mW180aB/Gg7frvP0mnU3tQUp/nRO3zyt9tB1laprb333/is/w3WVX7MasAx+nTtKbGuasdWfcmjxx501M3gHO557i5nvLe77EvCe6/8XT6ZGIcf+O43vMo3EeDat7kL6oV+Nds+GotAmkxwhJI3P4P56i47DK7yqeiUAmh659oDG4HcGUeeM+RYrLKi6GvjsvnY/GSI2w76bZVk1JeTQp4OaYHnH+2nVyq2kGWu0+wV+XrDLlbSo0q6ElUK0EQBOF+5ScJiUn/uNeDCEVa+nRaW8aePkQQhoON5kUsc1wckKtDIR7L5ke4ethPON0w8fXhCCZI+Aofevw/dPuIlFrpKLzKOjFJEgRBEIQfBSJ4CMKoJx7L5lQ4eQqzT4jf4EKJIAiCIAjC6GEEo1oJghAePZgPdxEzN4mntbtn/YKVtInQIQiCIAjCmEA0HoIgCIIgCIIgRBzReAiCIAiCIAiCEHFE8BAEQRAEQRAEIeKI4CEIgiAIgiAIQsQRwWMwlFpDJAoUBEEQBEEQBMEfEU8gCDA9fzXZU9WNq2fZX93iLovLXsEz6Z7MzH9vCZTh/N6zJVNJZhb5nAJm0srzuLv3eZ3JyQRBEARBEARhdBN5jUd6HtmcZX9FJfsrznJt6gJMrgzmsQtYPK2Ljyoq3eX96XOYHvFBBULNnFzop6hwHwU//5pzZX7KxgRBzk0QBEEQBEEQIkzkNR4tNex3Kzha+ObqAmZOigV6obeP/gkLWJzdzuEzvcRlz+Dh/i4uRHxQfijcR8Oup7hZmcyaowOLTU/NghP/yTs++6eUVJNidG21cXn9q9z0V9ZXR9O2ndwBxpsPkkIzzswcYnzqedUpqcYwoF0zaeXFaj1wnt/GJUujspGzg6wZF7lMsbsNe1U+rXUAZeRtNNCw6wo1KcnkjVkBShAEQRAEQRiLjIiplYd0Hp3aT1eDy5SqBWuFnewiE79Zg2KGdbglWAORodRKx+rJ1G70L3RAKS8t/ZYqY7XX3ikl1aT8rI6m9YpAoWW8+SCG3m3U7210b6eYM9xCQlRmDs6qfOrrlHYM5gxuWhq5uTefmwFNrTJI2JrH3b351Ntc2y+TYNQcZyxmUlU+9XtRBJGFmxhfp47v6FrmHi2lxnaFhkc2MHeN9/kIgiAIgiAIQqQYQcEjluyiBUxosWJ1u3CkY1qj7Nt/BkUAKZrIR4fPcmOERrXFeoWXfv417xvnD9BmuDBVLCf9r8fI89prZpLRQffegUIHZBCTFk3UxK1kZWp224yAqp2wHVI1EeDsdRAVqykLhHEhkyZGE+XWhCjYDYBL8Oiro1ttl7pXqa/DhzLyjC1UXNhNx4Vc1s1bOwI+K4IgCIIgCML9zggJHrFkF5mY1uXjOJ6eyMP9LXyk7jtz+CzRa2bwf2LPcmOE/MvfMSXzTqmVDts5DBvn+9F45JP7ONSWDdY2yUF3JJzDNSZb4VFKje0FppzYQKJoPARBEARBEIQRYgTC6aZjWuNH6HAxIdrtr0DsRCYMPCLylJlI3NjE7F1XqCn1KSt9kdwbx/wIJBZu2aIxLDP7abAR53fRGIo3MT6sAdm42xfNOIPv7i6cE3NIMWeE1SqF+2iwvQCVyWJmJQiCIAiCIIwoEdd4xGXP4GGAdBO/cUWzooczFTV81VLDR5NW8Mya1WSrJdfOVHJPoum6/R/OUXHZpfnIp6JQCaHrj5t7txG1dStZ5cXqHo8TuKtsVnmO+3iPo3coGuk83UZWQTVZBdp2LbTuncbsEq0Jl7dDe2BKqdk1i0sB/VgEQRAEQRAEIXL8JCEx6R/3ehChSEufTmvLVyPfcamVjsKr4gchCIIgCIIgCENkhKNajTHKTCRK2FlBEARBEARBGDIj4OMhCIIgCIIgCML9jggegiAIgiAIgiBEHBE8BEEQBEEQBEGIOCJ4CIIgCIIgCIIQcUTwEARBEARBEAQh4tyHgkc+FRc8iQLHmw+SVeIvCeBgMZNWfpAE4zA0JQiCIAiCIAg/MkYknO70/NVkT1U3rp5lf3WLuywuewXPpLvylauJBSM5mMJcZvMJb0uYXEEQBEEQBEEYMSKv8UjPI5uz7K+oZH/FWa5NXYAp3VP2THo/ZyoqlfIzkF20gLghdmmqOEeHtdRv2ZZVT8Hntfc4IaCaIb3wng5CEARBEARBEEaMyGs8WmrY71ZwtPDN1QXMnBQL9BI3aQJ/bznl0XC0dHAtO5EY4EaY3W2xXuGluE9YN8+fSqOU+T//mipTtddeZy8kbK3GMBHAQffe5+m0qYU5O8gqSHUfa6/Kp7XOtWUmrbyYGHepg24A4yZml8zglqad8eaDzEprpmnbTu5QRt5GAw27rlCTkkyeaF8EQRAEQRCEHzkj7OORzqNT++m63AvAjVv9/NO0JLeGIy57Bg8zgZ/FhtO24rvxEh+QOG+tX42GqWI5U078gXd89kdlFjPudD716/NpOg+GZarPR84Osgrg8nqlrH5vHVEFLj8OReigSi1bfwi7q0HbTrpt0UzKyFB3ZBCTFo399E7uuI45upa5xg9g9RUaKvLDOWFBEARBEARBGDOMoOARS3bRAia0nOJMr7qrpYYzt9N5Zs3/3979x0R55Xscf/fPGkBQyhApLLI2Qod6S6FSJQ5s9mYxETpCUixmSk2ammDjxh9tlstNq94mXm78gbuNktg06UWiLSbSp0giTTaFMbT+otxYKRjd0YVCGEoFwbB/9v4xP5iBARWZGcDP6y/Oc87zPIf56/nmfL/nbGdH+Xb+nR76GOOec8YHTVV0nCuOo2T+sIeV1umWDyp4Nx/av2mc2uU45V3FeHDtOuPLkogAIkwmxr//kkHvuBZ+HYnh2UQg91ViR1rpbZ36OIDBplZIyyMCICWP5QQaW0VByh7aXznKncvHsT7WPy0iIiIisnCEpLjcFXRYSeoxqLP7RxU3Gk9OpFqZcrAlDU+sHDyqhvdY21BIzeWj3DHMgYOPinWYf/yagoZZTH82HC38yj4Scw/Ta1oDXX+bWO2YmBTnHe8Q17yHleUBAiIRERERkUUiBCseZqzlgYOOKeOKzYx1tM2yvqOR8uwX+JR3AqweFFJT9BwXPn94MUXcplzoauEB8MDpZMm6LcR5OnO3kBjdza+tQK+T8eg1xKYAZJG8z7fWA+Aad1u6iV1ziMR1Tnrrr/m/qOg4VxzvwMkXWKugQ0REREQWuWeSV676LZgv8N8u18Ozba4Za3kOCQCMcePcGQLFJmnmdLo6H32TXWvNdxxb8fXEykeFwZ2in9kVoPYjoqSWjHUxExccp7j4Sf00/f6F5759Q18d4F95f4ZTPoXpnuLzSc90rXS8Tu/e9ZSHagVGRERERCSMgh54zIXHDTz8uVKwEhvCsXvURAF61zS1ICIiIiIiT4MQ1XiEUyPl2eFJZYooKSB2pJUOBR0iIiIi8pR7CgKPMPCe/dHNzd2HAxSVi4iIiIg8XRR4BEPrB1zUKoeIiIiIiFeIDxAUEREREZGnkQIPEREREREJOgUeIiIiIiISdAo8nlTK+2RWN5JZkhXumYiIiIiIzFvBLy435WArNhPlaY91cq7O53Ryv/7pDxFcdHIPsSHPSccB7XolIiIiIotf8AMPZxt1NW3uhgmLzUq2uQ2jE8CMtTiJnnMnXcGGKQdbcQHpNeeZ7XGBEODk8mByHKZ99+E5fWSlcYvN/XtYWx6e80dEREREROZaiLfTjSUmcozhIVcr3rKGhJ+vY7hXOOJXJxFFJL83w43O2b2h0rjFu/HfsCvbN+jIInnfPhKjPe1ubu7+gEFPM+V9MnfmssTdHP/+AO3119z3/RlarrN8s7t/pNW7ShG3s5HVKa57hiadTh63s5Hl10/B5reI9Xun6zRz17VUMqpzXTc4TnHxk3oADlr3kHj5KHcMc2iCJxERERGRIAtJ4BFvKaXYHAnAaKfhDTRil0Yyet8VhaQXbsdCG/afc3h5uQl43HyrQmouH2XjwGeszJ70sZ67hcR7p7h4oH7qbe6gY/yrQtoDnr0RQ2IedOwu5IEngMk9TFcrDH5SyKD72rMB7ozdXEDvJ4VcdLgCkcSSLAbr6+naXf+QVCvXaeuVxi3uXE5kV/Z7GI/5a4iIiIiIzCchKS4fsJ/hRM1JTtQY9CRZsVlMPr2xWGzbefm+wYnGWS5zFB3niuMomT/sCbxC0OtkPOUtNlQfIm5SV0TWGpY4TvmtVkw21OIJDq5x90DhjGN9jX//N+46XH8PXu9miSnl0W50O2h9gV0/ZHDM8R01RY91q4iIiIjIvBLiXa2c2Dv6iVrqSjQauj9GlDmHmI6T1LmKPFi2FMZ+fczVjob3WJuyh/ZXjnLHqJja7zhM++5CLu6+yvLqRjZU15L8eDFAWFQatzj2Sge7UtZT3hDu2YiIiIiIzF6IAw8TlowV3vSqgZs9jNLPPzwLHeZXSY/0aT+WRsqzX+BT3uHO5eNYA46pp2t3ITcdMTyb6Lry4Np1xlMKghyIZJGcl8rQdZ9Ur14n49Emb12Jv0JqLt/iXT5jpdKsRERERGQReCZ55arfgvkC3/oOgD77SfeOVm7mAnZYVrgb/dgD7GiVZk6nq/PR97mavKtVREktGetiJgb4FHIDrnqLzanepn9x+T6ebQmUXjW5YN3FU2TuW3ju/8wJfmN85qRdrURERERksQl64DEXHjfwmA/idjaS6JwabIiIiIiIPI10crmIiIiIiASdAg8REREREQm6EB8g+PRwnfEhIiIiIiKgFQ8REREREQkBBR4iIiIiIhJ0CjxERERERCToFHjMNynvk1l9iLhwz2MOJGR9TuUf35h50Kr/obLMYOuq0MxJRERERMIj+MXlphxsxWaiPO2xTs7VtTHgHWDGWp5DAgEOF1zMcg+xIc9Jx4HDPJjDx0aU1JJhOu9/QGKQJWR9zttLmzj497Mhe6eIiIiILCzBDzycbdTVtLkbJiw2K9nmNleAYcrBVpxEz7k2KM4J+lRkHrr9Fw7eDvckRERERCTYQrydbiwxkWMMD7mb3qDEjDW0E3F7g61lNvjOymnPx++yvewoiONy7V9oBzL/aJCfMHHHXZ+xmX80WP3POlhvIxmAbprd902vhLTqt4gFIJWM6lzXZccpv1WKJSW1bFgXA8DQV4V0tbquR5TUkuG+DjD+vft09JT3ydyZyxIA3mJD9Vv+/cGwbC87CixEA2CjsswGwMhP/8WJa55fIYn8IoPMSPD/fTLJL/rIfX2Y9vPbaL7n+3Df/sn3ioiIiMhCE5LAI95SSrHZ9QU52mlgOEPx1kdxltafNvH2796A2640oYSUl4jua/J+4Lb/3TrxsbtsLzty95Jw+wh97kvJ67NorrVyGlcgkp2VSfu1mT6P6+naXf+QVKtUEk2nuOgd9z4Rra5xD+rLuOiNT0pIq95CXP01Bh2Had99eHapVhUGd7a/OOniL1zYu57yhhnuu3eEE7VHZk61SrCw/DsrB29P/n3aaW6w0swbbC3bNPW+VSVkjtZxsEHpWyIiIiKLQUgCjwH7GU7YwZNqZbMY1NnnR/TRd62Ju2VZZHKWdjJJT4T21omP3YSsz3n7xRifO7qJB2/gMfJTfeAg5Yl0c9MTOPQ6GY82sQRcAUruITZsTvUZO8y/UgDHE7yuysrKqie4fyZ9dd4VooH7w0QvTYFH+ZXuDTKy3kZlWZZWOkREREQWgRCnWjmxd/SzIyUWmB+BB5zlZp+N1aug/V4ev+dHDE/Kz7K9WF+E9vNWVxqQOw0rfEpI25zqk3pVQlp1wZM/drYrHsHkXk1xpcMZ5AdMxxIRERGRhSLEgYcJS8YKRnuuVBKZQAAABaxJREFUhva1D9HeYSc74w0Sol9i5Mdt3tUMlsURjZMh98duZoaFaLrn5qWTVzIeRUoSSxjm115XM6KkgFig12fIA6cT0pKIeJznPuGKR9+IExKTXDuTzf4x0zjL6dqzrnqaZYACDxEREZEFKeiBh299B7i2zK3zbpk7sZUuAJbt7LCMcePcGUKaiXWvhX9EfcTbUXb+17cO+3Y97S99RH6ZQT4w8pOduwlztOLhOEyvo5HV1Y2shinF5TPes7ORRABHK70ja/zHtH5Jb94+b9F6UIvLPdy/09tlFmBycfl0XIX9ye5WcoFBps+qxpQUt7467X4lIiIisoA9k7xy1W/hnsTDpJnT6eq8Ee5piIiIiIjILOnkchERERERCToFHiIiIiIiEnQKPEREREREJOgUeIiIiIiISNAp8BARERERkaBT4CEiIiIiIkGnwOO1D/jiQhPNF5poPvMBa4P0mtJjTXxR8erUjqLjXHEYVPpeqzC4Y1QEaSYiIiIiIqEX/JPLTTnYis1EedpjnZyra2PA0zYXsMOywt3ox15znpCe2HHpEG9uPARbj9BcGMoXA1Rw/sifGDz5Agd9L1dZ+dS4xZWaTtaWN4Z6UiIiIiIicy74gYezjbqaNnfDhMVmJdvchtEJYMZqAXvNSW4A6YXbsRSaudHYOf3zFpFK4x3imvewtmpq30HrZ6x3/Ac1RY2UN4R+biIiIiIicyn4gYefWGIixxge8rQ7MWomgowbjn4sGdHEw8SKSLhtPUJzWaq32VW7iV2nXX+vrajj47wYb99wy37erLrqbZcea2LbxK0M+/5TRcfZ/NJPfGWdbkWjik+bX+fYtgpoCBCZiIiIiIgsICEJPOItpRSbIwEY7TQwnIHHpaesYLTn6jwLOuDzjZs4A656kP11VDhsVF2CK1U28r0xwRaOXXiT0qqrnMEddFBL/sYvwd22+j579fM89+P3/ilWkxjfdPCfR9ZRCTOOExERERGZ70ISeAzYz3DCDp5UK5vFoM7uH33EW0qxLO3kXOM0UUkYrE0yMdzyV1fQAXCphf8bziM+BbjElNUQGGbgNeDSFrJTh/l2/5fTPtv6u+f4pf8hKWUNvQweef6J/gcRERERkfkgxLtaObF39BO1NNbvaryllOKkHv+i83lvC8fKUumq3UT+xk3kb6ylK9xTEhERERGZp0IceJiwZKxg9L63yIP0wu3zNui40uMkJu9NSj0Xtr7JH2K6uXwaeC2JeIYZcLi61lYUkua908HAcAwv573q7qvzq/UAMP75C8+tMM88gaJE4n75maej1F5EREREFrOgp1r51ncA9NlPUuf5kjbl8PLzAGaKy81+Y4xQfW37pUul8vGFPBhu4cPSQ1w5vZcPk+r4+EIT2wAY5tv9Nlfq1aVDGN1NbNvfxB8Aulv4dvjf3M+5StVfW/hi/36a84DuWj5sKWSP73tv/swv22eu37D+KYPnBr7GmOv/WUREREQkxJ5JXrnqt3BP4mHSzOl0dYb0dI+QqDRusbl/zzRndVRw3vE6vXvXaztdEREREVnwdHJ5GB20fsZg/lHOBzik3HXGx38r6BARERGRRUGBR1hVUbD3G+KKjvtvtVth8C6f6dRyEREREVk0lGolIiIiIiJBpxUPEREREREJOgUeIiIiIiISdAo8REREREQk6IJ+jgemHGzFZqI87bFOn8MCTVhsVtK9x3yMcePcGezOoM9KRERERERCKMTF5a5AI6Yj8AGB8ZZSipde50Sjf6eKy0VEREREFrYQp1rFEhM5xvDQNL1LIxm9P02niIiIiIgsWMFPtcK9kmF25VONdhoYvqlUvqlYY52ca1SelYiIiIjIYhOWVKukHoO6AIUc8ZZSipN6fGpAXJRqJSIiIiKysIU41cqJvaOfqKWxAXsH7Nfpi4whcK+IiIiIiCxU/w+DMJG0woKXPgAAAABJRU5ErkJggg==;" vertex="1" parent="1">
                    <mxGeometry x="310" y="240.00000000000003" width="478" height="192.28" as="geometry"/>
                </mxCell>
            </root>
        </mxGraphModel>
    </diagram>
</mxfile>